<?xml version="1.0" encoding="utf-8"?>
<!-- Generator: Adobe Illustrator 18.0.0, SVG Export Plug-In . SVG Version: 6.00 Build 0)  -->
<!DOCTYPE svg PUBLIC "-//W3C//DTD SVG 1.1//EN" "http://www.w3.org/Graphics/SVG/1.1/DTD/svg11.dtd">
<svg version="1.1" id="Layer_1" xmlns="http://www.w3.org/2000/svg" xmlns:xlink="http://www.w3.org/1999/xlink" x="0px" y="0px"
	 viewBox="0 0 480.7 362.6" enable-background="new 0 0 480.7 362.6" xml:space="preserve">
<g>
	<g>
		<g>
			<g>
				<g>
					<g>
						<polygon fill="#589D49" points="439.6,307 388.5,307 388.5,250.4 						"/>
						<polygon fill="#589D49" points="333.3,310 396.5,310 396.5,254.4 						"/>
						<polygon fill="#00954E" points="419.9,280 388.5,280 388.5,242.8 						"/>
						<polygon fill="#007C4A" points="416.9,310 388.5,310 388.5,280.8 						"/>
					</g>
					<polygon fill="#589D49" points="426.7,249 388.5,249 388.5,194.4 					"/>
					<polygon fill="#589D49" points="337.7,228 388.5,228 388.5,172.4 					"/>
					<polygon fill="#00954E" points="319.2,292 380.5,292 380.5,210.2 					"/>
					<polygon fill="#00954E" points="426.7,217 388.5,217 388.5,159.9 					"/>
					<polygon fill="#00954E" points="369.9,183 402.5,183 402.5,137.5 					"/>
					<polygon fill="#007C4A" points="358.2,249 388.5,249 388.5,217.3 					"/>
				</g>
				<g>
					<g>
						<path fill="#589D49" d="M464,306.9h-37.6c-3.9,0-7.1-3.2-7.1-7.1v-33.4c0-6.2,7.3-9.4,11.9-5.3l37.6,33.4
							C473.6,298.8,470.5,306.9,464,306.9z"/>
						<polygon fill="#589D49" points="360.5,294.3 419.3,294.3 419.3,237.9 						"/>
						<polygon fill="#00954E" points="458.7,280 418.5,280 418.5,242.8 						"/>
						<polygon fill="#007C4A" points="455,310 418.5,310 418.5,280.8 						"/>
					</g>
					<path fill="#589D49" d="M452.7,249.4h-27c-3.6,0-6.6-2.9-6.6-6.6v-30.9c0-6.1,7.5-8.9,11.5-4.3l27,30.9
						C461.3,242.7,458.3,249.4,452.7,249.4z"/>
					<polygon fill="#589D49" points="358.3,228 418.5,228 418.5,172.4 					"/>
					<polygon fill="#00954E" points="460.4,222 418.5,222 418.5,159.9 					"/>
					<polygon fill="#007C4A" points="460.4,205 410.5,205 410.5,168.5 					"/>
					<polygon fill="#007C4A" points="383.3,249 418.5,249 418.5,217.3 					"/>
				</g>
				<polygon fill="#007C4A" points="442.4,305 402.5,305 402.5,249.8 				"/>
				<rect x="399.6" y="278.5" fill="#8C6239" width="7.2" height="61.1"/>
				<polygon fill="#754C24" points="406.8,327.3 399.6,327.3 406.8,278.5 406.8,278.5 				"/>
				<g>
					<path fill="#007C4A" d="M449.5,282.1h-11.2c-5.6,0-10.1-4.5-10.1-10.1v-10.6c0-8.9,10.6-13.4,17-7.3l11.2,10.6
						C463,270.9,458.6,282.1,449.5,282.1z"/>
					<g>
						<polygon fill="#00954E" points="442.4,292 402.5,292 402.5,235.4 						"/>
						<polygon fill="#589D49" points="362.5,270 402.5,270 402.5,213.4 						"/>
						<polygon fill="#589D49" points="442.4,257 402.5,257 402.5,200.9 						"/>
						<polygon fill="#589D49" points="362.4,305 402.5,305 402.5,248.9 						"/>
						<polygon fill="#00954E" points="378.3,243 402.5,243 402.5,205.7 						"/>
						<polygon fill="#007C4A" points="380.6,274 402.5,274 402.5,243.8 						"/>
					</g>
					<polygon fill="#589D49" points="372.8,212 402.5,212 402.5,157.3 					"/>
					<polygon fill="#589D49" points="443.8,192 402.5,192 402.5,135.3 					"/>
					<polygon fill="#007C4A" points="427.5,212 402.5,212 402.5,180.3 					"/>
				</g>
			</g>
		</g>
		<g>
			<g>
				<g>
					<g>
						<polygon fill="#589D49" points="373,194 321.5,194 321.5,137.6 						"/>
						<polygon fill="#589D49" points="266.8,197 329.5,197 329.5,141.6 						"/>
						<polygon fill="#00954E" points="353.3,167 321.5,167 321.5,129.9 						"/>
						<polygon fill="#007C4A" points="350.3,197 321.5,197 321.5,168 						"/>
					</g>
					<polygon fill="#589D49" points="360.2,137 321.5,137 321.5,81.6 					"/>
					<polygon fill="#589D49" points="271.2,115 321.5,115 321.5,59.5 					"/>
					<polygon fill="#00954E" points="252.6,179 313.5,179 313.5,97.4 					"/>
					<polygon fill="#00954E" points="360.2,104 321.5,104 321.5,47 					"/>
					<polygon fill="#00954E" points="303.3,70 336.5,70 336.5,24.7 					"/>
					<polygon fill="#007C4A" points="291.6,137 321.5,137 321.5,104.5 					"/>
				</g>
				<g>
					<g>
						<polygon fill="#589D49" points="416.2,194 352.5,194 352.5,137.6 						"/>
						<polygon fill="#589D49" points="293.9,181.5 352.7,181.5 352.7,125.1 						"/>
						<polygon fill="#00954E" points="392.1,167 352.5,167 352.5,129.9 						"/>
						<polygon fill="#007C4A" points="388.5,197 352.5,197 352.5,168 						"/>
					</g>
					<polygon fill="#589D49" points="400.5,137 352.5,137 352.5,81.6 					"/>
					<polygon fill="#589D49" points="291.7,115 352.5,115 352.5,59.5 					"/>
					<polygon fill="#00954E" points="393.9,109 352.5,109 352.5,47 					"/>
					<polygon fill="#007C4A" points="393.9,93 344.5,93 344.5,55.7 					"/>
					<polygon fill="#007C4A" points="316.8,137 352.5,137 352.5,104.5 					"/>
				</g>
				<polygon fill="#007C4A" points="375.8,192 336.5,192 336.5,137 				"/>
				<rect x="333" y="165.7" fill="#8C6239" width="7.2" height="61.1"/>
				<polygon fill="#754C24" points="340.2,214.4 333,214.4 340.2,165.7 340.2,165.7 				"/>
				<g>
					<polygon fill="#007C4A" points="408.2,169 361.5,169 361.5,125.1 					"/>
					<g>
						<polygon fill="#00954E" points="375.8,179 336.5,179 336.5,122.6 						"/>
						<polygon fill="#589D49" points="296,157 336.5,157 336.5,100.5 						"/>
						<polygon fill="#589D49" points="375.8,144 336.5,144 336.5,88 						"/>
						<polygon fill="#589D49" points="295.8,192 336.5,192 336.5,136.1 						"/>
						<polygon fill="#00954E" points="311.7,130 336.5,130 336.5,92.9 						"/>
						<polygon fill="#007C4A" points="314.1,161 336.5,161 336.5,130.9 						"/>
					</g>
					<polygon fill="#589D49" points="306.2,99 336.5,99 336.5,44.5 					"/>
					<polygon fill="#589D49" points="377.2,79 336.5,79 336.5,22.5 					"/>
					<polygon fill="#007C4A" points="360.9,99 336.5,99 336.5,67.4 					"/>
				</g>
			</g>
		</g>
		<g>
			<g>
				<g>
					<g>
						<polygon fill="#589D49" points="302.6,316 353.5,316 353.5,259.5 						"/>
						<polygon fill="#589D49" points="408.8,319 345.5,319 345.5,263.4 						"/>
						<polygon fill="#00954E" points="322.3,289 353.5,289 353.5,251.8 						"/>
						<polygon fill="#007C4A" points="325.3,319 353.5,319 353.5,289.8 						"/>
					</g>
					<polygon fill="#589D49" points="315.5,258 353.5,258 353.5,203.4 					"/>
					<polygon fill="#589D49" points="404.5,237 353.5,237 353.5,181.4 					"/>
					<polygon fill="#00954E" points="423,301 361.5,301 361.5,219.2 					"/>
					<polygon fill="#00954E" points="315.5,226 353.5,226 353.5,168.9 					"/>
					<polygon fill="#00954E" points="372.3,192 338.5,192 338.5,146.6 					"/>
					<polygon fill="#007C4A" points="384,258 353.5,258 353.5,226.3 					"/>
				</g>
				<g>
					<g>
						<polygon fill="#589D49" points="259.4,316 322.5,316 322.5,259.5 						"/>
						<polygon fill="#589D49" points="381.7,303.4 322.9,303.4 322.9,247 						"/>
						<polygon fill="#00954E" points="283.5,289 322.5,289 322.5,251.8 						"/>
						<polygon fill="#007C4A" points="287.1,319 322.5,319 322.5,289.8 						"/>
					</g>
					<polygon fill="#589D49" points="275.1,258 322.5,258 322.5,203.4 					"/>
					<polygon fill="#589D49" points="383.9,237 322.5,237 322.5,181.4 					"/>
					<polygon fill="#00954E" points="281.7,231 322.5,231 322.5,168.9 					"/>
					<polygon fill="#007C4A" points="281.7,214 330.5,214 330.5,177.6 					"/>
					<polygon fill="#007C4A" points="358.8,258 322.5,258 322.5,226.3 					"/>
				</g>
				<polygon fill="#007C4A" points="299.8,314 338.5,314 338.5,258.8 				"/>
				<rect x="335.4" y="287.5" fill="#8C6239" width="7.2" height="61.1"/>
				<polygon fill="#754C24" points="335.4,336.3 342.6,336.3 335.4,287.5 335.4,287.5 				"/>
				<g>
					<polygon fill="#007C4A" points="267.4,291 313.5,291 313.5,246.9 					"/>
					<g>
						<polygon fill="#00954E" points="299.8,301 338.5,301 338.5,244.4 						"/>
						<polygon fill="#589D49" points="379.6,279 338.5,279 338.5,222.4 						"/>
						<polygon fill="#589D49" points="299.8,266 338.5,266 338.5,209.9 						"/>
						<polygon fill="#589D49" points="379.8,314 338.5,314 338.5,257.9 						"/>
						<polygon fill="#00954E" points="363.9,252 338.5,252 338.5,214.7 						"/>
						<polygon fill="#007C4A" points="361.5,283 338.5,283 338.5,252.8 						"/>
					</g>
					<polygon fill="#589D49" points="369.4,221 338.5,221 338.5,166.4 					"/>
					<polygon fill="#589D49" points="298.4,201 338.5,201 338.5,144.3 					"/>
					<polygon fill="#007C4A" points="314.7,221 338.5,221 338.5,189.3 					"/>
				</g>
			</g>
		</g>
		<g>
			<g>
				<g>
					<g>
						<polygon fill="#589D49" points="46.5,307 97.5,307 97.5,250.4 						"/>
						<polygon fill="#589D49" points="152.7,310 89.5,310 89.5,254.4 						"/>
						<polygon fill="#00954E" points="66.2,280 97.5,280 97.5,242.8 						"/>
						<polygon fill="#007C4A" points="69.2,310 97.5,310 97.5,280.8 						"/>
					</g>
					<polygon fill="#589D49" points="59.3,249 97.5,249 97.5,194.4 					"/>
					<polygon fill="#589D49" points="148.3,228 97.5,228 97.5,172.4 					"/>
					<polygon fill="#00954E" points="166.9,292 105.5,292 105.5,210.2 					"/>
					<polygon fill="#00954E" points="59.3,217 97.5,217 97.5,159.9 					"/>
					<polygon fill="#00954E" points="116.2,183 82.5,183 82.5,137.5 					"/>
					<polygon fill="#007C4A" points="127.8,249 97.5,249 97.5,217.3 					"/>
				</g>
				<g>
					<g>
						<path fill="#589D49" d="M19.9,306.9h41c3.5,0,6.3-2.8,6.3-6.3v-36.2c0-5.4-6.4-8.3-10.5-4.7l-41,36.2
							C11.4,299.7,14.1,306.9,19.9,306.9z"/>
						<polygon fill="#589D49" points="125.6,294.3 66.8,294.3 66.8,237.9 						"/>
						<polygon fill="#00954E" points="27.4,280 66.5,280 66.5,242.8 						"/>
						<polygon fill="#007C4A" points="31,310 66.5,310 66.5,280.8 						"/>
					</g>
					<path fill="#589D49" d="M37,249.4H59c4.5,0,8.2-3.7,8.2-8.2v-25c0-7.6-9.4-11.1-14.3-5.4l-21.9,25
						C26.2,241.1,30,249.4,37,249.4z"/>
					<polygon fill="#589D49" points="127.7,228 66.5,228 66.5,172.4 					"/>
					<path fill="#00954E" d="M39.7,222.3h19.9c4.2,0,7.5-3.4,7.5-7.5v-29.9c0-7.5-9.7-10.4-13.8-4.2l-19.9,29.9
						C30.1,215.6,33.7,222.3,39.7,222.3z"/>
					<polygon fill="#007C4A" points="25.6,205 74.5,205 74.5,168.5 					"/>
					<polygon fill="#007C4A" points="102.7,249 66.5,249 66.5,217.3 					"/>
				</g>
				<polygon fill="#007C4A" points="43.7,305 82.5,305 82.5,249.8 				"/>
				<rect x="79.3" y="278.5" fill="#8C6239" width="7.2" height="61.1"/>
				<polygon fill="#754C24" points="79.3,327.3 86.5,327.3 79.3,278.5 79.3,278.5 				"/>
				<g>
					<path fill="#007C4A" d="M27.4,282.1h24.4c3.5,0,6.4-2.9,6.4-6.4v-23c0-5.6-6.7-8.5-10.8-4.6L23,271
						C18.8,275,21.6,282.1,27.4,282.1z"/>
					<g>
						<polygon fill="#00954E" points="43.7,292 82.5,292 82.5,235.4 						"/>
						<polygon fill="#589D49" points="123.5,270 82.5,270 82.5,213.4 						"/>
						<polygon fill="#589D49" points="43.7,257 82.5,257 82.5,200.9 						"/>
						<polygon fill="#589D49" points="123.6,305 82.5,305 82.5,248.9 						"/>
						<polygon fill="#00954E" points="107.8,243 82.5,243 82.5,205.7 						"/>
						<polygon fill="#007C4A" points="105.4,274 82.5,274 82.5,243.8 						"/>
					</g>
					<polygon fill="#589D49" points="113.3,212 82.5,212 82.5,157.3 					"/>
					<polygon fill="#589D49" points="42.2,192 82.5,192 82.5,135.3 					"/>
					<polygon fill="#007C4A" points="58.6,212 82.5,212 82.5,180.3 					"/>
				</g>
			</g>
		</g>
		<g>
			<g>
				<g>
					<g>
						<polygon fill="#589D49" points="113.1,194 163.5,194 163.5,137.6 						"/>
						<polygon fill="#589D49" points="219.3,197 155.5,197 155.5,141.6 						"/>
						<polygon fill="#00954E" points="132.8,167 163.5,167 163.5,129.9 						"/>
						<polygon fill="#007C4A" points="135.8,197 163.5,197 163.5,168 						"/>
					</g>
					<polygon fill="#589D49" points="125.9,137 163.5,137 163.5,81.6 					"/>
					<polygon fill="#589D49" points="214.9,115 163.5,115 163.5,59.5 					"/>
					<polygon fill="#00954E" points="233.4,179 171.5,179 171.5,97.4 					"/>
					<polygon fill="#00954E" points="125.9,104 163.5,104 163.5,47 					"/>
					<polygon fill="#00954E" points="182.8,70 149.5,70 149.5,24.7 					"/>
					<polygon fill="#007C4A" points="194.4,137 163.5,137 163.5,104.5 					"/>
				</g>
				<g>
					<g>
						<polygon fill="#589D49" points="69.8,194 133.5,194 133.5,137.6 						"/>
						<polygon fill="#589D49" points="192.1,181.5 133.4,181.5 133.4,125.1 						"/>
						<polygon fill="#00954E" points="93.9,167 133.5,167 133.5,129.9 						"/>
						<polygon fill="#007C4A" points="97.6,197 133.5,197 133.5,168 						"/>
					</g>
					<polygon fill="#589D49" points="85.5,137 133.5,137 133.5,81.6 					"/>
					<polygon fill="#589D49" points="194.3,115 133.5,115 133.5,59.5 					"/>
					<polygon fill="#00954E" points="92.2,109 133.5,109 133.5,47 					"/>
					<polygon fill="#007C4A" points="92.2,93 141.5,93 141.5,55.7 					"/>
					<polygon fill="#007C4A" points="169.3,137 133.5,137 133.5,104.5 					"/>
				</g>
				<polygon fill="#007C4A" points="110.2,192 149.5,192 149.5,137 				"/>
				<rect x="145.9" y="165.7" fill="#8C6239" width="7.2" height="61.1"/>
				<polygon fill="#754C24" points="145.9,214.4 153.1,214.4 145.9,165.7 145.9,165.7 				"/>
				<g>
					<polygon fill="#007C4A" points="77.9,169 124.5,169 124.5,125.1 					"/>
					<g>
						<polygon fill="#00954E" points="110.2,179 149.5,179 149.5,122.6 						"/>
						<polygon fill="#589D49" points="190.1,157 149.5,157 149.5,100.5 						"/>
						<polygon fill="#589D49" points="110.2,144 149.5,144 149.5,88 						"/>
						<polygon fill="#589D49" points="190.2,192 149.5,192 149.5,136.1 						"/>
						<polygon fill="#00954E" points="174.4,130 149.5,130 149.5,92.9 						"/>
						<polygon fill="#007C4A" points="172,161 149.5,161 149.5,130.9 						"/>
					</g>
					<polygon fill="#589D49" points="179.8,99 149.5,99 149.5,44.5 					"/>
					<polygon fill="#589D49" points="108.8,79 149.5,79 149.5,22.5 					"/>
					<polygon fill="#007C4A" points="125.2,99 149.5,99 149.5,67.4 					"/>
				</g>
			</g>
		</g>
		<g>
			<g>
				<g>
					<g>
						<polygon fill="#589D49" points="183.4,316 132.5,316 132.5,259.5 						"/>
						<polygon fill="#589D49" points="77.2,319 140.5,319 140.5,263.4 						"/>
						<polygon fill="#00954E" points="163.7,289 132.5,289 132.5,251.8 						"/>
						<polygon fill="#007C4A" points="160.7,319 132.5,319 132.5,289.8 						"/>
					</g>
					<polygon fill="#589D49" points="170.6,258 132.5,258 132.5,203.4 					"/>
					<polygon fill="#589D49" points="81.6,237 132.5,237 132.5,181.4 					"/>
					<polygon fill="#00954E" points="63.1,301 124.5,301 124.5,219.2 					"/>
					<polygon fill="#00954E" points="170.6,226 132.5,226 132.5,168.9 					"/>
					<polygon fill="#00954E" points="113.7,192 146.5,192 146.5,146.6 					"/>
					<polygon fill="#007C4A" points="102.1,258 132.5,258 132.5,226.3 					"/>
				</g>
				<g>
					<g>
						<polygon fill="#589D49" points="226.7,316 162.5,316 162.5,259.5 						"/>
						<polygon fill="#589D49" points="104.4,303.4 163.1,303.4 163.1,247 						"/>
						<polygon fill="#00954E" points="202.6,289 162.5,289 162.5,251.8 						"/>
						<polygon fill="#007C4A" points="198.9,319 162.5,319 162.5,289.8 						"/>
					</g>
					<polygon fill="#589D49" points="211,258 162.5,258 162.5,203.4 					"/>
					<polygon fill="#589D49" points="102.2,237 162.5,237 162.5,181.4 					"/>
					<polygon fill="#00954E" points="204.3,231 162.5,231 162.5,168.9 					"/>
					<polygon fill="#007C4A" points="204.3,214 154.5,214 154.5,177.6 					"/>
					<polygon fill="#007C4A" points="127.2,258 162.5,258 162.5,226.3 					"/>
				</g>
				<polygon fill="#007C4A" points="186.3,314 146.5,314 146.5,258.8 				"/>
				<rect x="143.4" y="287.5" fill="#8C6239" width="7.2" height="61.1"/>
				<polygon fill="#754C24" points="150.6,336.3 143.4,336.3 150.6,287.5 150.6,287.5 				"/>
				<g>
					<polygon fill="#007C4A" points="218.6,291 171.5,291 171.5,246.9 					"/>
					<g>
						<polygon fill="#00954E" points="186.3,301 146.5,301 146.5,244.4 						"/>
						<polygon fill="#589D49" points="106.4,279 146.5,279 146.5,222.4 						"/>
						<polygon fill="#589D49" points="186.3,266 146.5,266 146.5,209.9 						"/>
						<polygon fill="#589D49" points="106.3,314 146.5,314 146.5,257.9 						"/>
						<polygon fill="#00954E" points="122.1,252 146.5,252 146.5,214.7 						"/>
						<polygon fill="#007C4A" points="124.5,283 146.5,283 146.5,252.8 						"/>
					</g>
					<polygon fill="#589D49" points="116.6,221 146.5,221 146.5,166.4 					"/>
					<polygon fill="#589D49" points="187.7,201 146.5,201 146.5,144.3 					"/>
					<polygon fill="#007C4A" points="171.3,221 146.5,221 146.5,189.3 					"/>
				</g>
			</g>
		</g>
		<g>
			<path fill="#8AC640" d="M310.4,269.8H209.7c-4.6,0-8.3-3.7-8.3-8.3v-5.2c0-4.6,3.7-8.3,8.3-8.3h78.9c4.6,0,8.3-3.7,8.3-8.3v-2
				c0-4.6-3.7-8.3-8.3-8.3H141.5c-4.6,0-8.3-3.7-8.3-8.3v0c0-4.6-3.7-8.3-8.3-8.3H79.2c-4.6,0-8.3-3.7-8.3-8.3v-53.9
				c0-4.6,3.7-8.3,8.3-8.3h232c4.6,0,8.3-3.7,8.3-8.3v-6.3c0-4.6,3.7-8.3,8.3-8.3h19.4c4.6,0,8.3-3.7,8.3-8.3V98.1
				c0-4.6-3.7-8.3-8.3-8.3h-12.7c-4.6,0-8.3-3.7-8.3-8.3V49.3c0-4.6-3.7-8.3-8.3-8.3H170.4c-4.6,0-8.3-3.7-8.3-8.3v-5.2
				c0-4.6,3.7-8.3,8.3-8.3h169.3c4.6,0,8.3,3.7,8.3,8.3v32.1c0,4.6,3.7,8.3,8.3,8.3h12.7c4.6,0,8.3,3.7,8.3,8.3v56.3
				c0,4.6-3.7,8.3-8.3,8.3h-19.4c-4.6,0-8.3,3.7-8.3,8.3v6.3c0,4.6-3.7,8.3-8.3,8.3h-232c-4.6,0-8.3,3.7-8.3,8.3v10.3
				c0,4.6,3.7,8.3,8.3,8.3h45.6c4.6,0,8.3,3.7,8.3,8.3v0c0,4.6,3.7,8.3,8.3,8.3h147.1c4.6,0,8.3,3.7,8.3,8.3v45.6
				C318.7,266.1,315,269.8,310.4,269.8z"/>
		</g>
		<path fill="#006F37" d="M307.9,11.4H154.7c-4.1,0-7.4,3.3-7.4,7.4v343.8h168V18.8C315.3,14.7,311.9,11.4,307.9,11.4z"/>
		<path fill="#0186C8" d="M286.5,11.4H176.1c-5.1,0-9.2,4.1-9.2,9.2v342h128.9v-342C295.7,15.5,291.6,11.4,286.5,11.4z"/>
		<path fill="#0080AE" d="M269.7,153h-0.7c-2.8,0-5.1,2.3-5.1,5.1v11.2c0,2.8-2.3,5.1-5.1,5.1h-0.6c-2.8,0-5.1-2.3-5.1-5.1V93.2
			c0-2.8,2.3-5.1,5.1-5.1h0.6c2.8,0,5.1,2.3,5.1,5.1v43.7c0,2.8,2.3,5.1,5.1,5.1h0.7c2.8,0,5.1-2.3,5.1-5.1v-11.5
			c0-2.8,2.3-5.1,5.1-5.1h0.6c2.8,0,5.1,2.3,5.1,5.1v0.9c0,2.8,2.3,5.1,5.1,5.1h0.6c2.8,0,5.1-2.3,5.1-5.1v-11.7
			c0-2.8,2.3-5.1,5.1-5.1h0.6c2.8,0,5.1,2.3,5.1,5.1v54.9c0,2.8-2.3,5.1-5.1,5.1h-0.6c-2.8,0-5.1-2.3-5.1-5.1l0,0
			c0-2.8-2.3-5.1-5.1-5.1h-0.6c-2.8,0-5.1,2.3-5.1,5.1v10.8c0,2.8-2.3,5.1-5.1,5.1h-0.6c-2.8,0-5.1-2.3-5.1-5.1v-22.2
			C274.8,155.3,272.5,153,269.7,153z"/>
		<path fill="#0075A5" d="M269,185.1h0.5c2.9,0,5.2-2.3,5.2-5.2v0c0-2.9,2.3-5.2,5.2-5.2h0.5c2.9,0,5.2,2.3,5.2,5.2v32.9
			c0,2.9-2.3,5.2-5.2,5.2h-0.5c-2.9,0-5.2-2.3-5.2-5.2v-0.5c0-2.9-2.3-5.2-5.2-5.2H269c-2.9,0-5.2,2.3-5.2,5.2v22.1
			c0,2.9-2.3,5.2-5.2,5.2h-0.5c-2.9,0-5.2-2.3-5.2-5.2v-76.7c0-2.9,2.3-5.2,5.2-5.2h0.5c2.9,0,5.2,2.3,5.2,5.2V180
			C263.8,182.8,266.1,185.1,269,185.1z"/>
		<path fill="#0092C0" d="M226.4,175.6H226c-2.9,0-5.2-2.3-5.2-5.2v0c0-2.9-2.3-5.2-5.2-5.2h-0.5c-2.9,0-5.2,2.3-5.2,5.2v32.9
			c0,2.9,2.3,5.2,5.2,5.2h0.5c2.9,0,5.2-2.3,5.2-5.2v-0.5c0-2.9,2.3-5.2,5.2-5.2h0.5c2.9,0,5.2,2.3,5.2,5.2V225
			c0,2.9,2.3,5.2,5.2,5.2h0.5c2.9,0,5.2-2.3,5.2-5.2v-76.7c0-2.9-2.3-5.2-5.2-5.2h-0.5c-2.9,0-5.2,2.3-5.2,5.2v22.2
			C231.6,173.3,229.3,175.6,226.4,175.6z"/>
		<path fill="#0075A5" d="M290.3,249.6h-0.5c-2.9,0-5.2-2.3-5.2-5.2v0c0-2.9-2.3-5.2-5.2-5.2H279c-2.9,0-5.2,2.3-5.2,5.2v32.9
			c0,2.9,2.3,5.2,5.2,5.2h0.5c2.9,0,5.2-2.3,5.2-5.2v-0.5c0-2.9,2.3-5.2,5.2-5.2h0.5c2.9,0,5.2,2.3,5.2,5.2v22.1
			c0,2.9,2.3,5.2,5.2,5.2h0.5c2.9,0,5.2-2.3,5.2-5.2v-76.7c0-2.9-2.3-5.2-5.2-5.2h-0.5c-2.9,0-5.2,2.3-5.2,5.2v22.2
			C295.5,247.3,293.2,249.6,290.3,249.6z"/>
		<path fill="#0092C0" d="M204.2,264.4h0.7c2.8,0,5.1,2.3,5.1,5.1v23c0,2.8,2.3,5.1,5.1,5.1h0.6c2.8,0,5.1-2.3,5.1-5.1v-87.9
			c0-2.8-2.3-5.1-5.1-5.1h-0.6c-2.8,0-5.1,2.3-5.1,5.1v43.7c0,2.8-2.3,5.1-5.1,5.1h-0.7c-2.8,0-5.1-2.3-5.1-5.1v-11.5
			c0-2.8-2.3-5.1-5.1-5.1h-0.6c-2.8,0-5.1,2.3-5.1,5.1v0.9c0,2.8-2.3,5.1-5.1,5.1h-0.6c-2.8,0-5.1-2.3-5.1-5.1v-11.7
			c0-2.8-2.3-5.1-5.1-5.1h-0.6c-2.8,0-5.1,2.3-5.1,5.1v54.9c0,2.8,2.3,5.1,5.1,5.1h0.6c2.8,0,5.1-2.3,5.1-5.1l0,0
			c0-2.8,2.3-5.1,5.1-5.1h0.6c2.8,0,5.1,2.3,5.1,5.1v10.8c0,2.8,2.3,5.1,5.1,5.1h0.6c2.8,0,5.1-2.3,5.1-5.1v-22.2
			C199.1,266.7,201.4,264.4,204.2,264.4z"/>
		<path fill="#0092C0" d="M258.3,227.6h-0.6c-2.8,0-5.1-2.3-5.1-5.1v0c0-2.8-2.3-5.1-5.1-5.1h-0.7c-2.8,0-5.1,2.3-5.1,5.1v43.7
			c0,2.8,2.3,5.1,5.1,5.1h0.7c2.8,0,5.1-2.3,5.1-5.1v-11.3c0-2.8,2.3-5.1,5.1-5.1h0.6c2.8,0,5.1,2.3,5.1,5.1v0.1
			c0,2.8,2.3,5.1,5.1,5.1h0.7c2.8,0,5.1-2.3,5.1-5.1v-43.7c0-2.8-2.3-5.1-5.1-5.1h-0.7c-2.8,0-5.1,2.3-5.1,5.1v11.2
			C263.4,225.3,261.1,227.6,258.3,227.6z"/>
		<path fill="#0080AE" d="M257.9,322h0.7c2.8,0,5.1-2.3,5.1-5.1v-37c0-2.8,2.3-5.1,5.1-5.1h0.6c2.8,0,5.1,2.3,5.1,5.1v75.4
			c0,2.8-2.3,5.1-5.1,5.1h-0.6c-2.8,0-5.1-2.3-5.1-5.1v-17.2c0-2.8-2.3-5.1-5.1-5.1h-0.7c-2.8,0-5.1,2.3-5.1,5.1v11.5
			c0,2.8-2.3,5.1-5.1,5.1h-0.6c-2.8,0-5.1-2.3-5.1-5.1v-0.9c0-2.8-2.3-5.1-5.1-5.1h-0.6c-2.8,0-5.1,2.3-5.1,5.1v2.4
			c0,2.8-2.3,5.1-5.1,5.1h-0.6c-2.8,0-5.1-2.3-5.1-5.1v-45.6c0-2.8,2.3-5.1,5.1-5.1h0.6c2.8,0,5.1,2.3,5.1,5.1l0,0
			c0,2.8,2.3,5.1,5.1,5.1h0.6c2.8,0,5.1-2.3,5.1-5.1v-10.8c0-2.8,2.3-5.1,5.1-5.1h0.6c2.8,0,5.1,2.3,5.1,5.1v22.2
			C252.8,319.7,255.1,322,257.9,322z"/>
		<path fill="#0075A5" d="M194.5,304h0.7c2.8,0,5.1,2.3,5.1,5.1v37c0,2.8,2.3,5.1,5.1,5.1h0.6c2.8,0,5.1-2.3,5.1-5.1V244.1
			c0-2.8-2.3-5.1-5.1-5.1h-0.6c-2.8,0-5.1,2.3-5.1,5.1v43.7c0,2.8-2.3,5.1-5.1,5.1h-0.7c-2.8,0-5.1-2.3-5.1-5.1v-11.5
			c0-2.8-2.3-5.1-5.1-5.1h-0.6c-2.8,0-5.1,2.3-5.1,5.1v0.9c0,2.8-2.3,5.1-5.1,5.1H173c-2.8,0-5.1-2.3-5.1-5.1v-11.7
			c0-2.8-2.3-5.1-5.1-5.1h-0.6c-2.8,0-5.1,2.3-5.1,5.1v54.9c0,2.8,2.3,5.1,5.1,5.1h0.6c2.8,0,5.1-2.3,5.1-5.1l0,0
			c0-2.8,2.3-5.1,5.1-5.1h0.6c2.8,0,5.1,2.3,5.1,5.1v10.8c0,2.8,2.3,5.1,5.1,5.1h0.6c2.8,0,5.1-2.3,5.1-5.1v-22.2
			C189.4,306.2,191.7,304,194.5,304z"/>
		<path fill="#0092C0" d="M204.2,77.9h0.7c2.8,0,5.1-2.3,5.1-5.1v-23c0-2.8,2.3-5.1,5.1-5.1h0.6c2.8,0,5.1,2.3,5.1,5.1v87.9
			c0,2.8-2.3,5.1-5.1,5.1h-0.6c-2.8,0-5.1-2.3-5.1-5.1V94c0-2.8-2.3-5.1-5.1-5.1h-0.7c-2.8,0-5.1,2.3-5.1,5.1v11.5
			c0,2.8-2.3,5.1-5.1,5.1h-0.6c-2.8,0-5.1-2.3-5.1-5.1v-0.9c0-2.8-2.3-5.1-5.1-5.1h-0.6c-2.8,0-5.1,2.3-5.1,5.1v11.7
			c0,2.8-2.3,5.1-5.1,5.1h-0.6c-2.8,0-5.1-2.3-5.1-5.1V61.4c0-2.8,2.3-5.1,5.1-5.1h0.6c2.8,0,5.1,2.3,5.1,5.1v0
			c0,2.8,2.3,5.1,5.1,5.1h0.6c2.8,0,5.1-2.3,5.1-5.1V50.6c0-2.8,2.3-5.1,5.1-5.1h0.6c2.8,0,5.1,2.3,5.1,5.1v22.2
			C199.1,75.6,201.4,77.9,204.2,77.9z"/>
		<path fill="#0075A5" d="M236.8,32.3h0.7c2.8,0,5.1-2.3,5.1-5.1V16c0-2.8,2.3-5.1,5.1-5.1h0.6c2.8,0,5.1,2.3,5.1,5.1v76.2
			c0,2.8-2.3,5.1-5.1,5.1h-0.6c-2.8,0-5.1-2.3-5.1-5.1V48.5c0-2.8-2.3-5.1-5.1-5.1h-0.7c-2.8,0-5.1,2.3-5.1,5.1V60
			c0,2.8-2.3,5.1-5.1,5.1H226c-2.8,0-5.1-2.3-5.1-5.1v-0.9c0-2.8-2.3-5.1-5.1-5.1h-0.6c-2.8,0-5.1,2.3-5.1,5.1v11.7
			c0,2.8-2.3,5.1-5.1,5.1h-0.6c-2.8,0-5.1-2.3-5.1-5.1V15.9c0-2.8,2.3-5.1,5.1-5.1h0.6c2.8,0,5.1,2.3,5.1,5.1v0
			c0,2.8,2.3,5.1,5.1,5.1h0.6c2.8,0,5.1-2.3,5.1-5.1V5.1c0-2.8,2.3-5.1,5.1-5.1l0.6,0c2.8,0,5.1,2.3,5.1,5.1v22.2
			C231.7,30.1,233.9,32.3,236.8,32.3z"/>
		<path fill="#0080AE" d="M193.7,129.9h0.7c2.8,0,5.1-2.3,5.1-5.1v-11.2c0-2.8,2.3-5.1,5.1-5.1h0.6c2.8,0,5.1,2.3,5.1,5.1v76.2
			c0,2.8-2.3,5.1-5.1,5.1h-0.6c-2.8,0-5.1-2.3-5.1-5.1V146c0-2.8-2.3-5.1-5.1-5.1h-0.7c-2.8,0-5.1,2.3-5.1,5.1v11.5
			c0,2.8-2.3,5.1-5.1,5.1h-0.6c-2.8,0-5.1-2.3-5.1-5.1v-0.9c0-2.8-2.3-5.1-5.1-5.1h-0.6c-2.8,0-5.1,2.3-5.1,5.1v11.7
			c0,2.8-2.3,5.1-5.1,5.1h-0.6c-2.8,0-5.1-2.3-5.1-5.1v-54.9c0-2.8,2.3-5.1,5.1-5.1h0.6c2.8,0,5.1,2.3,5.1,5.1v0
			c0,2.8,2.3,5.1,5.1,5.1h0.6c2.8,0,5.1-2.3,5.1-5.1v-10.8c0-2.8,2.3-5.1,5.1-5.1h0.6c2.8,0,5.1,2.3,5.1,5.1v22.2
			C188.6,127.6,190.8,129.9,193.7,129.9z"/>
		<path fill="#8AC640" d="M377.5,76.3v56.3c0,4.6-3.8,8.4-8.4,8.4h-19.4c-4.6,0-9.1,3.6-9.1,8.2v6.3c0,4.6-2.9,8.4-7.5,8.4h-18.5
			v-23c4-1.4,5-4.1,5-7.2v-6.3c0-4.6,3.7-7.4,8.3-7.4h19.4c4.6,0,8.3-4.6,8.3-9.2V98.1c0-4.6-3.6-8.1-8.3-8.1h-12.7
			c-4.6,0-8.1-4-8.1-8.6V49.3c0-4.6-4-8.3-8.6-8.3H170.4c-4.6,0-8.9-3.7-8.9-8.3v-5.2c0-4.6,4.3-8.5,8.9-8.5h169.3
			c4.6,0,7.8,3.9,7.8,8.5v32.1c0,4.6,4.3,8.4,8.9,8.4h12.7C373.7,68,377.5,71.7,377.5,76.3z"/>
		<line fill="none" stroke="#E4430D" stroke-width="2" stroke-miterlimit="10" x1="207.5" y1="260" x2="186.5" y2="260"/>
		<path fill="#8AC640" d="M318.5,215.9v45.6c0,4.6-3.5,8.5-8.1,8.5H209.7c-4.6,0-8.2-3.9-8.2-8.5v-5.2c0-4.6,3.6-8.3,8.2-8.3h78.9
			c4.6,0,7.9-3.8,7.9-8.4v-2c0-4.6-3.3-8.7-7.9-8.7H141.5c-1.6,0-3-0.1-5-0.9V191h10.1c4.6,0,8.3,3.7,8.3,8.3c0,2.3,0.9,4.6,2.4,6.1
			c1.5,1.5,3.6,2.6,5.9,2.6h147.1C315,208,318.5,211.3,318.5,215.9z"/>
		<path fill="#48B74A" d="M310.4,266H209.7c-4.6,0-8.2-3.3-8.2-7.9v3.4c0,4.6,3.6,8.5,8.2,8.5h100.7c4.6,0,8.1-3.9,8.1-8.5v-3.4
			C318.5,262.7,315,266,310.4,266z"/>
		<path fill="#48B74A" d="M296.5,234.3c0-4.6-3.3-8.3-7.9-8.3H141.5c-1.6,0-3-0.5-5-1.3v3.4c2,0.8,3.3,0.9,5,0.9h147.1
			c4.4,0,7.9,3.6,8.3,7.9c0-0.2-0.3-0.4-0.3-0.7V234.3z"/>
		<path fill="#74C045" d="M318,37H170.4c-4.6,0-8.9-3.1-8.9-7.7v3.4c0,4.6,4.3,8.3,8.9,8.3H318c4.6,0,8.6,3.7,8.6,8.3v-3.4
			C326.5,41.3,322.5,37,318,37z"/>
		<path fill="#74C045" d="M347.3,87h-12.7c-4.6,0-8.1-4.4-8.1-9v3.4c0,4.6,3.5,8.6,8.1,8.6h12.7c4.6,0,8.3,3.5,8.3,8.1v-3.4
			C355.5,90.1,351.9,87,347.3,87z"/>
		<path fill="#74C045" d="M333,160h-18.5v4H333c4.6,0,7.5-3.8,7.5-8.4v-3.4C340.5,156.8,337.6,160,333,160z"/>
		<path fill="#74C045" d="M369.1,138h-19.4c-4.6,0-9.1,3.3-9.1,7.9v3.4c0-4.6,4.5-8.2,9.1-8.2h19.4c4.6,0,8.4-3.8,8.4-8.4v-3.4
			C377.5,133.8,373.7,138,369.1,138z"/>
	</g>
	<g>
		<g>
			<g>
				<path fill="#308256" d="M104.8,254.1c0.4,11.4,9.8,20.5,21.3,20.5c11.5,0,20.8-9.1,21.3-20.5c0-0.3,0-0.6,0-0.9
					c0-8.9-5.5-16.6-13.3-19.8l-1.9,1.9l-6.8,6.8l-6.5-6.5l-1.8-1.8c-7.3,3.4-12.4,10.8-12.4,19.4
					C104.8,253.5,104.8,253.8,104.8,254.1z"/>
				<path fill="#367C53" d="M104.8,253.2c0,0.3,0,0.6,0,0.9c0.4,11.4,9.8,20.5,21.3,20.5c5.9,0,11.2-2.4,15.1-6.3l-30.1-30.1
					C107.2,242,104.8,247.3,104.8,253.2z"/>
				<path fill="#A28E00" d="M132.5,232.5v2.8c8,2.5,14.5,10.1,15,19.2c0-0.4,0.1-0.8,0.1-1.3C147.7,244.3,142.5,235.4,132.5,232.5z"
					/>
				<path fill="#673E12" d="M126.1,274.5c11.4,0,20.6-8.9,21.3-20.1c0,0.4,0,0.8,0,1.3c0,11.8-9.5,21.3-21.3,21.3
					s-21.3-9.5-21.3-21.3c0-0.4,0-0.8,0-1.3C105.5,265.7,114.8,274.5,126.1,274.5z"/>
				<path fill="#A28E00" d="M119.5,232.5v2.8c-9,2.5-14.5,10.1-15,19.2c0-0.4-0.1-0.8-0.1-1.3C104.4,244.3,109.5,235.4,119.5,232.5z
					"/>
			</g>
			<g>
				<path fill="#308256" d="M146.7,272.9c0.2,5.4,4.7,9.7,10.1,9.7c5.5,0,9.9-4.3,10.1-9.7c0-0.1,0-0.3,0-0.4c0-4.3-2.6-7.9-6.3-9.4
					l-0.9,0.9l-3.2,3.2l-3.1-3.1l-0.8-0.8c-3.5,1.6-5.9,5.1-5.9,9.2C146.7,272.6,146.7,272.7,146.7,272.9z"/>
				<path fill="#367C53" d="M146.7,272.5c0,0.1,0,0.3,0,0.4c0.2,5.4,4.7,9.7,10.1,9.7c2.8,0,5.3-1.1,7.2-3l-14.3-14.3
					C147.8,267.1,146.7,269.7,146.7,272.5z"/>
				<path fill="#A28E00" d="M159.5,262.6v1.3c4,1.2,7,4.8,7.3,9.1c0-0.2,0-0.4,0-0.6C166.8,268.2,164.5,264,159.5,262.6z"/>
				<path fill="#673E12" d="M156.8,282.6c5.4,0,9.8-4.2,10.1-9.5c0,0.2,0,0.4,0,0.6c0,5.6-4.5,10.1-10.1,10.1
					c-5.6,0-10.1-4.5-10.1-10.1c0-0.2,0-0.4,0-0.6C147,278.4,151.4,282.6,156.8,282.6z"/>
				<path fill="#A28E00" d="M153.5,262.6v1.3c-4,1.2-6.8,4.8-7.1,9.1c0-0.2-0.1-0.4-0.1-0.6C146.4,268.2,149.5,264,153.5,262.6z"/>
			</g>
			<g>
				<g>
					<g>
						<path fill="#E9D284" d="M159.1,251.7l0.2-0.4c0.5-0.9,0.1-2-0.7-2.4l-6.7-3.6c-0.9-0.5-2-0.1-2.4,0.7l-0.2,0.4
							c-0.5,0.9-0.1,2,0.7,2.4l6.7,3.6C157.6,252.9,158.6,252.6,159.1,251.7z"/>
						<path fill="#FFFADD" d="M159.3,250.1l-0.1-0.5c-0.3-0.9-1.3-1.5-2.2-1.2l-7.3,2.2c-0.9,0.3-1.5,1.3-1.2,2.2l0.1,0.5
							c0.3,0.9,1.3,1.5,2.2,1.2l7.3-2.2C159.1,252,159.6,251,159.3,250.1z"/>
						<path fill="#E9D284" d="M158.4,248.8l-0.4-0.2c-0.9-0.5-2-0.1-2.4,0.7l-3.6,6.7c-0.5,0.9-0.1,2,0.7,2.4l0.4,0.2
							c0.9,0.5,2,0.1,2.4-0.7l3.6-6.7C159.6,250.3,159.2,249.2,158.4,248.8z"/>
						<path fill="#FFFADD" d="M156.8,248.5l-0.5,0.1c-0.9,0.3-1.5,1.3-1.2,2.2l2.2,7.3c0.3,0.9,1.3,1.5,2.2,1.2l0.5-0.1
							c0.9-0.3,1.5-1.3,1.2-2.2l-2.2-7.3C158.7,248.8,157.7,248.3,156.8,248.5z"/>
						<path fill="#E9D284" d="M155.5,249.5l-0.2,0.4c-0.5,0.9-0.1,2,0.7,2.4l6.7,3.6c0.9,0.5,2,0.1,2.4-0.7l0.2-0.4
							c0.5-0.9,0.1-2-0.7-2.4l-6.7-3.6C157,248.3,155.9,248.6,155.5,249.5z"/>
						<path fill="#FFFADD" d="M155.2,251.1l0.1,0.5c0.3,0.9,1.3,1.5,2.2,1.2l7.3-2.2c0.9-0.3,1.5-1.3,1.2-2.2l-0.1-0.5
							c-0.3-0.9-1.3-1.5-2.2-1.2l-7.3,2.2C155.5,249.2,154.9,250.2,155.2,251.1z"/>
						<path fill="#E9D284" d="M156.2,252.4l0.4,0.2c0.9,0.5,2,0.1,2.4-0.7l3.6-6.7c0.5-0.9,0.1-2-0.7-2.4l-0.4-0.2
							c-0.9-0.5-2-0.1-2.4,0.7l-3.6,6.7C155,250.9,155.3,252,156.2,252.4z"/>
						<path fill="#FFFADD" d="M157.8,252.7l0.5-0.1c0.9-0.3,1.5-1.3,1.2-2.2l-2.2-7.3c-0.3-0.9-1.3-1.5-2.2-1.2l-0.5,0.1
							c-0.9,0.3-1.5,1.3-1.2,2.2l2.2,7.3C155.9,252.4,156.9,252.9,157.8,252.7z"/>
					</g>
					<path fill="#E9DDA1" d="M157.4,252.5L157.4,252.5c1,0,1.8-0.8,1.8-1.8v-6.2c0-1-0.8-1.8-1.8-1.8l0,0c-1,0-1.8,0.8-1.8,1.8v6.2
						C155.6,251.7,156.4,252.5,157.4,252.5z"/>
					<path fill="#FFFADD" d="M158.7,251.8L158.7,251.8c0.7-0.7,0.7-1.8,0-2.5l-4.4-4.4c-0.7-0.7-1.8-0.7-2.5,0l0,0
						c-0.7,0.7-0.7,1.8,0,2.5l4.4,4.4C156.9,252.5,158,252.5,158.7,251.8z"/>
					<path fill="#E9DDA1" d="M159.2,250.5L159.2,250.5c0-1-0.8-1.8-1.8-1.8h-6.2c-1,0-1.8,0.8-1.8,1.8l0,0c0,1,0.8,1.8,1.8,1.8h6.2
						C158.3,252.2,159.2,251.4,159.2,250.5z"/>
					<path fill="#FFFADD" d="M158.5,249.2L158.5,249.2c-0.7-0.7-1.8-0.7-2.5,0l-4.4,4.4c-0.7,0.7-0.7,1.8,0,2.5l0,0
						c0.7,0.7,1.8,0.7,2.5,0l4.4-4.4C159.2,251,159.2,249.9,158.5,249.2z"/>
					<path fill="#E9DDA1" d="M157.1,248.7L157.1,248.7c-1,0-1.8,0.8-1.8,1.8v6.2c0,1,0.8,1.8,1.8,1.8h0c1,0,1.8-0.8,1.8-1.8v-6.2
						C158.9,249.5,158.1,248.7,157.1,248.7z"/>
					<path fill="#FFFADD" d="M155.9,249.4L155.9,249.4c-0.7,0.7-0.7,1.8,0,2.5l4.4,4.4c0.7,0.7,1.8,0.7,2.5,0h0
						c0.7-0.7,0.7-1.8,0-2.5l-4.4-4.4C157.7,248.7,156.6,248.7,155.9,249.4z"/>
					<path fill="#E9DDA1" d="M155.4,250.7L155.4,250.7c0,1,0.8,1.8,1.8,1.8h6.2c1,0,1.8-0.8,1.8-1.8l0,0c0-1-0.8-1.8-1.8-1.8h-6.2
						C156.2,249,155.4,249.8,155.4,250.7z"/>
					<path fill="#FFFADD" d="M156.1,252L156.1,252c0.7,0.7,1.8,0.7,2.5,0l4.4-4.4c0.7-0.7,0.7-1.8,0-2.5l0,0c-0.7-0.7-1.8-0.7-2.5,0
						l-4.4,4.4C155.4,250.2,155.4,251.3,156.1,252z"/>
				</g>
				<circle fill="#E8C780" cx="157.3" cy="250.7" r="1.1"/>
			</g>
		</g>
	</g>
	<rect x="210.4" y="251.6" fill="#308256" width="3.4" height="2"/>
	<rect x="210.4" y="260.9" fill="#308256" width="3.4" height="2"/>
	<g>
		<g>
			<circle fill="#CD402B" cx="56.7" cy="261.6" r="9.1"/>
			<circle fill="#DBDDD8" cx="56.7" cy="261.6" r="8"/>
			<circle fill="#45413F" cx="56.7" cy="261.6" r="3.6"/>
			<path fill="#E4430D" d="M55.3,263.9c1.1,1.5,1.6,3.3,1.4,5.1c-0.1,0.6-0.6,1.1-1.3,1.2c-1.6,0.1-3.2-0.4-4.5-1.4
				c-1.3-1.1-2.1-2.5-2.3-4.1c-0.1-0.6,0.3-1.3,0.9-1.5c1.7-0.6,3.6-0.5,5.3,0.3C55,263.6,55.2,263.7,55.3,263.9z"/>
			<path fill="#E4430D" d="M59,263c1.5-1.1,3.3-1.6,5.1-1.4c0.6,0.1,1.1,0.6,1.2,1.3c0.1,1.6-0.4,3.2-1.4,4.5
				c-1.1,1.3-2.5,2.1-4.1,2.3c-0.6,0.1-1.3-0.3-1.5-0.9c-0.6-1.7-0.5-3.6,0.3-5.3C58.6,263.3,58.8,263.1,59,263z"/>
			<path fill="#E34B25" d="M58.1,259.4c-1.1-1.5-1.6-3.3-1.4-5.1c0.1-0.6,0.6-1.1,1.3-1.2c1.6-0.1,3.2,0.4,4.5,1.4
				c1.3,1.1,2.1,2.5,2.3,4.1c0.1,0.6-0.3,1.3-0.9,1.5c-1.7,0.6-3.6,0.5-5.3-0.3C58.4,259.7,58.2,259.6,58.1,259.4z"/>
			<path fill="#E4430D" d="M54.5,260.2c-1.5,1.1-3.3,1.6-5.1,1.4c-0.6-0.1-1.1-0.6-1.2-1.3c-0.1-1.6,0.4-3.2,1.4-4.5
				s2.5-2.1,4.1-2.3c0.6-0.1,1.3,0.3,1.5,0.9c0.6,1.7,0.5,3.6-0.3,5.3C54.8,259.9,54.6,260.1,54.5,260.2z"/>
		</g>
		<g>
			<circle fill="#CD402B" cx="74.5" cy="261.2" r="9.1"/>
			<circle fill="#DBDDD8" cx="74.5" cy="261.2" r="8"/>
			<circle fill="#45413F" cx="74.5" cy="261.2" r="3.6"/>
			<path fill="#E4430D" d="M72.1,262.1c0,1.8-0.8,3.6-2,4.9c-0.5,0.5-1.2,0.5-1.7,0.2c-1.3-0.9-2.3-2.2-2.6-3.9
				c-0.4-1.6-0.1-3.3,0.6-4.6c0.3-0.6,1-0.8,1.6-0.6c1.7,0.6,3.1,1.8,4,3.5C72,261.6,72.1,261.9,72.1,262.1z"/>
			<path fill="#E4430D" d="M75.5,263.6c1.8,0,3.6,0.8,4.9,2c0.5,0.5,0.5,1.2,0.2,1.7c-0.9,1.3-2.2,2.3-3.9,2.6
				c-1.6,0.4-3.3,0.1-4.6-0.6c-0.6-0.3-0.8-1-0.6-1.6c0.6-1.7,1.8-3.1,3.5-4C75,263.7,75.2,263.6,75.5,263.6z"/>
			<path fill="#E34B25" d="M77,260.2c0-1.8,0.8-3.6,2-4.9c0.5-0.5,1.2-0.5,1.7-0.2c1.3,0.9,2.3,2.2,2.6,3.9s0.1,3.3-0.6,4.6
				c-0.3,0.6-1,0.8-1.6,0.6c-1.7-0.6-3.1-1.8-4-3.5C77.1,260.7,77,260.5,77,260.2z"/>
			<path fill="#E4430D" d="M73.6,258.7c-1.8,0-3.6-0.8-4.9-2c-0.5-0.5-0.5-1.2-0.2-1.7c0.9-1.3,2.2-2.3,3.9-2.6
				c1.6-0.4,3.3-0.1,4.6,0.6c0.6,0.3,0.8,1,0.6,1.6c-0.6,1.7-1.8,3.1-3.5,4C74.1,258.6,73.8,258.7,73.6,258.7z"/>
		</g>
		<g>
			<circle fill="#CD402B" cx="82.9" cy="246.1" r="9.1"/>
			<circle fill="#DBDDD8" cx="82.9" cy="246.1" r="8"/>
			<circle fill="#45413F" cx="82.9" cy="246.1" r="3.6"/>
			<path fill="#E4430D" d="M80.4,245.5c-1,1.5-2.6,2.6-4.3,3c-0.6,0.1-1.3-0.2-1.5-0.8c-0.6-1.4-0.7-3.1-0.1-4.7s1.7-2.8,3.1-3.5
				c0.6-0.3,1.3-0.2,1.7,0.4c1.1,1.4,1.6,3.2,1.4,5.1C80.6,245.1,80.5,245.3,80.4,245.5z"/>
			<path fill="#E4430D" d="M82.4,248.7c1.5,1,2.6,2.6,3,4.3c0.1,0.6-0.2,1.3-0.8,1.5c-1.4,0.6-3.1,0.7-4.7,0.1
				c-1.6-0.6-2.8-1.7-3.5-3.1c-0.3-0.6-0.2-1.3,0.4-1.7c1.4-1.1,3.2-1.6,5.1-1.4C82,248.5,82.2,248.6,82.4,248.7z"/>
			<path fill="#E34B25" d="M85.5,246.7c1-1.5,2.6-2.6,4.3-3c0.6-0.1,1.3,0.2,1.5,0.8c0.6,1.4,0.7,3.1,0.1,4.7s-1.7,2.8-3.1,3.5
				c-0.6,0.3-1.3,0.2-1.7-0.4c-1.1-1.4-1.6-3.2-1.4-5.1C85.3,247.1,85.4,246.9,85.5,246.7z"/>
			<path fill="#E4430D" d="M83.5,243.5c-1.5-1-2.6-2.6-3-4.3c-0.1-0.6,0.2-1.3,0.8-1.5c1.4-0.6,3.1-0.7,4.7-0.1
				c1.6,0.6,2.8,1.7,3.5,3.1c0.3,0.6,0.2,1.3-0.4,1.7c-1.4,1.1-3.2,1.6-5.1,1.4C83.9,243.7,83.7,243.7,83.5,243.5z"/>
		</g>
		<g>
			<circle fill="#CD402B" cx="65.2" cy="245.4" r="9.1"/>
			<circle fill="#DBDDD8" cx="65.2" cy="245.4" r="8"/>
			<circle fill="#45413F" cx="65.2" cy="245.4" r="3.6"/>
			<path fill="#E4430D" d="M62.7,246.4c0,1.8-0.8,3.6-2,4.9c-0.5,0.5-1.2,0.5-1.7,0.2c-1.3-0.9-2.3-2.2-2.6-3.9
				c-0.4-1.6-0.1-3.3,0.6-4.6c0.3-0.6,1-0.8,1.6-0.6c1.7,0.6,3.1,1.8,4,3.5C62.7,245.9,62.8,246.1,62.7,246.4z"/>
			<path fill="#E4430D" d="M66.1,247.9c1.8,0,3.6,0.8,4.9,2c0.5,0.5,0.5,1.2,0.2,1.7c-0.9,1.3-2.2,2.3-3.9,2.6s-3.3,0.1-4.6-0.6
				c-0.6-0.3-0.8-1-0.6-1.6c0.6-1.7,1.8-3.1,3.5-4C65.7,248,65.9,247.9,66.1,247.9z"/>
			<path fill="#E34B25" d="M67.7,244.5c0-1.8,0.8-3.6,2-4.9c0.5-0.5,1.2-0.5,1.7-0.2c1.3,0.9,2.3,2.2,2.6,3.9
				c0.4,1.6,0.1,3.3-0.6,4.6c-0.3,0.6-1,0.8-1.6,0.6c-1.7-0.6-3.1-1.8-4-3.5C67.7,245,67.7,244.7,67.7,244.5z"/>
			<path fill="#E4430D" d="M64.3,243c-1.8,0-3.6-0.8-4.9-2c-0.5-0.5-0.5-1.2-0.2-1.7c0.9-1.3,2.2-2.3,3.9-2.6
				c1.6-0.4,3.3-0.1,4.6,0.6c0.6,0.3,0.8,1,0.6,1.6c-0.6,1.7-1.8,3.1-3.5,4C64.7,242.9,64.5,243,64.3,243z"/>
		</g>
	</g>
	<path fill="#E0E0E0" d="M133.5,114.8v-0.7c0-2.9,2.4-5.3,5.3-5.3h87.9c2.9,0,5.3-2.4,5.3-5.3V103c0-2.9-2.4-5.3-5.3-5.3h-155
		c-2.9,0-5.3,2.4-5.3,5.3v0.6c0,2.9,2.4,5.3,5.3,5.3h45.1c2.9,0,5.3,2.4,5.3,5.3v0.7c0,2.9-2.4,5.3-5.3,5.3H105
		c-2.9,0-5.3,2.4-5.3,5.3v0.6c0,2.9,2.4,5.3,5.3,5.3h0.9c2.9,0,5.3,2.4,5.3,5.3v0.6c0,2.9-2.4,5.3-5.3,5.3H27.3
		c-2.9,0-5.3,2.4-5.3,5.3v0.6c0,2.9,2.4,5.3,5.3,5.3h123.2c2.9,0,5.3-2.4,5.3-5.3v-0.6c0-2.9-2.4-5.3-5.3-5.3h0
		c-2.9,0-5.3-2.4-5.3-5.3v-0.6c0-2.9,2.4-5.3,5.3-5.3h21.9c2.9,0,5.3-2.4,5.3-5.3v-0.6c0-2.9-2.4-5.3-5.3-5.3h-33.6
		C135.9,120.1,133.5,117.7,133.5,114.8z"/>
	<g>
		<g>
			<g>
				<path fill="#308256" d="M375.8,254.1c-0.4,11.4-9.8,20.5-21.3,20.5c-11.5,0-20.8-9.1-21.3-20.5c0-0.3,0-0.6,0-0.9
					c0-8.9,5.5-16.6,13.3-19.8l1.9,1.9l6.8,6.8l6.5-6.5l1.8-1.8c7.3,3.4,12.4,10.8,12.4,19.4C375.9,253.5,375.9,253.8,375.8,254.1z"
					/>
				<path fill="#367C53" d="M375.9,253.2c0,0.3,0,0.6,0,0.9c-0.4,11.4-9.8,20.5-21.3,20.5c-5.9,0-11.2-2.4-15.1-6.3l30.1-30.1
					C373.5,242,375.9,247.3,375.9,253.2z"/>
				<path fill="#A28E00" d="M347.5,232.5v2.8c-8,2.5-14.2,10.1-14.7,19.2c0-0.4-0.3-0.8-0.3-1.3
					C332.6,244.3,337.5,235.4,347.5,232.5z"/>
				<path fill="#673E12" d="M354.6,274.5c-11.4,0-20.6-8.9-21.3-20.1c0,0.4,0,0.8,0,1.3c0,11.8,9.5,21.3,21.3,21.3
					s21.3-9.5,21.3-21.3c0-0.4,0-0.8,0-1.3C375.2,265.7,365.9,274.5,354.6,274.5z"/>
				<path fill="#A28E00" d="M360.5,232.5v2.8c9,2.5,14.8,10.1,15.3,19.2c0-0.4,0-0.8,0-1.3C375.8,244.3,370.5,235.4,360.5,232.5z"/>
			</g>
			<g>
				<path fill="#308256" d="M334,272.9c-0.2,5.4-4.7,9.7-10.1,9.7c-5.5,0-9.9-4.3-10.1-9.7c0-0.1,0-0.3,0-0.4c0-4.3,2.6-7.9,6.3-9.4
					l0.9,0.9l3.2,3.2l3.1-3.1l0.8-0.8c3.5,1.6,5.9,5.1,5.9,9.2C334,272.6,334,272.7,334,272.9z"/>
				<path fill="#367C53" d="M334,272.5c0,0.1,0,0.3,0,0.4c-0.2,5.4-4.7,9.7-10.1,9.7c-2.8,0-5.3-1.1-7.2-3l14.3-14.3
					C332.9,267.1,334,269.7,334,272.5z"/>
				<path fill="#A28E00" d="M320.5,262.6v1.3c-4,1.2-6.7,4.8-7,9.1c0-0.2-0.1-0.4-0.1-0.6C313.4,268.2,314.5,264,320.5,262.6z"/>
				<path fill="#673E12" d="M323.9,282.6c-5.4,0-9.8-4.2-10.1-9.5c0,0.2,0,0.4,0,0.6c0,5.6,4.5,10.1,10.1,10.1s10.1-4.5,10.1-10.1
					c0-0.2,0-0.4,0-0.6C333.7,278.4,329.3,282.6,323.9,282.6z"/>
				<path fill="#A28E00" d="M326.5,262.6v1.3c4,1.2,7.1,4.8,7.3,9.1c0-0.2-0.1-0.4-0.1-0.6C333.8,268.2,330.5,264,326.5,262.6z"/>
			</g>
			<g>
				<g>
					<g>
						<path fill="#E9D284" d="M321.6,251.7l-0.2-0.4c-0.5-0.9-0.1-2,0.7-2.4l6.7-3.6c0.9-0.5,2-0.1,2.4,0.7l0.2,0.4
							c0.5,0.9,0.1,2-0.7,2.4l-6.7,3.6C323.1,252.9,322,252.6,321.6,251.7z"/>
						<path fill="#FFFADD" d="M321.3,250.1l0.1-0.5c0.3-0.9,1.3-1.5,2.2-1.2l7.3,2.2c0.9,0.3,1.5,1.3,1.2,2.2l-0.1,0.5
							c-0.3,0.9-1.3,1.5-2.2,1.2l-7.3-2.2C321.6,252,321,251,321.3,250.1z"/>
						<path fill="#E9D284" d="M322.3,248.8l0.4-0.2c0.9-0.5,2-0.1,2.4,0.7l3.6,6.7c0.5,0.9,0.1,2-0.7,2.4l-0.4,0.2
							c-0.9,0.5-2,0.1-2.4-0.7l-3.6-6.7C321.1,250.3,321.4,249.2,322.3,248.8z"/>
						<path fill="#FFFADD" d="M323.9,248.5l0.5,0.1c0.9,0.3,1.5,1.3,1.2,2.2l-2.2,7.3c-0.3,0.9-1.3,1.5-2.2,1.2l-0.5-0.1
							c-0.9-0.3-1.5-1.3-1.2-2.2l2.2-7.3C322,248.8,323,248.3,323.9,248.5z"/>
						<path fill="#E9D284" d="M325.2,249.5l0.2,0.4c0.5,0.9,0.1,2-0.7,2.4L318,256c-0.9,0.5-2,0.1-2.4-0.7l-0.2-0.4
							c-0.5-0.9-0.1-2,0.7-2.4l6.7-3.6C323.7,248.3,324.8,248.6,325.2,249.5z"/>
						<path fill="#FFFADD" d="M325.4,251.1l-0.1,0.5c-0.3,0.9-1.3,1.5-2.2,1.2l-7.3-2.2c-0.9-0.3-1.5-1.3-1.2-2.2l0.1-0.5
							c0.3-0.9,1.3-1.5,2.2-1.2l7.3,2.2C325.2,249.2,325.7,250.2,325.4,251.1z"/>
						<path fill="#E9D284" d="M324.5,252.4l-0.4,0.2c-0.9,0.5-2,0.1-2.4-0.7l-3.6-6.7c-0.5-0.9-0.1-2,0.7-2.4l0.4-0.2
							c0.9-0.5,2-0.1,2.4,0.7l3.6,6.7C325.7,250.9,325.3,252,324.5,252.4z"/>
						<path fill="#FFFADD" d="M322.9,252.7l-0.5-0.1c-0.9-0.3-1.5-1.3-1.2-2.2l2.2-7.3c0.3-0.9,1.3-1.5,2.2-1.2l0.5,0.1
							c0.9,0.3,1.5,1.3,1.2,2.2l-2.2,7.3C324.8,252.4,323.8,252.9,322.9,252.7z"/>
					</g>
					<path fill="#E9DDA1" d="M323.2,252.5L323.2,252.5c-1,0-1.8-0.8-1.8-1.8v-6.2c0-1,0.8-1.8,1.8-1.8h0c1,0,1.8,0.8,1.8,1.8v6.2
						C325,251.7,324.2,252.5,323.2,252.5z"/>
					<path fill="#FFFADD" d="M322,251.8L322,251.8c-0.7-0.7-0.7-1.8,0-2.5l4.4-4.4c0.7-0.7,1.8-0.7,2.5,0l0,0c0.7,0.7,0.7,1.8,0,2.5
						l-4.4,4.4C323.8,252.5,322.7,252.5,322,251.8z"/>
					<path fill="#E9DDA1" d="M321.5,250.5L321.5,250.5c0-1,0.8-1.8,1.8-1.8h6.2c1,0,1.8,0.8,1.8,1.8l0,0c0,1-0.8,1.8-1.8,1.8h-6.2
						C322.3,252.2,321.5,251.4,321.5,250.5z"/>
					<path fill="#FFFADD" d="M322.2,249.2L322.2,249.2c0.7-0.7,1.8-0.7,2.5,0l4.4,4.4c0.7,0.7,0.7,1.8,0,2.5l0,0
						c-0.7,0.7-1.8,0.7-2.5,0l-4.4-4.4C321.5,251,321.5,249.9,322.2,249.2z"/>
					<path fill="#E9DDA1" d="M323.5,248.7L323.5,248.7c1,0,1.8,0.8,1.8,1.8v6.2c0,1-0.8,1.8-1.8,1.8l0,0c-1,0-1.8-0.8-1.8-1.8v-6.2
						C321.7,249.5,322.5,248.7,323.5,248.7z"/>
					<path fill="#FFFADD" d="M324.8,249.4L324.8,249.4c0.7,0.7,0.7,1.8,0,2.5l-4.4,4.4c-0.7,0.7-1.8,0.7-2.5,0l0,0
						c-0.7-0.7-0.7-1.8,0-2.5l4.4-4.4C323,248.7,324.1,248.7,324.8,249.4z"/>
					<path fill="#E9DDA1" d="M325.3,250.7L325.3,250.7c0,1-0.8,1.8-1.8,1.8h-6.2c-1,0-1.8-0.8-1.8-1.8l0,0c0-1,0.8-1.8,1.8-1.8h6.2
						C324.4,249,325.3,249.8,325.3,250.7z"/>
					<path fill="#FFFADD" d="M324.6,252L324.6,252c-0.7,0.7-1.8,0.7-2.5,0l-4.4-4.4c-0.7-0.7-0.7-1.8,0-2.5l0,0
						c0.7-0.7,1.8-0.7,2.5,0l4.4,4.4C325.3,250.2,325.3,251.3,324.6,252z"/>
				</g>
				<circle fill="#E8C780" cx="323.4" cy="250.7" r="1.1"/>
			</g>
		</g>
	</g>
	<g>
		<g>
			<circle fill="#CD402B" cx="424" cy="261.6" r="9.1"/>
			<circle fill="#DBDDD8" cx="424" cy="261.6" r="8"/>
			<circle fill="#45413F" cx="424" cy="261.6" r="3.6"/>
			<path fill="#E4430D" d="M425.4,263.9c-1.1,1.5-1.6,3.3-1.4,5.1c0.1,0.6,0.6,1.1,1.3,1.2c1.6,0.1,3.2-0.4,4.5-1.4
				c1.3-1.1,2.1-2.5,2.3-4.1c0.1-0.6-0.3-1.3-0.9-1.5c-1.7-0.6-3.6-0.5-5.3,0.3C425.7,263.6,425.5,263.7,425.4,263.9z"/>
			<path fill="#E4430D" d="M421.7,263c-1.5-1.1-3.3-1.6-5.1-1.4c-0.6,0.1-1.1,0.6-1.2,1.3c-0.1,1.6,0.4,3.2,1.4,4.5s2.5,2.1,4.1,2.3
				c0.6,0.1,1.3-0.3,1.5-0.9c0.6-1.7,0.5-3.6-0.3-5.3C422,263.3,421.9,263.1,421.7,263z"/>
			<path fill="#E34B25" d="M422.6,259.4c1.1-1.5,1.6-3.3,1.4-5.1c-0.1-0.6-0.6-1.1-1.3-1.2c-1.6-0.1-3.2,0.4-4.5,1.4
				c-1.3,1.1-2.1,2.5-2.3,4.1c-0.1,0.6,0.3,1.3,0.9,1.5c1.7,0.6,3.6,0.5,5.3-0.3C422.3,259.7,422.4,259.6,422.6,259.4z"/>
			<path fill="#E4430D" d="M426.2,260.2c1.5,1.1,3.3,1.6,5.1,1.4c0.6-0.1,1.1-0.6,1.2-1.3c0.1-1.6-0.4-3.2-1.4-4.5s-2.5-2.1-4.1-2.3
				c-0.6-0.1-1.3,0.3-1.5,0.9c-0.6,1.7-0.5,3.6,0.3,5.3C425.9,259.9,426,260.1,426.2,260.2z"/>
		</g>
		<g>
			<circle fill="#CD402B" cx="406.1" cy="261.2" r="9.1"/>
			<circle fill="#DBDDD8" cx="406.1" cy="261.2" r="8"/>
			<circle fill="#45413F" cx="406.1" cy="261.2" r="3.6"/>
			<path fill="#E4430D" d="M408.6,262.1c0,1.8,0.8,3.6,2,4.9c0.5,0.5,1.2,0.5,1.7,0.2c1.3-0.9,2.3-2.2,2.6-3.9
				c0.4-1.6,0.1-3.3-0.6-4.6c-0.3-0.6-1-0.8-1.6-0.6c-1.7,0.6-3.1,1.8-4,3.5C408.7,261.6,408.6,261.9,408.6,262.1z"/>
			<path fill="#E4430D" d="M405.2,263.6c-1.8,0-3.6,0.8-4.9,2c-0.5,0.5-0.5,1.2-0.2,1.7c0.9,1.3,2.2,2.3,3.9,2.6
				c1.6,0.4,3.3,0.1,4.6-0.6c0.6-0.3,0.8-1,0.6-1.6c-0.6-1.7-1.8-3.1-3.5-4C405.7,263.7,405.4,263.6,405.2,263.6z"/>
			<path fill="#E34B25" d="M403.7,260.2c0-1.8-0.8-3.6-2-4.9c-0.5-0.5-1.2-0.5-1.7-0.2c-1.3,0.9-2.3,2.2-2.6,3.9s-0.1,3.3,0.6,4.6
				c0.3,0.6,1,0.8,1.6,0.6c1.7-0.6,3.1-1.8,4-3.5C403.6,260.7,403.7,260.5,403.7,260.2z"/>
			<path fill="#E4430D" d="M407.1,258.7c1.8,0,3.6-0.8,4.9-2c0.5-0.5,0.5-1.2,0.2-1.7c-0.9-1.3-2.2-2.3-3.9-2.6
				c-1.6-0.4-3.3-0.1-4.6,0.6c-0.6,0.3-0.8,1-0.6,1.6c0.6,1.7,1.8,3.1,3.5,4C406.6,258.6,406.8,258.7,407.1,258.7z"/>
		</g>
		<g>
			<circle fill="#CD402B" cx="397.7" cy="246.1" r="9.1"/>
			<circle fill="#DBDDD8" cx="397.7" cy="246.1" r="8"/>
			<circle fill="#45413F" cx="397.7" cy="246.1" r="3.6"/>
			<path fill="#E4430D" d="M400.3,245.5c1,1.5,2.6,2.6,4.3,3c0.6,0.1,1.3-0.2,1.5-0.8c0.6-1.4,0.7-3.1,0.1-4.7
				c-0.6-1.6-1.7-2.8-3.1-3.5c-0.6-0.3-1.3-0.2-1.7,0.4c-1.1,1.4-1.6,3.2-1.4,5.1C400.1,245.1,400.2,245.3,400.3,245.5z"/>
			<path fill="#E4430D" d="M398.3,248.7c-1.5,1-2.6,2.6-3,4.3c-0.1,0.6,0.2,1.3,0.8,1.5c1.4,0.6,3.1,0.7,4.7,0.1
				c1.6-0.6,2.8-1.7,3.5-3.1c0.3-0.6,0.2-1.3-0.4-1.7c-1.4-1.1-3.2-1.6-5.1-1.4C398.7,248.5,398.5,248.6,398.3,248.7z"/>
			<path fill="#E34B25" d="M395.2,246.7c-1-1.5-2.6-2.6-4.3-3c-0.6-0.1-1.3,0.2-1.5,0.8c-0.6,1.4-0.7,3.1-0.1,4.7s1.7,2.8,3.1,3.5
				c0.6,0.3,1.3,0.2,1.7-0.4c1.1-1.4,1.6-3.2,1.4-5.1C395.4,247.1,395.3,246.9,395.2,246.7z"/>
			<path fill="#E4430D" d="M397.2,243.5c1.5-1,2.6-2.6,3-4.3c0.1-0.6-0.2-1.3-0.8-1.5c-1.4-0.6-3.1-0.7-4.7-0.1
				c-1.6,0.6-2.8,1.7-3.5,3.1c-0.3,0.6-0.2,1.3,0.4,1.7c1.4,1.1,3.2,1.6,5.1,1.4C396.8,243.7,397,243.7,397.2,243.5z"/>
		</g>
		<g>
			<circle fill="#CD402B" cx="415.5" cy="245.4" r="9.1"/>
			<circle fill="#DBDDD8" cx="415.5" cy="245.4" r="8"/>
			<circle fill="#45413F" cx="415.5" cy="245.4" r="3.6"/>
			<path fill="#E4430D" d="M417.9,246.4c0,1.8,0.8,3.6,2,4.9c0.5,0.5,1.2,0.5,1.7,0.2c1.3-0.9,2.3-2.2,2.6-3.9
				c0.4-1.6,0.1-3.3-0.6-4.6c-0.3-0.6-1-0.8-1.6-0.6c-1.7,0.6-3.1,1.8-4,3.5C418,245.9,417.9,246.1,417.9,246.4z"/>
			<path fill="#E4430D" d="M414.5,247.9c-1.8,0-3.6,0.8-4.9,2c-0.5,0.5-0.5,1.2-0.2,1.7c0.9,1.3,2.2,2.3,3.9,2.6s3.3,0.1,4.6-0.6
				c0.6-0.3,0.8-1,0.6-1.6c-0.6-1.7-1.8-3.1-3.5-4C415,248,414.8,247.9,414.5,247.9z"/>
			<path fill="#E34B25" d="M413,244.5c0-1.8-0.8-3.6-2-4.9c-0.5-0.5-1.2-0.5-1.7-0.2c-1.3,0.9-2.3,2.2-2.6,3.9
				c-0.4,1.6-0.1,3.3,0.6,4.6c0.3,0.6,1,0.8,1.6,0.6c1.7-0.6,3.1-1.8,4-3.5C412.9,245,413,244.7,413,244.5z"/>
			<path fill="#E4430D" d="M416.4,243c1.8,0,3.6-0.8,4.9-2c0.5-0.5,0.5-1.2,0.2-1.7c-0.9-1.3-2.2-2.3-3.9-2.6
				c-1.6-0.4-3.3-0.1-4.6,0.6c-0.6,0.3-0.8,1-0.6,1.6c0.6,1.7,1.8,3.1,3.5,4C415.9,242.9,416.2,243,416.4,243z"/>
		</g>
	</g>
	<g>
		<g>
			<g>
				<path fill="#E4430D" d="M403.6,132.8l0.8-1.9c0.6-1.4-0.3-3.1-1.9-3.2l-48.9-5.9c-2.3-0.3-3.6,2.6-1.8,4.1l1,0.9
					c0.3-0.1,0.7-0.2,1.1-0.1l48.9,5.9C403.1,132.5,403.4,132.6,403.6,132.8z"/>
				<path fill="#C43C1F" d="M397.5,147.6l6.1-14.8c-0.3-0.1-0.5-0.2-0.8-0.3l-48.9-5.9c-0.4,0-0.8,0-1.1,0.1l29.6,26.3
					c0.7,0.6,1.6,0.8,2.5,0.4l11.5-4.6C396.8,148.6,397.3,148.2,397.5,147.6z"/>
				<polygon fill="#059AD6" points="372.5,144.3 362.1,135.1 400.8,139.7 397.6,147.4 				"/>
				<path fill="#FDBA63" d="M397.5,147.6c-0.2,0.6-0.7,1.1-1.3,1.3l-11.5,4.6c-0.8,0.3-1.8,0.2-2.5-0.4l-9.8-8.7l25.1,3L397.5,147.6
					z"/>
			</g>
			<g>
				<path fill="#E4430D" d="M411.6,140.7l1.9-0.8c1.4-0.6,3.1,0.3,3.2,1.9l5.9,48.9c0.3,2.3-2.6,3.6-4.1,1.8l-0.9-1
					c0.1-0.3,0.2-0.7,0.1-1.1l-5.9-48.9C411.8,141.2,411.7,140.9,411.6,140.7z"/>
				<path fill="#C43C1F" d="M396.7,146.8l14.8-6.1c0.1,0.3,0.2,0.5,0.3,0.8l5.9,48.9c0,0.4,0,0.8-0.1,1.1L391.3,162
					c-0.6-0.7-0.8-1.6-0.4-2.5l4.6-11.5C395.7,147.5,396.2,147,396.7,146.8z"/>
				<polygon fill="#059AD6" points="400,171.8 409.2,182.2 404.6,143.6 397,146.7 				"/>
				<path fill="#FDBA63" d="M396.7,146.8c-0.6,0.2-1.1,0.7-1.3,1.3l-4.6,11.5c-0.3,0.8-0.2,1.8,0.4,2.5l8.7,9.8l-3-25.1L396.7,146.8
					z"/>
			</g>
			<path fill="#2B0F0F" d="M423.8,122.3l-1.7-1.7c-1.2-1.2-3.1-1.5-4.7-0.6l-4.1,2.3c-2.3,1.3-2.7,4.3-0.9,6.2l3.5,3.5
				c1.8,1.8,4.9,1.4,6.2-0.9l2.3-4.1C425.3,125.5,425.1,123.6,423.8,122.3z"/>
			<path fill="#059AD6" d="M409.7,138l-3.3-3.3c-1.5-1.5-4-1.5-5.5,0.1l-35.2,38.4c-1.4,1.5-1.3,3.8,0.1,5.3l0,0
				c1.4,1.4,3.8,1.5,5.3,0.1l38.4-35.2C411.2,142,411.3,139.5,409.7,138z"/>
			<path fill="#E4430D" d="M390.5,161v-8h-7.1l-17.6,19.8c-1.4,1.5-1.3,4.1,0.1,5.5c0.7,0.7,1.7,1.2,2.6,1.2c0.9,0,2-0.2,2.7-0.9
				L390.5,161z"/>
			<path fill="#FDBA63" d="M378.5,171.4V166h-5.5l-7.3,7.6c-1.4,1.5-1.3,3.7,0.1,5.1c0.7,0.7,1.7,1,2.6,1c0.9,0,1.6-0.4,2.4-1
				L378.5,171.4z"/>
			<path fill="#E4430D" d="M418.5,141.1c0.4-0.4,0.7-0.8,0.9-1.4l0.2-0.7c0.5-2.1-0.5-4.6-2.5-6.6l-4.9-4.9c-2.1-2.1-4.5-3-6.6-2.5
				l-0.8,0.3c-0.5,0.2-1,0.5-1.3,0.9c-0.4,0.4-0.7,0.8-0.9,1.4l-0.4,0.9l-3,7c-0.9,2.3-0.2,5.5,2,7.7l0.3,0.3c2.2,2.2,5.4,2.9,7.7,2
				l6.9-2.9l0.9-0.4C417.6,141.8,418.1,141.5,418.5,141.1z"/>
			<path fill="#E4430D" d="M418.5,141.1c0.6-0.6,1.1-1.4,1.3-2.3l-0.4,0.9C419.1,140.3,418.8,140.7,418.5,141.1z"/>
			<path fill="#C43C1F" d="M419.6,139l2.7-6.8c0.9-2.3,0-5.3-2.2-7.5l-0.3-0.3c-2.2-2.2-5.1-3.2-7.4-2.3l-6.9,2.9
				c2.1-0.5,4.7,0.4,6.7,2.5l4.9,4.9C419.1,134.4,420,136.9,419.6,139z"/>
			<path fill="#E4430D" d="M418.5,141.1c-0.4,0.4-0.8,0.7-1.4,0.9l-0.9,0.4C417.1,142.2,417.9,141.8,418.5,141.1z"/>
			<path fill="#CBAAA1" d="M407.9,130.6c1.4-1.4,2.4-3,2.9-4.5c0.4-1.2,0.6-2.4,0.4-3.5l-5.5,2.3c0,0-0.1,0-0.1,0l-0.9,0.3
				c-0.5,0.2-1,0.5-1.4,0.9c-0.4,0.4-0.7,0.8-0.9,1.4l-0.4,0.9l-2.3,5.5C402.3,134.2,405.4,133,407.9,130.6z"/>
			<path fill="#CBAAA1" d="M413.9,136.6c1.4-1.4,3-2.4,4.5-2.9c1.2-0.4,2.4-0.6,3.5-0.4l-2.3,5.5c0,0,0,0.1,0,0.1l-0.3,0.9
				c-0.2,0.5-0.5,1-0.9,1.4c-0.4,0.4-0.8,0.7-1.4,0.9l-0.9,0.4l-5.5,2.3C410.3,142.2,411.5,139.1,413.9,136.6z"/>
			<path fill="#FFFFFF" d="M405.9,127.8c1.2-1.2,1.8-2.7,1.5-3.7l-1.7,0.7c0,0-0.1,0-0.1,0l-0.9,0.3c-0.5,0.2-1,0.5-1.4,0.9
				c-0.4,0.4-0.7,0.8-0.9,1.4l-0.4,0.9l-0.3,0.7C402.6,129.8,404.5,129.2,405.9,127.8z"/>
			<path fill="#2B0F0F" d="M404.8,126.7c0.7-0.7,1.1-1.4,1.3-2.1l-0.5,0.2c0,0-0.1,0-0.1,0l-0.9,0.3c-0.5,0.2-1,0.5-1.4,0.9
				c-0.4,0.4-0.7,0.8-0.9,1.4l-0.3,0.7C403,128.1,404,127.6,404.8,126.7z"/>
			<path fill="#FFFFFF" d="M416.7,138.5c1.2-1.2,2.7-1.8,3.7-1.5l-0.7,1.7c0,0,0,0.1,0,0.1l-0.3,0.9c-0.2,0.5-0.5,1-0.9,1.4
				c-0.4,0.4-0.8,0.7-1.4,0.9l-0.9,0.4l-0.7,0.3C414.7,141.8,415.2,140,416.7,138.5z"/>
			<path fill="#2B0F0F" d="M417.8,139.6c0.7-0.7,1.4-1.1,2.1-1.3l-0.2,0.5c0,0,0,0.1,0,0.1l-0.3,0.9c-0.2,0.5-0.5,1-0.9,1.4
				c-0.4,0.4-0.8,0.7-1.4,0.9l-0.7,0.3C416.4,141.5,416.9,140.5,417.8,139.6z"/>
		</g>
		<g>
			<g>
				<path fill="#E4430D" d="M470.7,156.9l0.4-0.9c0.3-0.7-0.2-1.4-0.9-1.5l-22.8-2.7c-1.1-0.1-1.7,1.2-0.9,1.9l0.5,0.4
					c0.2-0.1,0.3-0.1,0.5-0.1l22.8,2.7C470.5,156.8,470.6,156.8,470.7,156.9z"/>
				<path fill="#C43C1F" d="M467.9,163.8l2.8-6.9c-0.1-0.1-0.2-0.1-0.4-0.1l-22.8-2.7c-0.2,0-0.4,0-0.5,0.1l13.8,12.3
					c0.3,0.3,0.8,0.4,1.1,0.2l5.3-2.2C467.6,164.3,467.8,164,467.9,163.8z"/>
				<polygon fill="#059AD6" points="456.3,162.3 451.4,158 469.4,160.1 468,163.7 				"/>
				<path fill="#FDBA63" d="M467.9,163.8c-0.1,0.3-0.3,0.5-0.6,0.6l-5.3,2.2c-0.4,0.2-0.8,0.1-1.1-0.2l-4.6-4.1l11.7,1.4
					L467.9,163.8z"/>
			</g>
			<g>
				<path fill="#E4430D" d="M474.4,160.6l0.9-0.4c0.7-0.3,1.4,0.2,1.5,0.9l2.7,22.8c0.1,1.1-1.2,1.7-1.9,0.9l-0.4-0.5
					c0.1-0.2,0.1-0.3,0.1-0.5l-2.7-22.8C474.5,160.8,474.5,160.7,474.4,160.6z"/>
				<path fill="#C43C1F" d="M467.5,163.4l6.9-2.8c0.1,0.1,0.1,0.2,0.1,0.4l2.7,22.8c0,0.2,0,0.4-0.1,0.5L465,170.5
					c-0.3-0.3-0.4-0.8-0.2-1.1l2.2-5.3C467.1,163.7,467.3,163.5,467.5,163.4z"/>
				<polygon fill="#059AD6" points="469.1,175 473.4,179.9 471.2,161.9 467.7,163.4 				"/>
				<path fill="#FDBA63" d="M467.5,163.4c-0.3,0.1-0.5,0.3-0.6,0.6l-2.2,5.3c-0.2,0.4-0.1,0.8,0.2,1.1l4.1,4.6l-1.4-11.7
					L467.5,163.4z"/>
			</g>
			<path fill="#2B0F0F" d="M480.1,152l-0.8-0.8c-0.6-0.6-1.5-0.7-2.2-0.3l-1.9,1.1c-1.1,0.6-1.2,2-0.4,2.9l1.6,1.6
				c0.9,0.9,2.3,0.7,2.9-0.4l1.1-1.9C480.8,153.5,480.7,152.6,480.1,152z"/>
			<path fill="#059AD6" d="M473.6,159.3l-1.5-1.5c-0.7-0.7-1.9-0.7-2.6,0.1l-16.4,17.9c-0.6,0.7-0.6,1.8,0.1,2.4l0,0
				c0.7,0.7,1.7,0.7,2.4,0.1l17.9-16.4C474.3,161.2,474.3,160,473.6,159.3z"/>
			<path fill="#E4430D" d="M463.5,170v-3h-2.2l-8.2,8.8c-0.6,0.7-0.6,1.7,0.1,2.4c0.3,0.3,0.8,0.5,1.2,0.5c0.4,0,0.4-0.2,0.7-0.5
				L463.5,170z"/>
			<path fill="#FDBA63" d="M459.5,174.8V172h-3l-3.4,3.7c-0.6,0.7-0.6,1.8,0.1,2.5c0.3,0.3,0.8,0.5,1.2,0.5c0.4,0,1-0.1,1.3-0.5
				L459.5,174.8z"/>
			<path fill="#E4430D" d="M477.6,160.8c0.2-0.2,0.3-0.4,0.4-0.6l0.1-0.3c0.2-1-0.3-2.1-1.2-3.1l-2.3-2.3c-1-1-2.1-1.4-3.1-1.2
				l-0.4,0.1c-0.3,0.1-0.4,0.2-0.6,0.4c-0.2,0.2-0.3,0.4-0.4,0.6l-0.2,0.4l-1.4,3.3c-0.4,1.1-0.2,2.6,0.9,3.6l0.2,0.2
				c1,1,2.6,1.3,3.6,0.9l3.2-1.4l0.4-0.2C477.2,161.1,477.5,160.9,477.6,160.8z"/>
			<path fill="#E4430D" d="M477.6,160.8c0.3-0.3,0.5-0.6,0.6-1.1l-0.2,0.4C478,160.4,477.8,160.6,477.6,160.8z"/>
			<path fill="#C43C1F" d="M478.1,159.8l1.3-3.2c0.4-1.1,0.1-2.5-1-3.6l-0.2-0.2c-1-1-2.4-1.5-3.5-1l-3.3,1.4c1-0.2,2.1,0.2,3.1,1.2
				l2.3,2.3C477.9,157.7,478.3,158.8,478.1,159.8z"/>
			<path fill="#E4430D" d="M477.6,160.8c-0.2,0.2-0.4,0.3-0.6,0.4l-0.4,0.2C477,161.3,477.4,161.1,477.6,160.8z"/>
			<path fill="#CBAAA1" d="M472.7,155.8c0.6-0.6,1.1-1.4,1.3-2.1c0.2-0.6,0.3-1.1,0.2-1.6l-2.6,1.1c0,0,0,0,0,0l-0.4,0.2
				c-0.3,0.1-0.5,0.2-0.6,0.4c-0.2,0.2-0.3,0.4-0.4,0.6l-0.2,0.4l-1.1,2.6C470.1,157.5,471.6,157,472.7,155.8z"/>
			<path fill="#CBAAA1" d="M475.5,158.7c0.6-0.6,1.4-1.1,2.1-1.3c0.6-0.2,1.1-0.3,1.6-0.2l-1.1,2.6c0,0,0,0,0,0l-0.2,0.4
				c-0.1,0.3-0.2,0.5-0.4,0.6c-0.2,0.2-0.4,0.3-0.6,0.4l-0.4,0.2l-2.6,1.1C473.8,161.3,474.4,159.8,475.5,158.7z"/>
			<path fill="#FFFFFF" d="M471.8,154.6c0.6-0.6,0.8-1.3,0.7-1.7l-0.8,0.3c0,0,0,0,0,0l-0.4,0.2c-0.3,0.1-0.5,0.2-0.6,0.4
				c-0.2,0.2-0.3,0.4-0.4,0.6l-0.2,0.4l-0.1,0.3C470.3,155.5,471.1,155.2,471.8,154.6z"/>
			<path fill="#2B0F0F" d="M471.3,154.1c0.3-0.3,0.5-0.7,0.6-1l-0.2,0.1c0,0,0,0,0,0l-0.4,0.2c-0.3,0.1-0.5,0.2-0.6,0.4
				c-0.2,0.2-0.3,0.4-0.4,0.6l-0.1,0.3C470.4,154.7,470.9,154.4,471.3,154.1z"/>
			<path fill="#FFFFFF" d="M476.8,159.6c0.6-0.6,1.3-0.8,1.7-0.7l-0.3,0.8c0,0,0,0,0,0l-0.2,0.4c-0.1,0.3-0.2,0.5-0.4,0.6
				c-0.2,0.2-0.4,0.3-0.6,0.4l-0.4,0.2l-0.3,0.1C475.9,161.1,476.1,160.2,476.8,159.6z"/>
			<path fill="#2B0F0F" d="M477.3,160.1c0.3-0.3,0.7-0.5,1-0.6l-0.1,0.2c0,0,0,0,0,0l-0.2,0.4c-0.1,0.3-0.2,0.5-0.4,0.6
				c-0.2,0.2-0.4,0.3-0.6,0.4l-0.3,0.1C476.7,160.9,476.9,160.5,477.3,160.1z"/>
		</g>
		<g>
			<g>
				<path fill="#E4430D" d="M425.9,69.5l0.5-1.3c0.4-1-0.2-2.1-1.3-2.2l-33.7-4c-1.6-0.2-2.5,1.8-1.3,2.8l0.7,0.6
					c0.2-0.1,0.5-0.1,0.8-0.1l33.7,4C425.5,69.3,425.7,69.4,425.9,69.5z"/>
				<path fill="#C43C1F" d="M421.7,79.7l4.2-10.2c-0.2-0.1-0.4-0.2-0.6-0.2l-33.7-4c-0.3,0-0.5,0-0.8,0.1l20.4,18.1
					c0.5,0.4,1.1,0.5,1.7,0.3l7.9-3.2C421.2,80.4,421.5,80.1,421.7,79.7z"/>
				<polygon fill="#059AD6" points="404.5,77.4 397.4,71.1 423.9,74.3 421.8,79.5 				"/>
				<path fill="#FDBA63" d="M421.7,79.7c-0.2,0.4-0.5,0.7-0.9,0.9l-7.9,3.2c-0.6,0.2-1.2,0.1-1.7-0.3l-6.8-6l17.3,2.1L421.7,79.7z"
					/>
			</g>
			<g>
				<path fill="#E4430D" d="M431.4,74.9l1.3-0.5c1-0.4,2.1,0.2,2.2,1.3l4,33.7c0.2,1.6-1.8,2.5-2.8,1.3l-0.6-0.7
					c0.1-0.2,0.1-0.5,0.1-0.8l-4-33.7C431.5,75.3,431.5,75.1,431.4,74.9z"/>
				<path fill="#C43C1F" d="M421.2,79.1l10.2-4.2c0.1,0.2,0.2,0.4,0.2,0.6l4,33.7c0,0.3,0,0.5-0.1,0.8l-18.1-20.4
					c-0.4-0.5-0.5-1.1-0.3-1.7l3.2-7.9C420.4,79.6,420.8,79.3,421.2,79.1z"/>
				<polygon fill="#059AD6" points="423.4,96.3 429.8,103.5 426.6,76.9 421.3,79.1 				"/>
				<path fill="#FDBA63" d="M421.2,79.1c-0.4,0.2-0.7,0.5-0.9,0.9l-3.2,7.9c-0.2,0.6-0.1,1.2,0.3,1.7l6,6.8l-2.1-17.3L421.2,79.1z"
					/>
			</g>
			<path fill="#2B0F0F" d="M439.8,62.3l-1.1-1.1c-0.8-0.8-2.2-1-3.2-0.4l-2.8,1.6c-1.6,0.9-1.8,3-0.6,4.2l2.4,2.4
				c1.3,1.3,3.4,1,4.2-0.6l1.6-2.8C440.8,64.4,440.7,63.1,439.8,62.3z"/>
			<path fill="#059AD6" d="M430.1,73.1l-2.2-2.2c-1.1-1.1-2.8-1-3.8,0.1l-24.2,26.4c-0.9,1-0.9,2.6,0.1,3.6l0,0c1,1,2.6,1,3.6,0.1
				L430,76.9C431.1,75.9,431.2,74.1,430.1,73.1z"/>
			<path fill="#E4430D" d="M415.5,88.9V83H412l-12.1,13.8c-0.9,1-0.9,2.9,0.1,3.9c0.5,0.5,1.1,0.9,1.8,0.9c0.7,0,0.7-0.1,1.2-0.6
				L415.5,88.9z"/>
			<path fill="#FDBA63" d="M408.5,96.1V93h-3.7l-5,4.9c-0.9,1-0.9,2.4,0.1,3.3c0.5,0.5,1.1,0.6,1.8,0.6c0.7,0,1.1-0.3,1.6-0.8
				L408.5,96.1z"/>
			<path fill="#E4430D" d="M436.1,75.2c0.3-0.3,0.5-0.6,0.6-0.9l0.2-0.6c0.3-1.4-0.2-3.2-1.6-4.7l-3.4-3.4c-1.4-1.4-3.2-2-4.7-1.6
				l-0.6,0.2c-0.4,0.2-0.7,0.4-0.9,0.6c-0.3,0.3-0.5,0.6-0.6,1l-0.3,0.6l-2,4.8c-0.6,1.6-0.1,3.8,1.4,5.3l0.2,0.2
				c1.5,1.5,3.7,2,5.3,1.4l4.8-2l0.6-0.3C435.5,75.7,435.8,75.5,436.1,75.2z"/>
			<path fill="#E4430D" d="M436.1,75.2c0.4-0.4,0.7-1,0.9-1.6l-0.3,0.6C436.6,74.7,436.4,75,436.1,75.2z"/>
			<path fill="#C43C1F" d="M437,73.7l1.9-4.6c0.6-1.6,0-3.6-1.5-5.1l-0.2-0.2c-1.5-1.5-3.6-2.2-5.1-1.5l-4.7,1.9
				c1.4-0.3,3.3,0.2,4.7,1.6l3.4,3.4C436.7,70.4,437.3,72.2,437,73.7z"/>
			<path fill="#E4430D" d="M436.1,75.2c-0.3,0.3-0.6,0.5-1,0.6l-0.6,0.3C435.1,76,435.7,75.7,436.1,75.2z"/>
			<path fill="#CBAAA1" d="M428.8,68c1-1,1.6-2,2-3.1c0.3-0.8,0.4-1.6,0.3-2.4l-3.8,1.6c0,0,0,0-0.1,0l-0.6,0.2
				c-0.4,0.2-0.7,0.3-0.9,0.6c-0.3,0.3-0.5,0.6-0.6,0.9l-0.3,0.6l-1.6,3.8C425,70.5,427.1,69.7,428.8,68z"/>
			<path fill="#CBAAA1" d="M433,72.1c1-1,2-1.6,3.1-2c0.8-0.3,1.6-0.4,2.4-0.3l-1.6,3.8c0,0,0,0,0,0.1l-0.2,0.6
				c-0.2,0.4-0.3,0.7-0.6,0.9c-0.3,0.3-0.6,0.5-0.9,0.6l-0.6,0.3l-3.8,1.6C430.5,76,431.3,73.8,433,72.1z"/>
			<path fill="#FFFFFF" d="M427.5,66.1c0.8-0.8,1.2-1.9,1-2.5l-1.2,0.5c0,0,0,0-0.1,0l-0.6,0.2c-0.4,0.2-0.7,0.3-0.9,0.6
				c-0.3,0.3-0.5,0.6-0.6,0.9l-0.3,0.6l-0.2,0.5C425.2,67.4,426.5,67.1,427.5,66.1z"/>
			<path fill="#2B0F0F" d="M426.7,65.3c0.5-0.5,0.8-1,0.9-1.4l-0.3,0.1c0,0,0,0-0.1,0l-0.6,0.2c-0.4,0.2-0.7,0.3-0.9,0.6
				c-0.3,0.3-0.5,0.6-0.6,0.9l-0.2,0.5C425.5,66.2,426.2,65.9,426.7,65.3z"/>
			<path fill="#FFFFFF" d="M434.9,73.5c0.8-0.8,1.9-1.2,2.5-1l-0.5,1.2c0,0,0,0,0,0.1l-0.2,0.6c-0.2,0.4-0.3,0.7-0.6,0.9
				c-0.3,0.3-0.6,0.5-0.9,0.6l-0.6,0.3l-0.5,0.2C433.5,75.7,433.9,74.5,434.9,73.5z"/>
			<path fill="#2B0F0F" d="M435.6,74.2c0.5-0.5,1-0.8,1.4-0.9l-0.1,0.3c0,0,0,0,0,0.1l-0.2,0.6c-0.2,0.4-0.3,0.7-0.6,0.9
				c-0.3,0.3-0.6,0.5-0.9,0.6l-0.5,0.2C434.7,75.5,435,74.8,435.6,74.2z"/>
		</g>
	</g>
	<g>
		<g>
			<g>
				<path fill="#E4430D" d="M77,114.7l-0.8-1.9c-0.6-1.4,0.3-3.1,1.9-3.2l48.9-5.9c2.3-0.3,3.6,2.6,1.8,4.1l-1,0.9
					c-0.3-0.1-0.7-0.2-1.1-0.1l-48.9,5.9C77.6,114.5,77.3,114.6,77,114.7z"/>
				<path fill="#C43C1F" d="M83.1,129.5L77,114.7c0.3-0.1,0.5-0.2,0.8-0.3l48.9-5.9c0.4,0,0.8,0,1.1,0.1L98.3,135
					c-0.7,0.6-1.6,0.8-2.5,0.4l-11.5-4.6C83.8,130.6,83.4,130.1,83.1,129.5z"/>
				<polygon fill="#059AD6" points="108.2,126.3 118.5,117 79.9,121.7 83,129.3 				"/>
				<path fill="#FDBA63" d="M83.1,129.5c0.2,0.6,0.7,1.1,1.3,1.3l11.5,4.6c0.8,0.3,1.8,0.2,2.5-0.4l9.8-8.7l-25.1,3L83.1,129.5z"/>
			</g>
			<g>
				<path fill="#E4430D" d="M69.1,122.6l-1.9-0.8c-1.4-0.6-3.1,0.3-3.2,1.9l-5.9,48.9c-0.3,2.3,2.6,3.6,4.1,1.8l0.9-1
					c-0.1-0.3-0.2-0.7-0.1-1.1l5.9-48.9C68.9,123.2,69,122.9,69.1,122.6z"/>
				<path fill="#C43C1F" d="M83.9,128.7l-14.8-6.1c-0.1,0.3-0.2,0.5-0.3,0.8L63,172.4c0,0.4,0,0.8,0.1,1.1l26.3-29.6
					c0.6-0.7,0.8-1.6,0.4-2.5L85.2,130C85,129.4,84.5,129,83.9,128.7z"/>
				<polygon fill="#059AD6" points="80.7,153.8 71.4,164.1 76.1,125.5 83.7,128.6 				"/>
				<path fill="#FDBA63" d="M83.9,128.7c0.6,0.2,1.1,0.7,1.3,1.3l4.6,11.5c0.3,0.8,0.2,1.8-0.4,2.5l-8.7,9.8l3-25.1L83.9,128.7z"/>
			</g>
			<path fill="#2B0F0F" d="M56.8,104.3l1.7-1.7c1.2-1.2,3.1-1.5,4.7-0.6l4.1,2.3c2.3,1.3,2.7,4.3,0.9,6.2l-3.5,3.5
				c-1.8,1.8-4.9,1.4-6.2-0.9l-2.3-4.1C55.3,107.4,55.6,105.5,56.8,104.3z"/>
			<path fill="#059AD6" d="M71,120l3.3-3.3c1.5-1.5,4-1.5,5.5,0.1l35.2,38.4c1.4,1.5,1.3,3.8-0.1,5.3l0,0c-1.4,1.4-3.8,1.5-5.3,0.1
				l-38.4-35.2C69.5,124,69.4,121.5,71,120z"/>
			<path fill="#E4430D" d="M89.5,143v-8h7.7l17.6,19.7c1.4,1.5,1.3,4.1-0.1,5.5c-0.7,0.7-1.7,1.2-2.6,1.2c-0.9,0-2.2-0.2-3-0.9
				L89.5,143z"/>
			<path fill="#FDBA63" d="M101.5,153.4V148h6.1l7.3,7.6c1.4,1.5,1.3,3.6-0.1,5.1c-0.7,0.7-1.7,1-2.6,1c-0.9,0-1.9-0.4-2.7-1
				L101.5,153.4z"/>
			<path fill="#E4430D" d="M62.2,123.1c-0.4-0.4-0.7-0.8-0.9-1.4l-0.2-0.7c-0.5-2.1,0.5-4.6,2.5-6.6l4.9-4.9c2.1-2.1,4.5-3,6.6-2.5
				l0.8,0.3c0.5,0.2,1,0.5,1.3,0.9c0.4,0.4,0.7,0.8,0.9,1.4l0.4,0.9l3,7c0.9,2.3,0.2,5.5-2,7.7l-0.3,0.3c-2.2,2.2-5.4,2.9-7.7,2
				l-6.9-2.9l-0.9-0.4C63.1,123.8,62.6,123.4,62.2,123.1z"/>
			<path fill="#E4430D" d="M62.2,123.1c-0.6-0.6-1.1-1.4-1.3-2.3l0.4,0.9C61.5,122.2,61.8,122.7,62.2,123.1z"/>
			<path fill="#C43C1F" d="M61.1,120.9l-2.7-6.8c-0.9-2.3,0-5.3,2.2-7.5l0.3-0.3c2.2-2.2,5.1-3.2,7.4-2.3l6.9,2.9
				c-2.1-0.5-4.7,0.4-6.7,2.5l-4.9,4.9C61.6,116.4,60.6,118.9,61.1,120.9z"/>
			<path fill="#E4430D" d="M62.2,123.1c0.4,0.4,0.8,0.7,1.4,0.9l0.9,0.4C63.6,124.1,62.8,123.7,62.2,123.1z"/>
			<path fill="#CBAAA1" d="M72.8,112.5c-1.4-1.4-2.4-3-2.9-4.5c-0.4-1.2-0.6-2.4-0.4-3.5l5.5,2.3c0,0,0.1,0,0.1,0l0.9,0.3
				c0.5,0.2,1,0.5,1.4,0.9c0.4,0.4,0.7,0.8,0.9,1.4l0.4,0.9l2.3,5.5C78.4,116.1,75.3,115,72.8,112.5z"/>
			<path fill="#CBAAA1" d="M66.8,118.6c-1.4-1.4-3-2.4-4.5-2.9c-1.2-0.4-2.4-0.6-3.5-0.4l2.3,5.5c0,0,0,0.1,0,0.1l0.3,0.9
				c0.2,0.5,0.5,1,0.9,1.4c0.4,0.4,0.8,0.7,1.4,0.9l0.9,0.4l5.5,2.3C70.4,124.1,69.2,121,66.8,118.6z"/>
			<path fill="#FFFFFF" d="M74.7,109.7c-1.2-1.2-1.8-2.7-1.5-3.7l1.7,0.7c0,0,0.1,0,0.1,0l0.9,0.3c0.5,0.2,1,0.5,1.4,0.9
				c0.4,0.4,0.7,0.8,0.9,1.4l0.4,0.9l0.3,0.7C78,111.7,76.2,111.2,74.7,109.7z"/>
			<path fill="#2B0F0F" d="M75.8,108.7c-0.7-0.7-1.1-1.4-1.3-2.1l0.5,0.2c0,0,0.1,0,0.1,0l0.9,0.3c0.5,0.2,1,0.5,1.4,0.9
				c0.4,0.4,0.7,0.8,0.9,1.4l0.3,0.7C77.7,110,76.7,109.5,75.8,108.7z"/>
			<path fill="#FFFFFF" d="M64,120.5c-1.2-1.2-2.7-1.8-3.7-1.5l0.7,1.7c0,0,0,0.1,0,0.1l0.3,0.9c0.2,0.5,0.5,1,0.9,1.4
				c0.4,0.4,0.8,0.7,1.4,0.9l0.9,0.4l0.7,0.3C66,123.8,65.4,121.9,64,120.5z"/>
			<path fill="#2B0F0F" d="M62.9,121.6c-0.7-0.7-1.4-1.1-2.1-1.3l0.2,0.5c0,0,0,0.1,0,0.1l0.3,0.9c0.2,0.5,0.5,1,0.9,1.4
				c0.4,0.4,0.8,0.7,1.4,0.9l0.7,0.3C64.3,123.4,63.8,122.4,62.9,121.6z"/>
		</g>
		<g>
			<g>
				<path fill="#E4430D" d="M9.9,138.8l-0.4-0.9c-0.3-0.7,0.2-1.4,0.9-1.5l22.8-2.7c1.1-0.1,1.7,1.2,0.9,1.9l-0.5,0.4
					c-0.2-0.1-0.3-0.1-0.5-0.1l-22.8,2.7C10.2,138.7,10,138.7,9.9,138.8z"/>
				<path fill="#C43C1F" d="M12.8,145.7l-2.8-6.9c0.1-0.1,0.2-0.1,0.4-0.1l22.8-2.7c0.2,0,0.4,0,0.5,0.1l-13.8,12.3
					c-0.3,0.3-0.8,0.4-1.1,0.2l-5.3-2.2C13.1,146.2,12.9,146,12.8,145.7z"/>
				<polygon fill="#059AD6" points="24.4,144.2 29.2,139.9 11.3,142.1 12.7,145.6 				"/>
				<path fill="#FDBA63" d="M12.8,145.7c0.1,0.3,0.3,0.5,0.6,0.6l5.3,2.2c0.4,0.2,0.8,0.1,1.1-0.2l4.6-4.1l-11.7,1.4L12.8,145.7z"/>
			</g>
			<g>
				<path fill="#E4430D" d="M6.2,142.5l-0.9-0.4c-0.7-0.3-1.4,0.2-1.5,0.9l-2.7,22.8c-0.1,1.1,1.2,1.7,1.9,0.9l0.4-0.5
					c-0.1-0.2-0.1-0.3-0.1-0.5l2.7-22.8C6.1,142.8,6.2,142.6,6.2,142.5z"/>
				<path fill="#C43C1F" d="M13.1,145.3l-6.9-2.8c-0.1,0.1-0.1,0.2-0.1,0.4l-2.7,22.8c0,0.2,0,0.4,0.1,0.5l12.3-13.8
					c0.3-0.3,0.4-0.8,0.2-1.1l-2.2-5.3C13.6,145.7,13.4,145.5,13.1,145.3z"/>
				<polygon fill="#059AD6" points="11.6,157 7.3,161.8 9.5,143.8 13,145.3 				"/>
				<path fill="#FDBA63" d="M13.1,145.3c0.3,0.1,0.5,0.3,0.6,0.6l2.2,5.3c0.2,0.4,0.1,0.8-0.2,1.1l-4.1,4.6l1.4-11.7L13.1,145.3z"/>
			</g>
			<path fill="#2B0F0F" d="M0.5,134l0.8-0.8c0.6-0.6,1.5-0.7,2.2-0.3l1.9,1.1c1.1,0.6,1.2,2,0.4,2.9l-1.6,1.6
				c-0.9,0.9-2.3,0.7-2.9-0.4l-1.1-1.9C-0.2,135.4,0,134.5,0.5,134z"/>
			<path fill="#059AD6" d="M7.1,141.3l1.5-1.5c0.7-0.7,1.9-0.7,2.6,0.1l16.4,17.9c0.6,0.7,0.6,1.8-0.1,2.4l0,0
				c-0.7,0.7-1.7,0.7-2.4,0.1L7.2,143.8C6.4,143.1,6.4,142,7.1,141.3z"/>
			<path fill="#E4430D" d="M15.5,152v-3h3.8l8.2,8.8c0.6,0.7,0.6,1.7-0.1,2.4c-0.3,0.3-0.8,0.5-1.2,0.5c-0.4,0-1.1-0.2-1.5-0.5
				L15.5,152z"/>
			<path fill="#FDBA63" d="M20.5,156.8V153h3.6l3.4,4.2c0.6,0.7,0.6,2-0.1,2.7c-0.3,0.3-0.8,0.6-1.2,0.6c-0.4,0-1.3-0.1-1.6-0.4
				L20.5,156.8z"/>
			<path fill="#E4430D" d="M3,142.7c-0.2-0.2-0.3-0.4-0.4-0.6l-0.1-0.3c-0.2-1,0.3-2.1,1.2-3.1l2.3-2.3c1-1,2.1-1.4,3.1-1.2l0.4,0.1
				c0.3,0.1,0.4,0.2,0.6,0.4c0.2,0.2,0.3,0.4,0.4,0.6l0.2,0.4l1.4,3.3c0.4,1.1,0.2,2.6-0.9,3.6l-0.2,0.2c-1,1-2.6,1.3-3.6,0.9
				l-3.2-1.4l-0.4-0.2C3.5,143,3.2,142.9,3,142.7z"/>
			<path fill="#E4430D" d="M3,142.7c-0.3-0.3-0.5-0.6-0.6-1.1l0.2,0.4C2.7,142.3,2.9,142.5,3,142.7z"/>
			<path fill="#C43C1F" d="M2.6,141.8l-1.3-3.2c-0.4-1.1-0.1-2.5,1-3.6l0.2-0.2c1-1,2.4-1.5,3.5-1l3.3,1.4c-1-0.2-2.1,0.2-3.1,1.2
				l-2.3,2.3C2.8,139.7,2.3,140.8,2.6,141.8z"/>
			<path fill="#E4430D" d="M3,142.7c0.2,0.2,0.4,0.3,0.6,0.4l0.4,0.2C3.7,143.2,3.3,143,3,142.7z"/>
			<path fill="#CBAAA1" d="M8,137.8c-0.6-0.6-1.1-1.4-1.3-2.1c-0.2-0.6-0.3-1.1-0.2-1.6l2.6,1.1c0,0,0,0,0,0l0.4,0.2
				c0.3,0.1,0.5,0.2,0.6,0.4c0.2,0.2,0.3,0.4,0.4,0.6l0.2,0.4l1.1,2.6C10.6,139.5,9.1,138.9,8,137.8z"/>
			<path fill="#CBAAA1" d="M5.1,140.6c-0.6-0.6-1.4-1.1-2.1-1.3c-0.6-0.2-1.1-0.3-1.6-0.2l1.1,2.6c0,0,0,0,0,0l0.2,0.4
				c0.1,0.3,0.2,0.5,0.4,0.6c0.2,0.2,0.4,0.3,0.6,0.4l0.4,0.2l2.6,1.1C6.8,143.2,6.3,141.8,5.1,140.6z"/>
			<path fill="#FFFFFF" d="M8.9,136.5c-0.6-0.6-0.8-1.3-0.7-1.7l0.8,0.3c0,0,0,0,0,0l0.4,0.2c0.3,0.1,0.5,0.2,0.6,0.4
				c0.2,0.2,0.3,0.4,0.4,0.6l0.2,0.4l0.1,0.3C10.4,137.4,9.5,137.2,8.9,136.5z"/>
			<path fill="#2B0F0F" d="M9.4,136c-0.3-0.3-0.5-0.7-0.6-1l0.2,0.1c0,0,0,0,0,0l0.4,0.2c0.3,0.1,0.5,0.2,0.6,0.4
				c0.2,0.2,0.3,0.4,0.4,0.6l0.1,0.3C10.2,136.6,9.8,136.4,9.4,136z"/>
			<path fill="#FFFFFF" d="M3.9,141.5c-0.6-0.6-1.3-0.8-1.7-0.7l0.3,0.8c0,0,0,0,0,0l0.2,0.4c0.1,0.3,0.2,0.5,0.4,0.6
				c0.2,0.2,0.4,0.3,0.6,0.4l0.4,0.2l0.3,0.1C4.8,143,4.5,142.2,3.9,141.5z"/>
			<path fill="#2B0F0F" d="M3.4,142c-0.3-0.3-0.7-0.5-1-0.6l0.1,0.2c0,0,0,0,0,0l0.2,0.4c0.1,0.3,0.2,0.5,0.4,0.6
				c0.2,0.2,0.4,0.3,0.6,0.4l0.3,0.1C4,142.9,3.8,142.4,3.4,142z"/>
		</g>
		<g>
			<g>
				<path fill="#E4430D" d="M54.8,51.4l-0.5-1.3c-0.4-1,0.2-2.1,1.3-2.2l33.7-4c1.6-0.2,2.5,1.8,1.3,2.8l-0.7,0.6
					c-0.2-0.1-0.5-0.1-0.8-0.1l-33.7,4C55.1,51.3,54.9,51.3,54.8,51.4z"/>
				<path fill="#C43C1F" d="M59,61.6l-4.2-10.2c0.2-0.1,0.4-0.2,0.6-0.2l33.7-4c0.3,0,0.5,0,0.8,0.1L69.4,65.4
					c-0.5,0.4-1.1,0.5-1.7,0.3l-7.9-3.2C59.5,62.3,59.1,62,59,61.6z"/>
				<polygon fill="#059AD6" points="76.2,59.4 83.3,53 56.7,56.2 58.9,61.5 				"/>
				<path fill="#FDBA63" d="M59,61.6c0.2,0.4,0.5,0.7,0.9,0.9l7.9,3.2c0.6,0.2,1.2,0.1,1.7-0.3l6.8-6l-17.3,2.1L59,61.6z"/>
			</g>
			<g>
				<path fill="#E4430D" d="M49.3,56.9L48,56.3c-1-0.4-2.1,0.2-2.2,1.3l-4,33.7c-0.2,1.6,1.8,2.5,2.8,1.3l0.6-0.7
					c-0.1-0.2-0.1-0.5-0.1-0.8l4-33.7C49.2,57.2,49.2,57.1,49.3,56.9z"/>
				<path fill="#C43C1F" d="M59.5,61.1l-10.2-4.2c-0.1,0.2-0.2,0.4-0.2,0.6l-4,33.7c0,0.3,0,0.5,0.1,0.8l18.1-20.4
					c0.4-0.5,0.5-1.1,0.3-1.7L60.4,62C60.2,61.6,59.9,61.2,59.5,61.1z"/>
				<polygon fill="#059AD6" points="57.3,78.3 50.9,85.4 54.1,58.9 59.4,61 				"/>
				<path fill="#FDBA63" d="M59.5,61.1c0.4,0.2,0.7,0.5,0.9,0.9l3.2,7.9c0.2,0.6,0.1,1.2-0.3,1.7l-6,6.8L59.4,61L59.5,61.1z"/>
			</g>
			<path fill="#2B0F0F" d="M40.9,44.2l1.1-1.1c0.8-0.8,2.2-1,3.2-0.4l2.8,1.6c1.6,0.9,1.8,3,0.6,4.2l-2.4,2.4
				c-1.3,1.3-3.4,1-4.2-0.6l-1.6-2.8C39.8,46.4,40,45.1,40.9,44.2z"/>
			<path fill="#059AD6" d="M50.6,55l2.2-2.2c1.1-1.1,2.8-1,3.8,0.1l24.2,26.4c0.9,1,0.9,2.6-0.1,3.6v0c-1,1-2.6,1-3.6,0.1L50.7,58.8
				C49.6,57.8,49.5,56.1,50.6,55z"/>
			<path fill="#E4430D" d="M64.5,70.9V65h4.1l12.1,13.8c0.9,1,0.9,2.9-0.1,3.9c-0.5,0.5-1.1,0.9-1.8,0.9c-0.7,0-1-0.1-1.5-0.6
				L64.5,70.9z"/>
			<path fill="#FDBA63" d="M71.5,78v-4h4.3l5,5.4c0.9,1,0.9,2.6-0.1,3.6c-0.5,0.5-1.1,0.7-1.8,0.7c-0.7,0-1.4-0.2-1.9-0.7L71.5,78z"
				/>
			<path fill="#E4430D" d="M44.6,57.2c-0.3-0.3-0.5-0.6-0.6-0.9l-0.2-0.6c-0.3-1.4,0.2-3.2,1.6-4.7l3.4-3.4c1.4-1.4,3.2-2,4.7-1.6
				l0.6,0.2c0.4,0.2,0.7,0.4,0.9,0.6c0.3,0.3,0.5,0.6,0.6,1l0.3,0.6l2,4.8c0.6,1.6,0.1,3.8-1.4,5.3l-0.2,0.2c-1.5,1.5-3.7,2-5.3,1.4
				l-4.8-2l-0.6-0.3C45.2,57.7,44.8,57.4,44.6,57.2z"/>
			<path fill="#E4430D" d="M44.6,57.2c-0.4-0.4-0.7-1-0.9-1.6l0.3,0.6C44.1,56.6,44.3,56.9,44.6,57.2z"/>
			<path fill="#C43C1F" d="M43.7,55.6L41.8,51c-0.6-1.6,0-3.6,1.5-5.1l0.2-0.2c1.5-1.5,3.6-2.2,5.1-1.5l4.7,1.9
				c-1.4-0.3-3.3,0.2-4.7,1.6L45.4,51C43.9,52.4,43.4,54.2,43.7,55.6z"/>
			<path fill="#E4430D" d="M44.6,57.2c0.3,0.3,0.6,0.5,1,0.6l0.6,0.3C45.5,57.9,45,57.6,44.6,57.2z"/>
			<path fill="#CBAAA1" d="M51.9,49.9c-1-1-1.6-2-2-3.1c-0.3-0.8-0.4-1.6-0.3-2.4l3.8,1.6c0,0,0,0,0.1,0l0.6,0.2
				c0.4,0.2,0.7,0.3,0.9,0.6c0.3,0.3,0.5,0.6,0.6,0.9l0.3,0.6l1.6,3.8C55.7,52.4,53.6,51.6,51.9,49.9z"/>
			<path fill="#CBAAA1" d="M47.7,54.1c-1-1-2-1.6-3.1-2c-0.8-0.3-1.6-0.4-2.4-0.3l1.6,3.8c0,0,0,0,0,0.1l0.2,0.6
				c0.2,0.4,0.3,0.7,0.6,0.9c0.3,0.3,0.6,0.5,0.9,0.6l0.6,0.3l3.8,1.6C50.2,57.9,49.4,55.8,47.7,54.1z"/>
			<path fill="#FFFFFF" d="M53.2,48c-0.8-0.8-1.2-1.9-1-2.5l1.2,0.5c0,0,0,0,0.1,0l0.6,0.2c0.4,0.2,0.7,0.3,0.9,0.6
				c0.3,0.3,0.5,0.6,0.6,0.9l0.3,0.6l0.2,0.5C55.5,49.4,54.2,49,53.2,48z"/>
			<path fill="#2B0F0F" d="M53.9,47.3c-0.5-0.5-0.8-1-0.9-1.4l0.3,0.1c0,0,0,0,0.1,0l0.6,0.2c0.4,0.2,0.7,0.3,0.9,0.6
				c0.3,0.3,0.5,0.6,0.6,0.9l0.2,0.5C55.2,48.2,54.5,47.8,53.9,47.3z"/>
			<path fill="#FFFFFF" d="M45.8,55.4c-0.8-0.8-1.9-1.2-2.5-1l0.5,1.2c0,0,0,0,0,0.1l0.2,0.6c0.2,0.4,0.3,0.7,0.6,0.9
				c0.3,0.3,0.6,0.5,0.9,0.6l0.6,0.3l0.5,0.2C47.1,57.7,46.8,56.4,45.8,55.4z"/>
			<path fill="#2B0F0F" d="M45,56.2c-0.5-0.5-1-0.8-1.4-0.9l0.1,0.3c0,0,0,0,0,0.1l0.2,0.6c0.2,0.4,0.3,0.7,0.6,0.9
				c0.3,0.3,0.6,0.5,0.9,0.6L46,58C46,57.4,45.6,56.7,45,56.2z"/>
		</g>
	</g>
	<path fill="#E0E0E0" d="M347.2,179.6v-0.7c0-2.9-2.4-5.3-5.3-5.3H254c-2.9,0-5.3-2.4-5.3-5.3v-0.6c0-2.9,2.4-5.3,5.3-5.3h155
		c2.9,0,5.3,2.4,5.3,5.3v0.6c0,2.9-2.4,5.3-5.3,5.3h-45.1c-2.9,0-5.3,2.4-5.3,5.3v0.7c0,2.9,2.4,5.3,5.3,5.3h11.9
		c2.9,0,5.3,2.4,5.3,5.3v0.6c0,2.9-2.4,5.3-5.3,5.3h-0.9c-2.9,0-5.3,2.4-5.3,5.3v0.6c0,2.9,2.4,5.3,5.3,5.3h78.6
		c2.9,0,5.3,2.4,5.3,5.3v0.6c0,2.9-2.4,5.3-5.3,5.3H330.2c-2.9,0-5.3-2.4-5.3-5.3v-0.6c0-2.9,2.4-5.3,5.3-5.3l0,0
		c2.9,0,5.3-2.4,5.3-5.3v-0.6c0-2.9-2.4-5.3-5.3-5.3h-21.9c-2.9,0-5.3-2.4-5.3-5.3v-0.6c0-2.9,2.4-5.3,5.3-5.3h33.6
		C344.8,184.9,347.2,182.5,347.2,179.6z"/>
</g>
</svg>
