<?xml version="1.0" encoding="utf-8"?>
<!-- Generator: Adobe Illustrator 18.0.0, SVG Export Plug-In . SVG Version: 6.00 Build 0)  -->
<!DOCTYPE svg PUBLIC "-//W3C//DTD SVG 1.1//EN" "http://www.w3.org/Graphics/SVG/1.1/DTD/svg11.dtd">
<svg version="1.1" id="Layer_1" xmlns="http://www.w3.org/2000/svg" xmlns:xlink="http://www.w3.org/1999/xlink" x="0px" y="0px"
	 viewBox="0 0 558.3 304.2" enable-background="new 0 0 558.3 304.2" xml:space="preserve">
<g>
	<path fill="#E0E0E0" d="M496.9,124.2v-0.7c0-2.6-2.1-4.7-4.7-4.7h-77.9c-2.6,0-4.7-2.1-4.7-4.7v-0.5c0-2.6,2.1-4.7,4.7-4.7h137.3
		c2.6,0,4.7,2.1,4.7,4.7v0.5c0,2.6-2.1,4.7-4.7,4.7h-40c-2.6,0-4.7,2.1-4.7,4.7v0.7c0,2.6,2.1,4.7,4.7,4.7h10.5
		c2.6,0,4.7,2.1,4.7,4.7v0.5c0,2.6-2.1,4.7-4.7,4.7h-0.8c-2.6,0-4.7,2.1-4.7,4.7v0.5c0,2.6,2.1,4.7,4.7,4.7h32.3
		c2.6,0,4.7,2.1,4.7,4.7v0.5c0,2.6-2.1,4.7-4.7,4.7h-71.8c-2.6,0-4.7-2.1-4.7-4.7v-0.5c0-2.6,2.1-4.7,4.7-4.7l0,0
		c2.6,0,4.7-2.1,4.7-4.7v-0.5c0-2.6-2.1-4.7-4.7-4.7h-19.4c-2.6,0-4.7-2.1-4.7-4.7v-0.5c0-2.6,2.1-4.7,4.7-4.7h29.8
		C494.8,128.8,496.9,126.8,496.9,124.2z"/>
	<g>
		<rect x="100.5" y="105.9" fill="#CB9EA3" width="386" height="198.3"/>
		<rect x="240" y="105.9" fill="#B18A8E" width="107" height="198.3"/>
		<g>
			<polygon fill="#007C4A" points="314.1,171 324,171 324,146.3 			"/>
			<rect x="322.3" y="159.5" fill="#8C6239" width="3.3" height="28"/>
			<polygon fill="#754C24" points="322.3,187.5 325.6,187.5 322.3,159.5 322.3,159.5 			"/>
			<g>
				<g>
					<polygon fill="#00954E" points="314.1,166 324,166 324,139.7 					"/>
					<polygon fill="#589D49" points="334.1,155 324,155 324,129.6 					"/>
					<polygon fill="#589D49" points="314.1,150 324,150 324,123.9 					"/>
					<polygon fill="#589D49" points="334.1,171 324,171 324,145.9 					"/>
					<polygon fill="#00954E" points="330.2,143 324,143 324,126.1 					"/>
					<polygon fill="#007C4A" points="329.6,157 324,157 324,143.5 					"/>
				</g>
				<polygon fill="#589D49" points="331.5,129 324,129 324,103.9 				"/>
				<polygon fill="#00954E" points="317.9,129 324,129 324,114.4 				"/>
			</g>
		</g>
		<g>
			<polygon fill="#007C4A" points="327.4,171 338,171 338,146.3 			"/>
			<rect x="335.5" y="159.5" fill="#8C6239" width="3.3" height="28"/>
			<polygon fill="#754C24" points="335.5,187.5 338.8,187.5 335.5,159.5 335.5,159.5 			"/>
			<g>
				<g>
					<polygon fill="#00954E" points="327.4,166 338,166 338,139.7 					"/>
					<polygon fill="#589D49" points="347.3,155 338,155 338,129.6 					"/>
					<polygon fill="#589D49" points="327.4,150 338,150 338,123.9 					"/>
					<polygon fill="#589D49" points="347.3,171 338,171 338,145.9 					"/>
					<polygon fill="#00954E" points="343.4,143 338,143 338,126.1 					"/>
					<polygon fill="#007C4A" points="342.8,157 338,157 338,143.5 					"/>
				</g>
				<polygon fill="#589D49" points="344.8,129 338,129 338,103.9 				"/>
				<polygon fill="#00954E" points="331.1,129 338,129 338,114.4 				"/>
			</g>
		</g>
		<g>
			<polygon fill="#007C4A" points="340.6,171 351,171 351,146.3 			"/>
			<rect x="348.7" y="159.5" fill="#8C6239" width="3.3" height="28"/>
			<polygon fill="#754C24" points="348.7,187.5 352,187.5 348.7,159.5 348.7,159.5 			"/>
			<g>
				<g>
					<polygon fill="#00954E" points="340.6,166 351,166 351,139.7 					"/>
					<polygon fill="#589D49" points="360.5,155 351,155 351,129.6 					"/>
					<polygon fill="#589D49" points="340.6,150 351,150 351,123.9 					"/>
					<polygon fill="#589D49" points="360.6,171 351,171 351,145.9 					"/>
					<polygon fill="#00954E" points="356.6,143 351,143 351,126.1 					"/>
					<polygon fill="#007C4A" points="356,157 351,157 351,143.5 					"/>
				</g>
				<polygon fill="#589D49" points="358,129 351,129 351,103.9 				"/>
				<polygon fill="#00954E" points="344.3,129 351,129 351,114.4 				"/>
			</g>
		</g>
		<g>
			<polygon fill="#007C4A" points="353.8,171 364,171 364,146.3 			"/>
			<rect x="361.9" y="159.5" fill="#8C6239" width="3.3" height="28"/>
			<polygon fill="#754C24" points="361.9,187.5 365.2,187.5 361.9,159.5 361.9,159.5 			"/>
			<g>
				<g>
					<polygon fill="#00954E" points="353.8,166 364,166 364,139.7 					"/>
					<polygon fill="#589D49" points="373.7,155 364,155 364,129.6 					"/>
					<polygon fill="#589D49" points="353.8,150 364,150 364,123.9 					"/>
					<polygon fill="#589D49" points="373.8,171 364,171 364,145.9 					"/>
					<polygon fill="#00954E" points="369.8,143 364,143 364,126.1 					"/>
					<polygon fill="#007C4A" points="369.2,157 364,157 364,143.5 					"/>
				</g>
				<polygon fill="#589D49" points="371.2,129 364,129 364,103.9 				"/>
				<polygon fill="#00954E" points="357.5,129 364,129 364,114.4 				"/>
			</g>
		</g>
		<g>
			<polygon fill="#007C4A" points="367,171 377,171 377,146.3 			"/>
			<rect x="375.1" y="159.5" fill="#8C6239" width="3.3" height="28"/>
			<polygon fill="#754C24" points="375.1,187.5 378.5,187.5 375.1,159.5 375.1,159.5 			"/>
			<g>
				<g>
					<polygon fill="#00954E" points="367,166 377,166 377,139.7 					"/>
					<polygon fill="#589D49" points="387,155 377,155 377,129.6 					"/>
					<polygon fill="#589D49" points="367,150 377,150 377,123.9 					"/>
					<polygon fill="#589D49" points="387,171 377,171 377,145.9 					"/>
					<polygon fill="#00954E" points="383,143 377,143 377,126.1 					"/>
					<polygon fill="#007C4A" points="382.4,157 377,157 377,143.5 					"/>
				</g>
				<polygon fill="#589D49" points="384.4,129 377,129 377,103.9 				"/>
				<polygon fill="#00954E" points="370.7,129 377,129 377,114.4 				"/>
			</g>
		</g>
		<rect x="214.5" y="175.4" fill="#B18A8E" width="158" height="128.8"/>
		<rect x="255.5" y="175.4" fill="#FDF5F3" width="76" height="128.8"/>
		<rect x="214.5" y="174.7" fill="#FDF5F3" width="272.5" height="6.5"/>
		<rect x="100.6" y="62.5" fill="#9C7A7F" width="385.3" height="33.5"/>
		<rect x="100.6" y="57.3" fill="#BD8887" width="385.3" height="5.2"/>
		<rect x="100.6" y="57.3" fill="#BD8887" width="385.3" height="5.2"/>
		<rect x="100.6" y="53.7" fill="#FDF5F3" width="385.3" height="3.6"/>
		<path fill="#876B6F" d="M110.7,98V77.8c0-5.1,4.2-9.3,9.3-9.3c5.1,0,9.3,4.2,9.3,9.3V98H110.7z"/>
		<path fill="#FDF5F3" d="M120,70.5L120,70.5c-4,0-7.3,3.3-7.3,7.3V96h14.5V77.8C127.2,73.8,124,70.5,120,70.5z"/>
		<path fill="#009BBC" d="M116,93V77.8c0-2.4,2.1-4.3,4.5-4.3s4.5,1.9,4.5,4.3V93H116z"/>
		<path fill="#876B6F" d="M132.7,98V77.8c0-5.1,4.2-9.3,9.3-9.3c5.1,0,9.3,4.2,9.3,9.3V98H132.7z"/>
		<path fill="#FDF5F3" d="M142,70.5L142,70.5c-4,0-7.3,3.3-7.3,7.3V96h14.5V77.8C149.2,73.8,146,70.5,142,70.5z"/>
		<path fill="#009BBC" d="M138,93V77.8c0-2.4,2.1-4.3,4.5-4.3s4.5,1.9,4.5,4.3V93H138z"/>
		<path fill="#876B6F" d="M154.7,98V77.8c0-5.1,4.2-9.3,9.3-9.3c5.1,0,9.3,4.2,9.3,9.3V98H154.7z"/>
		<path fill="#FDF5F3" d="M164,70.5L164,70.5c-4,0-7.3,3.3-7.3,7.3V96h14.5V77.8C171.2,73.8,168,70.5,164,70.5z"/>
		<path fill="#009BBC" d="M160,93V77.8c0-2.4,2.1-4.3,4.5-4.3s4.5,1.9,4.5,4.3V93H160z"/>
		<path fill="#876B6F" d="M176.7,98V77.8c0-5.1,4.2-9.3,9.3-9.3c5.1,0,9.3,4.2,9.3,9.3V98H176.7z"/>
		<path fill="#FDF5F3" d="M186,70.5L186,70.5c-4,0-7.3,3.3-7.3,7.3V96h14.5V77.8C193.2,73.8,190,70.5,186,70.5z"/>
		<path fill="#009BBC" d="M182,93V77.8c0-2.4,2.1-4.3,4.5-4.3s4.5,1.9,4.5,4.3V93H182z"/>
		<path fill="#876B6F" d="M198.7,98V77.8c0-5.1,4.2-9.3,9.3-9.3c5.1,0,9.3,4.2,9.3,9.3V98H198.7z"/>
		<path fill="#FDF5F3" d="M208,70.5L208,70.5c-4,0-7.3,3.3-7.3,7.3V96h14.5V77.8C215.2,73.8,212,70.5,208,70.5z"/>
		<path fill="#009BBC" d="M204,93V77.8c0-2.4,2.1-4.3,4.5-4.3s4.5,1.9,4.5,4.3V93H204z"/>
		<path fill="#876B6F" d="M220.7,98V77.8c0-5.1,4.2-9.3,9.3-9.3c5.1,0,9.3,4.2,9.3,9.3V98H220.7z"/>
		<path fill="#FDF5F3" d="M230,70.5L230,70.5c-4,0-7.3,3.3-7.3,7.3V96h14.5V77.8C237.2,73.8,234,70.5,230,70.5z"/>
		<path fill="#009BBC" d="M226,93V77.8c0-2.4,2.1-4.3,4.5-4.3s4.5,1.9,4.5,4.3V93H226z"/>
		<path fill="#876B6F" d="M242.7,98V77.8c0-5.1,4.2-9.3,9.3-9.3c5.1,0,9.3,4.2,9.3,9.3V98H242.7z"/>
		<path fill="#FDF5F3" d="M252,70.5L252,70.5c-4,0-7.3,3.3-7.3,7.3V96h14.5V77.8C259.2,73.8,256,70.5,252,70.5z"/>
		<path fill="#009BBC" d="M248,93V77.8c0-2.4,2.1-4.3,4.5-4.3s4.5,1.9,4.5,4.3V93H248z"/>
		<path fill="#876B6F" d="M264.7,98V77.8c0-5.1,4.2-9.3,9.3-9.3c5.1,0,9.3,4.2,9.3,9.3V98H264.7z"/>
		<path fill="#FDF5F3" d="M274,70.5L274,70.5c-4,0-7.3,3.3-7.3,7.3V96h14.5V77.8C281.2,73.8,278,70.5,274,70.5z"/>
		<path fill="#009BBC" d="M270,93V77.8c0-2.4,2.1-4.3,4.5-4.3s4.5,1.9,4.5,4.3V93H270z"/>
		<path fill="#FDF5F3" d="M296,70.5L296,70.5c-4,0-7.3,3.3-7.3,7.3V96h14.5V77.8C303.2,73.8,300,70.5,296,70.5z"/>
		<path fill="#876B6F" d="M308.7,98V77.8c0-5.1,4.2-9.3,9.3-9.3c5.1,0,9.3,4.2,9.3,9.3V98H308.7z"/>
		<path fill="#FDF5F3" d="M318,70.5L318,70.5c-4,0-7.3,3.3-7.3,7.3V96h14.5V77.8C325.2,73.8,322,70.5,318,70.5z"/>
		<path fill="#009BBC" d="M314,93V77.8c0-2.4,2.1-4.3,4.5-4.3s4.5,1.9,4.5,4.3V93H314z"/>
		<path fill="#876B6F" d="M330.7,98V77.8c0-5.1,4.2-9.3,9.3-9.3c5.1,0,9.3,4.2,9.3,9.3V98H330.7z"/>
		<path fill="#FDF5F3" d="M340,70.5L340,70.5c-4,0-7.3,3.3-7.3,7.3V96h14.5V77.8C347.2,73.8,344,70.5,340,70.5z"/>
		<path fill="#009BBC" d="M336,93V77.8c0-2.4,2.1-4.3,4.5-4.3s4.5,1.9,4.5,4.3V93H336z"/>
		<path fill="#876B6F" d="M352.7,98V77.8c0-5.1,4.2-9.3,9.3-9.3c5.1,0,9.3,4.2,9.3,9.3V98H352.7z"/>
		<path fill="#FDF5F3" d="M362,70.5L362,70.5c-4,0-7.3,3.3-7.3,7.3V96h14.5V77.8C369.2,73.8,366,70.5,362,70.5z"/>
		<path fill="#009BBC" d="M358,93V77.8c0-2.4,2.1-4.3,4.5-4.3s4.5,1.9,4.5,4.3V93H358z"/>
		<path fill="#876B6F" d="M374.7,98V77.8c0-5.1,4.2-9.3,9.3-9.3c5.1,0,9.3,4.2,9.3,9.3V98H374.7z"/>
		<path fill="#FDF5F3" d="M384,70.5L384,70.5c-4,0-7.3,3.3-7.3,7.3V96h14.5V77.8C391.2,73.8,388,70.5,384,70.5z"/>
		<path fill="#009BBC" d="M380,93V77.8c0-2.4,2.1-4.3,4.5-4.3s4.5,1.9,4.5,4.3V93H380z"/>
		<path fill="#876B6F" d="M396.7,98V77.8c0-5.1,4.2-9.3,9.3-9.3c5.1,0,9.3,4.2,9.3,9.3V98H396.7z"/>
		<path fill="#FDF5F3" d="M406,70.5L406,70.5c-4,0-7.3,3.3-7.3,7.3V96h14.5V77.8C413.2,73.8,410,70.5,406,70.5z"/>
		<path fill="#009BBC" d="M402,93V77.8c0-2.4,2.1-4.3,4.5-4.3s4.5,1.9,4.5,4.3V93H402z"/>
		<path fill="#876B6F" d="M418.7,98V77.8c0-5.1,4.2-9.3,9.3-9.3c5.1,0,9.3,4.2,9.3,9.3V98H418.7z"/>
		<path fill="#FDF5F3" d="M428,70.5L428,70.5c-4,0-7.3,3.3-7.3,7.3V96h14.5V77.8C435.2,73.8,432,70.5,428,70.5z"/>
		<path fill="#009BBC" d="M424,93V77.8c0-2.4,2.1-4.3,4.5-4.3s4.5,1.9,4.5,4.3V93H424z"/>
		<path fill="#876B6F" d="M440.7,98V77.8c0-5.1,4.2-9.3,9.3-9.3c5.1,0,9.3,4.2,9.3,9.3V98H440.7z"/>
		<path fill="#FDF5F3" d="M450,70.5L450,70.5c-4,0-7.3,3.3-7.3,7.3V96h14.5V77.8C457.2,73.8,454,70.5,450,70.5z"/>
		<path fill="#009BBC" d="M446,93V77.8c0-2.4,2.1-4.3,4.5-4.3s4.5,1.9,4.5,4.3V93H446z"/>
		<path fill="#876B6F" d="M462.7,98V77.8c0-5.1,4.2-9.3,9.3-9.3c5.1,0,9.3,4.2,9.3,9.3V98H462.7z"/>
		<path fill="#FDF5F3" d="M472,70.5L472,70.5c-4,0-7.3,3.3-7.3,7.3V96h14.5V77.8C479.2,73.8,476,70.5,472,70.5z"/>
		<path fill="#009BBC" d="M468,93V77.8c0-2.4,2.1-4.3,4.5-4.3s4.5,1.9,4.5,4.3V93H468z"/>
		<rect x="100.6" y="96" fill="#9D5A4A" width="385.3" height="10.5"/>
		<polygon fill="#9D5A4A" points="330.5,96 256.6,96 274.1,84.4 312.9,84.4 		"/>
		<rect x="271.5" y="71.9" fill="#CB9EA3" width="44" height="232.3"/>
		<polygon fill="#B99195" points="335.5,65.3 251.6,65.3 271.5,71.9 315.6,71.9 		"/>
		<polygon fill="#9D5A4A" points="322,65.3 265.1,65.3 278.6,71.9 308.5,71.9 		"/>
		<polygon fill="#9D5A4A" points="335.5,41.6 251.6,41.6 271.5,34.9 315.6,34.9 		"/>
		<rect x="287.5" y="71.9" fill="#FDF5F3" width="11.9" height="232.3"/>
		<rect x="278.6" y="84.7" fill="#FDF5F3" width="29.2" height="18.8"/>
		<rect x="280.8" y="88.5" fill="#CB9EA3" width="6.1" height="11.2"/>
		<rect x="299.2" y="88.5" fill="#CB9EA3" width="6.1" height="11.2"/>
		<rect x="250.9" y="41.4" fill="#CB9EA3" width="84.4" height="24.1"/>
		<polygon fill="#9D5A4A" points="322,7 264.4,7 271.5,10.1 315.6,10.1 		"/>
		<polygon fill="#9D5A4A" points="322.5,3.8 265.7,3.8 279.2,0 309,0 		"/>
		<rect x="265.1" y="3.7" fill="#CB9EA3" width="56" height="3.5"/>
		<rect x="270.3" y="10.2" fill="#CB9EA3" width="45.6" height="24.7"/>
		<rect x="278" y="10.2" fill="#FDF5F3" width="30.3" height="24.7"/>
		<rect x="288.4" y="10.2" fill="#CB9EA3" width="9.4" height="24.7"/>
		<g>
			<polygon fill="#007C4A" points="380.2,128 392,128 392,101.4 			"/>
			<rect x="388.9" y="115.3" fill="#8C6239" width="3.5" height="29.7"/>
			<polygon fill="#754C24" points="388.9,145.1 392.4,145.1 388.9,115.3 388.9,115.3 			"/>
			<g>
				<g>
					<polygon fill="#00954E" points="380.2,122 392,122 392,94.4 					"/>
					<polygon fill="#589D49" points="401.4,111 392,111 392,83.6 					"/>
					<polygon fill="#589D49" points="380.2,105 392,105 392,77.6 					"/>
					<polygon fill="#589D49" points="401.4,128 392,128 392,100.9 					"/>
					<polygon fill="#00954E" points="397.2,98 392,98 392,79.9 					"/>
					<polygon fill="#007C4A" points="396.6,113 392,113 392,98.4 					"/>
				</g>
				<polygon fill="#589D49" points="398.7,83 392,83 392,56.4 				"/>
				<polygon fill="#00954E" points="384.2,83 392,83 392,67.5 				"/>
			</g>
		</g>
		<g>
			<polygon fill="#007C4A" points="394.2,128 405,128 405,101.4 			"/>
			<rect x="402.9" y="115.3" fill="#8C6239" width="3.5" height="29.7"/>
			<polygon fill="#754C24" points="402.9,145.1 406.4,145.1 402.9,115.3 402.9,115.3 			"/>
			<g>
				<g>
					<polygon fill="#00954E" points="394.2,122 405,122 405,94.4 					"/>
					<polygon fill="#589D49" points="415.4,111 405,111 405,83.6 					"/>
					<polygon fill="#589D49" points="394.2,105 405,105 405,77.6 					"/>
					<polygon fill="#589D49" points="415.4,128 405,128 405,100.9 					"/>
					<polygon fill="#00954E" points="411.2,98 405,98 405,79.9 					"/>
					<polygon fill="#007C4A" points="410.6,113 405,113 405,98.4 					"/>
				</g>
				<polygon fill="#589D49" points="412.7,83 405,83 405,56.4 				"/>
				<polygon fill="#00954E" points="398.2,83 405,83 405,67.5 				"/>
			</g>
		</g>
		<g>
			<polygon fill="#007C4A" points="408.3,128 419,128 419,101.4 			"/>
			<rect x="416.9" y="115.3" fill="#8C6239" width="3.5" height="29.7"/>
			<polygon fill="#754C24" points="416.9,145.1 420.4,145.1 416.9,115.3 416.9,115.3 			"/>
			<g>
				<g>
					<polygon fill="#00954E" points="408.3,122 419,122 419,94.4 					"/>
					<polygon fill="#589D49" points="429.4,111 419,111 419,83.6 					"/>
					<polygon fill="#589D49" points="408.3,105 419,105 419,77.6 					"/>
					<polygon fill="#589D49" points="429.5,128 419,128 419,100.9 					"/>
					<polygon fill="#00954E" points="425.3,98 419,98 419,79.9 					"/>
					<polygon fill="#007C4A" points="424.6,113 419,113 419,98.4 					"/>
				</g>
				<polygon fill="#589D49" points="426.7,83 419,83 419,56.4 				"/>
				<polygon fill="#00954E" points="412.2,83 419,83 419,67.5 				"/>
			</g>
		</g>
		<g>
			<polygon fill="#007C4A" points="422.3,128 433,128 433,101.4 			"/>
			<rect x="430.9" y="115.3" fill="#8C6239" width="3.5" height="29.7"/>
			<polygon fill="#754C24" points="430.9,145.1 434.4,145.1 430.9,115.3 430.9,115.3 			"/>
			<g>
				<g>
					<polygon fill="#00954E" points="422.3,122 433,122 433,94.4 					"/>
					<polygon fill="#589D49" points="443.4,111 433,111 433,83.6 					"/>
					<polygon fill="#589D49" points="422.3,105 433,105 433,77.6 					"/>
					<polygon fill="#589D49" points="443.5,128 433,128 433,100.9 					"/>
					<polygon fill="#00954E" points="439.3,98 433,98 433,79.9 					"/>
					<polygon fill="#007C4A" points="438.6,113 433,113 433,98.4 					"/>
				</g>
				<polygon fill="#589D49" points="440.7,83 433,83 433,56.4 				"/>
				<polygon fill="#00954E" points="426.2,83 433,83 433,67.5 				"/>
			</g>
		</g>
		<g>
			<polygon fill="#007C4A" points="436.3,128 447,128 447,101.4 			"/>
			<rect x="444.9" y="115.3" fill="#8C6239" width="3.5" height="29.7"/>
			<polygon fill="#754C24" points="444.9,145.1 448.4,145.1 444.9,115.3 444.9,115.3 			"/>
			<g>
				<g>
					<polygon fill="#00954E" points="436.3,122 447,122 447,94.4 					"/>
					<polygon fill="#589D49" points="457.5,111 447,111 447,83.6 					"/>
					<polygon fill="#589D49" points="436.3,105 447,105 447,77.6 					"/>
					<polygon fill="#589D49" points="457.5,128 447,128 447,100.9 					"/>
					<polygon fill="#00954E" points="453.3,98 447,98 447,79.9 					"/>
					<polygon fill="#007C4A" points="452.7,113 447,113 447,98.4 					"/>
				</g>
				<polygon fill="#589D49" points="454.8,83 447,83 447,56.4 				"/>
				<polygon fill="#00954E" points="440.3,83 447,83 447,67.5 				"/>
			</g>
		</g>
		<g>
			<polygon fill="#007C4A" points="450.3,128 462,128 462,101.4 			"/>
			<rect x="459" y="115.3" fill="#8C6239" width="3.5" height="29.7"/>
			<polygon fill="#754C24" points="459,145.1 462.5,145.1 459,115.3 459,115.3 			"/>
			<g>
				<g>
					<polygon fill="#00954E" points="450.3,122 462,122 462,94.4 					"/>
					<polygon fill="#589D49" points="471.5,111 462,111 462,83.6 					"/>
					<polygon fill="#589D49" points="450.3,105 462,105 462,77.6 					"/>
					<polygon fill="#589D49" points="471.5,128 462,128 462,100.9 					"/>
					<polygon fill="#00954E" points="467.3,98 462,98 462,79.9 					"/>
					<polygon fill="#007C4A" points="466.7,113 462,113 462,98.4 					"/>
				</g>
				<polygon fill="#589D49" points="468.8,83 462,83 462,56.4 				"/>
				<polygon fill="#00954E" points="454.3,83 462,83 462,67.5 				"/>
			</g>
		</g>
		<g>
			<polygon fill="#007C4A" points="464.1,128 475,128 475,101.4 			"/>
			<rect x="472.7" y="115.3" fill="#8C6239" width="3.5" height="29.7"/>
			<polygon fill="#754C24" points="472.7,145.1 476.2,145.1 472.7,115.3 472.7,115.3 			"/>
			<g>
				<g>
					<polygon fill="#00954E" points="464.1,122 475,122 475,94.4 					"/>
					<polygon fill="#589D49" points="485.3,111 475,111 475,83.6 					"/>
					<polygon fill="#589D49" points="464.1,105 475,105 475,77.6 					"/>
					<polygon fill="#589D49" points="485.3,128 475,128 475,100.9 					"/>
					<polygon fill="#00954E" points="481.1,98 475,98 475,79.9 					"/>
					<polygon fill="#007C4A" points="480.5,113 475,113 475,98.4 					"/>
				</g>
				<polygon fill="#589D49" points="482.6,83 475,83 475,56.4 				"/>
				<polygon fill="#00954E" points="468.1,83 475,83 475,67.5 				"/>
			</g>
		</g>
	</g>
	<rect x="357.7" y="181" fill="#B18A8E" width="130" height="37.7"/>
	<g>
		<g>
			<rect x="357" y="200.1" fill="#CFA5AA" width="50" height="104.1"/>
			<g>
				<rect x="364.6" y="208.2" fill="#C0999E" width="34.7" height="24.8"/>
				<rect x="367.6" y="211.2" fill="#FFFFFF" width="28.7" height="18.8"/>
				<rect x="379.1" y="207.3" fill="#CFA5AA" width="5.7" height="26.6"/>
				<rect x="364.6" y="239.9" fill="#C0999E" width="34.7" height="24.8"/>
				<rect x="367.6" y="242.9" fill="#FFFFFF" width="28.7" height="18.8"/>
				<rect x="379.1" y="239" fill="#CFA5AA" width="5.7" height="26.6"/>
				<rect x="364.6" y="271.6" fill="#C0999E" width="34.7" height="24.8"/>
				<rect x="367.6" y="274.6" fill="#FFFFFF" width="28.7" height="18.8"/>
				<rect x="379.1" y="270.7" fill="#CFA5AA" width="5.7" height="26.6"/>
			</g>
		</g>
		<g>
			<rect x="407.7" y="200.1" fill="#CFA5AA" width="50" height="104.1"/>
			<g>
				<rect x="415.3" y="208.2" fill="#C0999E" width="34.7" height="24.8"/>
				<rect x="418.3" y="211.2" fill="#FFFFFF" width="28.7" height="18.8"/>
				<rect x="429.8" y="207.3" fill="#CFA5AA" width="5.7" height="26.6"/>
				<rect x="415.3" y="239.9" fill="#C0999E" width="34.7" height="24.8"/>
				<rect x="418.3" y="242.9" fill="#FFFFFF" width="28.7" height="18.8"/>
				<rect x="429.8" y="239" fill="#CFA5AA" width="5.7" height="26.6"/>
				<rect x="415.3" y="271.6" fill="#C0999E" width="34.7" height="24.8"/>
				<rect x="418.3" y="274.6" fill="#FFFFFF" width="28.7" height="18.8"/>
				<rect x="429.8" y="270.7" fill="#CFA5AA" width="5.7" height="26.6"/>
			</g>
		</g>
		<g>
			<rect x="458.4" y="200.1" fill="#CFA5AA" width="50" height="104.1"/>
			<g>
				<rect x="466.1" y="208.2" fill="#C0999E" width="34.7" height="24.8"/>
				<rect x="469.1" y="211.2" fill="#FFFFFF" width="28.7" height="18.8"/>
				<rect x="480.6" y="207.3" fill="#CFA5AA" width="5.7" height="26.6"/>
				<rect x="466.1" y="239.9" fill="#C0999E" width="34.7" height="24.8"/>
				<rect x="469.1" y="242.9" fill="#FFFFFF" width="28.7" height="18.8"/>
				<rect x="480.6" y="239" fill="#CFA5AA" width="5.7" height="26.6"/>
				<rect x="466.1" y="271.6" fill="#C0999E" width="34.7" height="24.8"/>
				<rect x="469.1" y="274.6" fill="#FFFFFF" width="28.7" height="18.8"/>
				<rect x="480.6" y="270.7" fill="#CFA5AA" width="5.7" height="26.6"/>
			</g>
		</g>
	</g>
	<g>
		<g>
			<polygon fill="#007C4A" points="62.1,200 72,200 72,175.3 			"/>
			<rect x="70.3" y="188.5" fill="#8C6239" width="3.3" height="28"/>
			<polygon fill="#754C24" points="70.3,216.5 73.6,216.5 70.3,188.5 70.3,188.5 			"/>
			<g>
				<g>
					<polygon fill="#00954E" points="62.1,195 72,195 72,168.7 					"/>
					<polygon fill="#589D49" points="82.1,184 72,184 72,158.6 					"/>
					<polygon fill="#589D49" points="62.1,179 72,179 72,152.9 					"/>
					<polygon fill="#589D49" points="82.1,200 72,200 72,174.9 					"/>
					<polygon fill="#00954E" points="78.2,172 72,172 72,155.1 					"/>
					<polygon fill="#007C4A" points="77.6,186 72,186 72,172.5 					"/>
				</g>
				<polygon fill="#589D49" points="79.5,158 72,158 72,132.9 				"/>
				<polygon fill="#00954E" points="65.9,158 72,158 72,143.4 				"/>
			</g>
		</g>
		<g>
			<polygon fill="#007C4A" points="75.4,200 86,200 86,175.3 			"/>
			<rect x="83.5" y="188.5" fill="#8C6239" width="3.3" height="28"/>
			<polygon fill="#754C24" points="83.5,216.5 86.8,216.5 83.5,188.5 83.5,188.5 			"/>
			<g>
				<g>
					<polygon fill="#00954E" points="75.4,195 86,195 86,168.7 					"/>
					<polygon fill="#589D49" points="95.3,184 86,184 86,158.6 					"/>
					<polygon fill="#589D49" points="75.4,179 86,179 86,152.9 					"/>
					<polygon fill="#589D49" points="95.3,200 86,200 86,174.9 					"/>
					<polygon fill="#00954E" points="91.4,172 86,172 86,155.1 					"/>
					<polygon fill="#007C4A" points="90.8,186 86,186 86,172.5 					"/>
				</g>
				<polygon fill="#589D49" points="92.8,158 86,158 86,132.9 				"/>
				<polygon fill="#00954E" points="79.1,158 86,158 86,143.4 				"/>
			</g>
		</g>
		<g>
			<polygon fill="#007C4A" points="88.6,200 99,200 99,175.3 			"/>
			<rect x="96.7" y="188.5" fill="#8C6239" width="3.3" height="28"/>
			<polygon fill="#754C24" points="96.7,216.5 100,216.5 96.7,188.5 96.7,188.5 			"/>
			<g>
				<g>
					<polygon fill="#00954E" points="88.6,195 99,195 99,168.7 					"/>
					<polygon fill="#589D49" points="108.5,184 99,184 99,158.6 					"/>
					<polygon fill="#589D49" points="88.6,179 99,179 99,152.9 					"/>
					<polygon fill="#589D49" points="108.6,200 99,200 99,174.9 					"/>
					<polygon fill="#00954E" points="104.6,172 99,172 99,155.1 					"/>
					<polygon fill="#007C4A" points="104,186 99,186 99,172.5 					"/>
				</g>
				<polygon fill="#589D49" points="106,158 99,158 99,132.9 				"/>
				<polygon fill="#00954E" points="92.3,158 99,158 99,143.4 				"/>
			</g>
		</g>
		<g>
			<polygon fill="#007C4A" points="101.8,200 112,200 112,175.3 			"/>
			<rect x="109.9" y="188.5" fill="#8C6239" width="3.3" height="28"/>
			<polygon fill="#754C24" points="109.9,216.5 113.2,216.5 109.9,188.5 109.9,188.5 			"/>
			<g>
				<g>
					<polygon fill="#00954E" points="101.8,195 112,195 112,168.7 					"/>
					<polygon fill="#589D49" points="121.7,184 112,184 112,158.6 					"/>
					<polygon fill="#589D49" points="101.8,179 112,179 112,152.9 					"/>
					<polygon fill="#589D49" points="121.8,200 112,200 112,174.9 					"/>
					<polygon fill="#00954E" points="117.8,172 112,172 112,155.1 					"/>
					<polygon fill="#007C4A" points="117.2,186 112,186 112,172.5 					"/>
				</g>
				<polygon fill="#589D49" points="119.2,158 112,158 112,132.9 				"/>
				<polygon fill="#00954E" points="105.5,158 112,158 112,143.4 				"/>
			</g>
		</g>
		<g>
			<polygon fill="#007C4A" points="115,200 125,200 125,175.3 			"/>
			<rect x="123.1" y="188.5" fill="#8C6239" width="3.3" height="28"/>
			<polygon fill="#754C24" points="123.1,216.5 126.5,216.5 123.1,188.5 123.1,188.5 			"/>
			<g>
				<g>
					<polygon fill="#00954E" points="115,195 125,195 125,168.7 					"/>
					<polygon fill="#589D49" points="135,184 125,184 125,158.6 					"/>
					<polygon fill="#589D49" points="115,179 125,179 125,152.9 					"/>
					<polygon fill="#589D49" points="135,200 125,200 125,174.9 					"/>
					<polygon fill="#00954E" points="131,172 125,172 125,155.1 					"/>
					<polygon fill="#007C4A" points="130.4,186 125,186 125,172.5 					"/>
				</g>
				<polygon fill="#589D49" points="132.4,158 125,158 125,132.9 				"/>
				<polygon fill="#00954E" points="118.7,158 125,158 125,143.4 				"/>
			</g>
		</g>
		<g>
			<polygon fill="#007C4A" points="128.2,200 139,200 139,175.3 			"/>
			<rect x="136.4" y="188.5" fill="#8C6239" width="3.3" height="28"/>
			<polygon fill="#754C24" points="136.4,216.5 139.7,216.5 136.4,188.5 136.4,188.5 			"/>
			<g>
				<g>
					<polygon fill="#00954E" points="128.2,195 139,195 139,168.7 					"/>
					<polygon fill="#589D49" points="148.2,184 139,184 139,158.6 					"/>
					<polygon fill="#589D49" points="128.2,179 139,179 139,152.9 					"/>
					<polygon fill="#589D49" points="148.2,200 139,200 139,174.9 					"/>
					<polygon fill="#00954E" points="144.3,172 139,172 139,155.1 					"/>
					<polygon fill="#007C4A" points="143.7,186 139,186 139,172.5 					"/>
				</g>
				<polygon fill="#589D49" points="145.6,158 139,158 139,132.9 				"/>
				<polygon fill="#00954E" points="132,158 139,158 139,143.4 				"/>
			</g>
		</g>
		<g>
			<polygon fill="#007C4A" points="141.4,200 152,200 152,175.3 			"/>
			<rect x="149.6" y="188.5" fill="#8C6239" width="3.3" height="28"/>
			<polygon fill="#754C24" points="149.6,216.5 152.9,216.5 149.6,188.5 149.6,188.5 			"/>
			<g>
				<g>
					<polygon fill="#00954E" points="141.4,195 152,195 152,168.7 					"/>
					<polygon fill="#589D49" points="161.4,184 152,184 152,158.6 					"/>
					<polygon fill="#589D49" points="141.4,179 152,179 152,152.9 					"/>
					<polygon fill="#589D49" points="161.4,200 152,200 152,174.9 					"/>
					<polygon fill="#00954E" points="157.5,172 152,172 152,155.1 					"/>
					<polygon fill="#007C4A" points="156.9,186 152,186 152,172.5 					"/>
				</g>
				<polygon fill="#589D49" points="158.8,158 152,158 152,132.9 				"/>
				<polygon fill="#00954E" points="145.2,158 152,158 152,143.4 				"/>
			</g>
		</g>
		<g>
			<polygon fill="#007C4A" points="154.7,200 165,200 165,175.3 			"/>
			<rect x="162.8" y="188.5" fill="#8C6239" width="3.3" height="28"/>
			<polygon fill="#754C24" points="162.8,216.5 166.1,216.5 162.8,188.5 162.8,188.5 			"/>
			<g>
				<g>
					<polygon fill="#00954E" points="154.7,195 165,195 165,168.7 					"/>
					<polygon fill="#589D49" points="174.6,184 165,184 165,158.6 					"/>
					<polygon fill="#589D49" points="154.7,179 165,179 165,152.9 					"/>
					<polygon fill="#589D49" points="174.6,200 165,200 165,174.9 					"/>
					<polygon fill="#00954E" points="170.7,172 165,172 165,155.1 					"/>
					<polygon fill="#007C4A" points="170.1,186 165,186 165,172.5 					"/>
				</g>
				<polygon fill="#589D49" points="172.1,158 165,158 165,132.9 				"/>
				<polygon fill="#00954E" points="158.4,158 165,158 165,143.4 				"/>
			</g>
		</g>
		<g>
			<polygon fill="#007C4A" points="167.9,200 178,200 178,175.3 			"/>
			<rect x="176" y="188.5" fill="#8C6239" width="3.3" height="28"/>
			<polygon fill="#754C24" points="176,216.5 179.3,216.5 176,188.5 176,188.5 			"/>
			<g>
				<g>
					<polygon fill="#00954E" points="167.9,195 178,195 178,168.7 					"/>
					<polygon fill="#589D49" points="187.8,184 178,184 178,158.6 					"/>
					<polygon fill="#589D49" points="167.9,179 178,179 178,152.9 					"/>
					<polygon fill="#589D49" points="187.9,200 178,200 178,174.9 					"/>
					<polygon fill="#00954E" points="183.9,172 178,172 178,155.1 					"/>
					<polygon fill="#007C4A" points="183.3,186 178,186 178,172.5 					"/>
				</g>
				<polygon fill="#589D49" points="185.3,158 178,158 178,132.9 				"/>
				<polygon fill="#00954E" points="171.6,158 178,158 178,143.4 				"/>
			</g>
		</g>
		<g>
			<polygon fill="#007C4A" points="181.1,200 191,200 191,175.3 			"/>
			<rect x="189.2" y="188.5" fill="#8C6239" width="3.3" height="28"/>
			<polygon fill="#754C24" points="189.2,216.5 192.5,216.5 189.2,188.5 189.2,188.5 			"/>
			<g>
				<g>
					<polygon fill="#00954E" points="181.1,195 191,195 191,168.7 					"/>
					<polygon fill="#589D49" points="201.1,184 191,184 191,158.6 					"/>
					<polygon fill="#589D49" points="181.1,179 191,179 191,152.9 					"/>
					<polygon fill="#589D49" points="201.1,200 191,200 191,174.9 					"/>
					<polygon fill="#00954E" points="197.1,172 191,172 191,155.1 					"/>
					<polygon fill="#007C4A" points="196.5,186 191,186 191,172.5 					"/>
				</g>
				<polygon fill="#589D49" points="198.5,158 191,158 191,132.9 				"/>
				<polygon fill="#00954E" points="184.8,158 191,158 191,143.4 				"/>
			</g>
		</g>
		<g>
			<polygon fill="#007C4A" points="194.3,200 205,200 205,175.3 			"/>
			<rect x="202.5" y="188.5" fill="#8C6239" width="3.3" height="28"/>
			<polygon fill="#754C24" points="202.5,216.5 205.8,216.5 202.5,188.5 202.5,188.5 			"/>
			<g>
				<g>
					<polygon fill="#00954E" points="194.3,195 205,195 205,168.7 					"/>
					<polygon fill="#589D49" points="214.3,184 205,184 205,158.6 					"/>
					<polygon fill="#589D49" points="194.3,179 205,179 205,152.9 					"/>
					<polygon fill="#589D49" points="214.3,200 205,200 205,174.9 					"/>
					<polygon fill="#00954E" points="210.3,172 205,172 205,155.1 					"/>
					<polygon fill="#007C4A" points="209.7,186 205,186 205,172.5 					"/>
				</g>
				<polygon fill="#589D49" points="211.7,158 205,158 205,132.9 				"/>
				<polygon fill="#00954E" points="198,158 205,158 205,143.4 				"/>
			</g>
		</g>
		<g>
			<rect x="62" y="200.1" fill="#CFA5AA" width="50" height="104.1"/>
			<g>
				<rect x="69.6" y="208.2" fill="#C0999E" width="34.7" height="24.8"/>
				<rect x="72.6" y="211.2" fill="#FFFFFF" width="28.7" height="18.8"/>
				<rect x="84.1" y="207.3" fill="#CFA5AA" width="5.7" height="26.6"/>
				<rect x="69.6" y="239.9" fill="#C0999E" width="34.7" height="24.8"/>
				<rect x="72.6" y="242.9" fill="#FFFFFF" width="28.7" height="18.8"/>
				<rect x="84.1" y="239" fill="#CFA5AA" width="5.7" height="26.6"/>
				<rect x="69.6" y="271.6" fill="#C0999E" width="34.7" height="24.8"/>
				<rect x="72.6" y="274.6" fill="#FFFFFF" width="28.7" height="18.8"/>
				<rect x="84.1" y="270.7" fill="#CFA5AA" width="5.7" height="26.6"/>
			</g>
		</g>
		<g>
			<rect x="112.7" y="200.1" fill="#CFA5AA" width="50" height="104.1"/>
			<g>
				<rect x="120.3" y="208.2" fill="#C0999E" width="34.7" height="24.8"/>
				<rect x="123.3" y="211.2" fill="#FFFFFF" width="28.7" height="18.8"/>
				<rect x="134.8" y="207.3" fill="#CFA5AA" width="5.7" height="26.6"/>
				<rect x="120.3" y="239.9" fill="#C0999E" width="34.7" height="24.8"/>
				<rect x="123.3" y="242.9" fill="#FFFFFF" width="28.7" height="18.8"/>
				<rect x="134.8" y="239" fill="#CFA5AA" width="5.7" height="26.6"/>
				<rect x="120.3" y="271.6" fill="#C0999E" width="34.7" height="24.8"/>
				<rect x="123.3" y="274.6" fill="#FFFFFF" width="28.7" height="18.8"/>
				<rect x="134.8" y="270.7" fill="#CFA5AA" width="5.7" height="26.6"/>
			</g>
		</g>
		<g>
			<rect x="163.4" y="200.1" fill="#CFA5AA" width="50" height="104.1"/>
			<g>
				<rect x="171.1" y="208.2" fill="#C0999E" width="34.7" height="24.8"/>
				<rect x="174.1" y="211.2" fill="#FFFFFF" width="28.7" height="18.8"/>
				<rect x="185.6" y="207.3" fill="#CFA5AA" width="5.7" height="26.6"/>
				<rect x="171.1" y="239.9" fill="#C0999E" width="34.7" height="24.8"/>
				<rect x="174.1" y="242.9" fill="#FFFFFF" width="28.7" height="18.8"/>
				<rect x="185.6" y="239" fill="#CFA5AA" width="5.7" height="26.6"/>
				<rect x="171.1" y="271.6" fill="#C0999E" width="34.7" height="24.8"/>
				<rect x="174.1" y="274.6" fill="#FFFFFF" width="28.7" height="18.8"/>
				<rect x="185.6" y="270.7" fill="#CFA5AA" width="5.7" height="26.6"/>
			</g>
		</g>
	</g>
	<path fill="#E0E0E0" d="M186,129.8v0.5c0,2.6-2.4,4.7-4.9,4.7H71.9c-2.6,0-3.9-2.1-3.9-4.7v-0.5c0-2.6,1.7-4.7,4.3-4.7
		c1.3,0,2.5-0.5,3.3-1.4c0.8-0.8,1.4-2,1.4-3.3V120c0-2.6-2.5-5-5.1-5H52.4c-2.6,0-4.4-1.8-4.4-4.4v-0.5c0-2.6,1.9-5.1,4.4-5.1h29.8
		c2.6,0,4.8-1.6,4.8-4.2v-0.7c0-2.6-2.2-5.1-4.8-5.1H4.3C1.8,95,0,93.4,0,90.8v-0.5C0,87.7,1.8,86,4.3,86H101v9.6
		c-2,0.5-4,2.3-4,4.6v0.7c0,2.6,2.1,4.2,4.7,4.2h10.5c2.6,0,4.8,2.5,4.8,5.1v0.5c0,2.6-2.2,4.4-4.8,4.4h-0.8c-2.6,0-4.4,2.4-4.4,5
		v0.5c0,2.6,1.8,4.5,4.4,4.5h69.7C183.6,125,186,127.2,186,129.8z"/>
	<rect x="378.9" y="130" fill="#FDF5F3" width="108" height="45"/>
	<rect x="385.4" y="137" fill="#B2B3B4" width="95" height="34.8"/>
	<g>
		<rect x="399.4" y="137" fill="#FDF5F3" width="5" height="34.8"/>
		<rect x="420.1" y="137" fill="#FDF5F3" width="5" height="34.8"/>
		<rect x="440.7" y="137" fill="#FDF5F3" width="5" height="34.8"/>
		<rect x="461.4" y="137" fill="#FDF5F3" width="5" height="34.8"/>
	</g>
	<path fill="#E0E0E0" d="M408,154.2v0.5c0,2.6,1.7,4.3,4.3,4.3h109.2c2.6,0,4.5-1.7,4.5-4.3v-0.5c0-2.6-2-4.7-4.6-4.7
		c-1.3,0-2.3-0.5-3.2-1.4c-0.8-0.8-1.2-2-1.2-3.3v-0.5c0-0.1-0.2-0.4-0.1-0.4h-30.2c0,0,0.4,0.3,0.4,0.4v0.5c0,2.6-2.4,5.1-5,5.1
		h-69.7C409.7,150,408,151.6,408,154.2z"/>
</g>
</svg>
