<?xml version="1.0" encoding="utf-8"?>
<!-- Generator: Adobe Illustrator 18.0.0, SVG Export Plug-In . SVG Version: 6.00 Build 0)  -->
<!DOCTYPE svg PUBLIC "-//W3C//DTD SVG 1.1//EN" "http://www.w3.org/Graphics/SVG/1.1/DTD/svg11.dtd">
<svg version="1.1" id="Layer_1" xmlns="http://www.w3.org/2000/svg" xmlns:xlink="http://www.w3.org/1999/xlink" x="0px" y="0px"
	 viewBox="0 0 598.8 360" enable-background="new 0 0 598.8 360" xml:space="preserve">
<g>
	<ellipse fill="#0080AE" cx="300.8" cy="289.5" rx="252" ry="70.5"/>
	<g>
		<path fill="#006F37" d="M552.8,289.5c0,1.8-0.3,3.7-0.8,5.5c-10-36.4-118.7-65-251.3-65S59.6,258.6,49.5,295
			c-0.5-1.8-0.8-3.7-0.8-5.5c0-38.9,112.8-70.5,252-70.5S552.8,250.6,552.8,289.5z"/>
		<g>
			<path fill="#006F37" d="M249.4,46.2H115.3c-4.1,0-7.4,3.3-7.4,7.4v211.4h148.9V53.6C256.8,49.5,253.5,46.2,249.4,46.2z"/>
			<path fill="#CADEF3" d="M230.2,46.2h-95.7c-5.1,0-9.2,4.1-9.2,9.2V319h114.2V55.4C239.5,50.3,235.3,46.2,230.2,46.2z"/>
			<path fill="#51AFE2" d="M216.4,171.7h-0.6c-2.5,0-4.5,2-4.5,4.5v10c0,2.5-2,4.5-4.5,4.5h-0.5c-2.5,0-4.5-2-4.5-4.5v-67.5
				c0-2.5,2-4.5,4.5-4.5h0.5c2.5,0,4.5,2,4.5,4.5v38.7c0,2.5,2,4.5,4.5,4.5h0.6c2.5,0,4.5-2,4.5-4.5v-10.2c0-2.5,2-4.5,4.5-4.5h0.5
				c2.5,0,4.5,2,4.5,4.5v0.8c0,2.5,2,4.5,4.5,4.5h0.5c2.5,0,4.5-2,4.5-4.5v-10.4c0-2.5,2-4.5,4.5-4.5h0.5c2.5,0,4.5,2,4.5,4.5v48.6
				c0,2.5-2,4.5-4.5,4.5h-0.5c-2.5,0-4.5-2-4.5-4.5v0c0-2.5-2-4.5-4.5-4.5H235c-2.5,0-4.5,2-4.5,4.5v9.6c0,2.5-2,4.5-4.5,4.5h-0.5
				c-2.5,0-4.5-2-4.5-4.5v-19.6C220.9,173.7,218.9,171.7,216.4,171.7z"/>
			<path fill="#A7D0EF" d="M215.8,200.2h0.4c2.5,0,4.6-2.1,4.6-4.6v0c0-2.5,2.1-4.6,4.6-4.6h0.5c2.5,0,4.6,2.1,4.6,4.6v29.2
				c0,2.5-2.1,4.6-4.6,4.6h-0.5c-2.5,0-4.6-2.1-4.6-4.6v-0.5c0-2.5-2.1-4.6-4.6-4.6h-0.4c-2.5,0-4.6,2.1-4.6,4.6v19.6
				c0,2.5-2.1,4.6-4.6,4.6h-0.5c-2.5,0-4.6-2.1-4.6-4.6v-68c0-2.5,2.1-4.6,4.6-4.6h0.5c2.5,0,4.6,2.1,4.6,4.6v19.6
				C211.2,198.1,213.2,200.2,215.8,200.2z"/>
			<path fill="#82BFE8" d="M178.1,191.7h-0.4c-2.5,0-4.6-2.1-4.6-4.6v0c0-2.5-2.1-4.6-4.6-4.6H168c-2.5,0-4.6,2.1-4.6,4.6v29.2
				c0,2.5,2.1,4.6,4.6,4.6h0.5c2.5,0,4.6-2.1,4.6-4.6v-0.5c0-2.5,2.1-4.6,4.6-4.6h0.4c2.5,0,4.6,2.1,4.6,4.6v19.6
				c0,2.5,2.1,4.6,4.6,4.6h0.5c2.5,0,4.6-2.1,4.6-4.6v-68c0-2.5-2.1-4.6-4.6-4.6h-0.5c-2.5,0-4.6,2.1-4.6,4.6v19.6
				C182.7,189.7,180.6,191.7,178.1,191.7z"/>
			<path fill="#A7D0EF" d="M234.7,257.3h-0.4c-2.5,0-4.6-2.1-4.6-4.6v0c0-2.5-2.1-4.6-4.6-4.6h-0.5c-2.5,0-4.6,2.1-4.6,4.6v29.2
				c0,2.5,2.1,4.6,4.6,4.6h0.5c2.5,0,4.6-2.1,4.6-4.6v-0.5c0-2.5,2.1-4.6,4.6-4.6h0.4c2.5,0,4.6,2.1,4.6,4.6V301
				c0,2.5,2.1,4.6,4.6,4.6h0.5c2.5,0,4.6-2.1,4.6-4.6v-68c0-2.5-2.1-4.6-4.6-4.6h-0.5c-2.5,0-4.6,2.1-4.6,4.6v19.6
				C239.3,255.2,237.2,257.3,234.7,257.3z"/>
			<path fill="#82BFE8" d="M158.4,270.4h0.6c2.5,0,4.5,2,4.5,4.5v20.4c0,2.5,2,4.5,4.5,4.5h0.5c2.5,0,4.5-2,4.5-4.5v-77.9
				c0-2.5-2-4.5-4.5-4.5h-0.5c-2.5,0-4.5,2-4.5,4.5v38.7c0,2.5-2,4.5-4.5,4.5h-0.6c-2.5,0-4.5-2-4.5-4.5v-10.2c0-2.5-2-4.5-4.5-4.5
				h-0.5c-2.5,0-4.5,2-4.5,4.5v0.8c0,2.5-2,4.5-4.5,4.5h-0.5c-2.5,0-4.5-2-4.5-4.5v-10.4c0-2.5-2-4.5-4.5-4.5h-0.5
				c-2.5,0-4.5,2-4.5,4.5V285c0,2.5,2,4.5,4.5,4.5h0.5c2.5,0,4.5-2,4.5-4.5l0,0c0-2.5,2-4.5,4.5-4.5h0.5c2.5,0,4.5,2,4.5,4.5v9.6
				c0,2.5,2,4.5,4.5,4.5h0.5c2.5,0,4.5-2,4.5-4.5v-19.6C153.9,272.4,155.9,270.4,158.4,270.4z"/>
			<path fill="#82BFE8" d="M206.3,237.8h-0.6c-2.5,0-4.5-2-4.5-4.5l0,0c0-2.5-2-4.5-4.5-4.5h-0.6c-2.5,0-4.5,2-4.5,4.5V272
				c0,2.5,2,4.5,4.5,4.5h0.6c2.5,0,4.5-2,4.5-4.5v-10c0-2.5,2-4.5,4.5-4.5h0.6c2.5,0,4.5,2,4.5,4.5v0.1c0,2.5,2,4.5,4.5,4.5h0.6
				c2.5,0,4.5-2,4.5-4.5v-38.7c0-2.5-2-4.5-4.5-4.5h-0.6c-2.5,0-4.5,2-4.5,4.5v10C210.8,235.7,208.8,237.8,206.3,237.8z"/>
			<path fill="#82BFE8" d="M158.4,105.1h0.6c2.5,0,4.5-2,4.5-4.5V80.2c0-2.5,2-4.5,4.5-4.5h0.5c2.5,0,4.5,2,4.5,4.5v77.9
				c0,2.5-2,4.5-4.5,4.5h-0.5c-2.5,0-4.5-2-4.5-4.5v-38.7c0-2.5-2-4.5-4.5-4.5h-0.6c-2.5,0-4.5,2-4.5,4.5v10.2c0,2.5-2,4.5-4.5,4.5
				h-0.5c-2.5,0-4.5-2-4.5-4.5v-0.8c0-2.5-2-4.5-4.5-4.5h-0.5c-2.5,0-4.5,2-4.5,4.5v10.4c0,2.5-2,4.5-4.5,4.5h-0.5
				c-2.5,0-4.5-2-4.5-4.5V90.5c0-2.5,2-4.5,4.5-4.5h0.5c2.5,0,4.5,2,4.5,4.5v0c0,2.5,2,4.5,4.5,4.5h0.5c2.5,0,4.5-2,4.5-4.5v-9.6
				c0-2.5,2-4.5,4.5-4.5h0.5c2.5,0,4.5,2,4.5,4.5v19.6C153.9,103.1,155.9,105.1,158.4,105.1z"/>
			<path fill="#A7D0EF" d="M187.2,64.7h0.6c2.5,0,4.5-2,4.5-4.5v-10c0-2.5,2-4.5,4.5-4.5h0.5c2.5,0,4.5,2,4.5,4.5v67.5
				c0,2.5-2,4.5-4.5,4.5h-0.5c-2.5,0-4.5-2-4.5-4.5V79c0-2.5-2-4.5-4.5-4.5h-0.6c-2.5,0-4.5,2-4.5,4.5v10.2c0,2.5-2,4.5-4.5,4.5
				h-0.5c-2.5,0-4.5-2-4.5-4.5v-0.8c0-2.5-2-4.5-4.5-4.5h-0.5c-2.5,0-4.5,2-4.5,4.5v10.4c0,2.5-2,4.5-4.5,4.5h-0.5
				c-2.5,0-4.5-2-4.5-4.5V50.2c0-2.5,2-4.5,4.5-4.5h0.5c2.5,0,4.5,2,4.5,4.5v0c0,2.5,2,4.5,4.5,4.5h0.5c2.5,0,4.5-2,4.5-4.5v-9.6
				c0-2.5,2-4.5,4.5-4.5h0.5c2.5,0,4.5,2,4.5,4.5v19.6C182.7,62.7,184.7,64.7,187.2,64.7z"/>
			<path fill="#51AFE2" d="M149,151.2h0.6c2.5,0,4.5-2,4.5-4.5v-10c0-2.5,2-4.5,4.5-4.5h0.5c2.5,0,4.5,2,4.5,4.5v67.5
				c0,2.5-2,4.5-4.5,4.5h-0.5c-2.5,0-4.5-2-4.5-4.5v-38.7c0-2.5-2-4.5-4.5-4.5H149c-2.5,0-4.5,2-4.5,4.5v10.2c0,2.5-2,4.5-4.5,4.5
				h-0.5c-2.5,0-4.5-2-4.5-4.5v-0.8c0-2.5-2-4.5-4.5-4.5H130c-2.5,0-4.5,2-4.5,4.5v10.4c0,2.5-2,4.5-4.5,4.5h-0.5
				c-2.5,0-4.5-2-4.5-4.5v-48.6c0-2.5,2-4.5,4.5-4.5h0.5c2.5,0,4.5,2,4.5,4.5v0c0,2.5,2,4.5,4.5,4.5h0.5c2.5,0,4.5-2,4.5-4.5V127
				c0-2.5,2-4.5,4.5-4.5h0.5c2.5,0,4.5,2,4.5,4.5v19.6C144.5,149.2,146.5,151.2,149,151.2z"/>
		</g>
		<g>
			<path fill="#006F37" d="M471.4,46.2H337.3c-4.1,0-7.4,3.3-7.4,7.4v211.4h148.9V53.6C478.8,49.5,475.5,46.2,471.4,46.2z"/>
			<path fill="#CADEF3" d="M452.2,46.2h-95.7c-5.1,0-9.2,4.1-9.2,9.2V319h114.2V55.4C461.5,50.3,457.3,46.2,452.2,46.2z"/>
			<path fill="#51AFE2" d="M438.4,171.7h-0.6c-2.5,0-4.5,2-4.5,4.5v10c0,2.5-2,4.5-4.5,4.5h-0.5c-2.5,0-4.5-2-4.5-4.5v-67.5
				c0-2.5,2-4.5,4.5-4.5h0.5c2.5,0,4.5,2,4.5,4.5v38.7c0,2.5,2,4.5,4.5,4.5h0.6c2.5,0,4.5-2,4.5-4.5v-10.2c0-2.5,2-4.5,4.5-4.5h0.5
				c2.5,0,4.5,2,4.5,4.5v0.8c0,2.5,2,4.5,4.5,4.5h0.5c2.5,0,4.5-2,4.5-4.5v-10.4c0-2.5,2-4.5,4.5-4.5h0.5c2.5,0,4.5,2,4.5,4.5v48.6
				c0,2.5-2,4.5-4.5,4.5h-0.5c-2.5,0-4.5-2-4.5-4.5v0c0-2.5-2-4.5-4.5-4.5H457c-2.5,0-4.5,2-4.5,4.5v9.6c0,2.5-2,4.5-4.5,4.5h-0.5
				c-2.5,0-4.5-2-4.5-4.5v-19.6C442.9,173.7,440.9,171.7,438.4,171.7z"/>
			<path fill="#A7D0EF" d="M437.8,200.2h0.4c2.5,0,4.6-2.1,4.6-4.6v0c0-2.5,2.1-4.6,4.6-4.6h0.5c2.5,0,4.6,2.1,4.6,4.6v29.2
				c0,2.5-2.1,4.6-4.6,4.6h-0.5c-2.5,0-4.6-2.1-4.6-4.6v-0.5c0-2.5-2.1-4.6-4.6-4.6h-0.4c-2.5,0-4.6,2.1-4.6,4.6v19.6
				c0,2.5-2.1,4.6-4.6,4.6h-0.5c-2.5,0-4.6-2.1-4.6-4.6v-68c0-2.5,2.1-4.6,4.6-4.6h0.5c2.5,0,4.6,2.1,4.6,4.6v19.6
				C433.2,198.1,435.2,200.2,437.8,200.2z"/>
			<path fill="#82BFE8" d="M400.1,191.7h-0.4c-2.5,0-4.6-2.1-4.6-4.6v0c0-2.5-2.1-4.6-4.6-4.6H390c-2.5,0-4.6,2.1-4.6,4.6v29.2
				c0,2.5,2.1,4.6,4.6,4.6h0.5c2.5,0,4.6-2.1,4.6-4.6v-0.5c0-2.5,2.1-4.6,4.6-4.6h0.4c2.5,0,4.6,2.1,4.6,4.6v19.6
				c0,2.5,2.1,4.6,4.6,4.6h0.5c2.5,0,4.6-2.1,4.6-4.6v-68c0-2.5-2.1-4.6-4.6-4.6h-0.5c-2.5,0-4.6,2.1-4.6,4.6v19.6
				C404.7,189.7,402.6,191.7,400.1,191.7z"/>
			<path fill="#A7D0EF" d="M456.7,257.3h-0.4c-2.5,0-4.6-2.1-4.6-4.6v0c0-2.5-2.1-4.6-4.6-4.6h-0.5c-2.5,0-4.6,2.1-4.6,4.6v29.2
				c0,2.5,2.1,4.6,4.6,4.6h0.5c2.5,0,4.6-2.1,4.6-4.6v-0.5c0-2.5,2.1-4.6,4.6-4.6h0.4c2.5,0,4.6,2.1,4.6,4.6V301
				c0,2.5,2.1,4.6,4.6,4.6h0.5c2.5,0,4.6-2.1,4.6-4.6v-68c0-2.5-2.1-4.6-4.6-4.6h-0.5c-2.5,0-4.6,2.1-4.6,4.6v19.6
				C461.3,255.2,459.2,257.3,456.7,257.3z"/>
			<path fill="#82BFE8" d="M380.4,270.4h0.6c2.5,0,4.5,2,4.5,4.5v20.4c0,2.5,2,4.5,4.5,4.5h0.5c2.5,0,4.5-2,4.5-4.5v-77.9
				c0-2.5-2-4.5-4.5-4.5h-0.5c-2.5,0-4.5,2-4.5,4.5v38.7c0,2.5-2,4.5-4.5,4.5h-0.6c-2.5,0-4.5-2-4.5-4.5v-10.2c0-2.5-2-4.5-4.5-4.5
				h-0.5c-2.5,0-4.5,2-4.5,4.5v0.8c0,2.5-2,4.5-4.5,4.5h-0.5c-2.5,0-4.5-2-4.5-4.5v-10.4c0-2.5-2-4.5-4.5-4.5h-0.5
				c-2.5,0-4.5,2-4.5,4.5V285c0,2.5,2,4.5,4.5,4.5h0.5c2.5,0,4.5-2,4.5-4.5l0,0c0-2.5,2-4.5,4.5-4.5h0.5c2.5,0,4.5,2,4.5,4.5v9.6
				c0,2.5,2,4.5,4.5,4.5h0.5c2.5,0,4.5-2,4.5-4.5v-19.6C375.9,272.4,377.9,270.4,380.4,270.4z"/>
			<path fill="#82BFE8" d="M428.3,237.8h-0.6c-2.5,0-4.5-2-4.5-4.5l0,0c0-2.5-2-4.5-4.5-4.5h-0.6c-2.5,0-4.5,2-4.5,4.5V272
				c0,2.5,2,4.5,4.5,4.5h0.6c2.5,0,4.5-2,4.5-4.5v-10c0-2.5,2-4.5,4.5-4.5h0.6c2.5,0,4.5,2,4.5,4.5v0.1c0,2.5,2,4.5,4.5,4.5h0.6
				c2.5,0,4.5-2,4.5-4.5v-38.7c0-2.5-2-4.5-4.5-4.5h-0.6c-2.5,0-4.5,2-4.5,4.5v10C432.8,235.7,430.8,237.8,428.3,237.8z"/>
			<path fill="#82BFE8" d="M380.4,105.1h0.6c2.5,0,4.5-2,4.5-4.5V80.2c0-2.5,2-4.5,4.5-4.5h0.5c2.5,0,4.5,2,4.5,4.5v77.9
				c0,2.5-2,4.5-4.5,4.5h-0.5c-2.5,0-4.5-2-4.5-4.5v-38.7c0-2.5-2-4.5-4.5-4.5h-0.6c-2.5,0-4.5,2-4.5,4.5v10.2c0,2.5-2,4.5-4.5,4.5
				h-0.5c-2.5,0-4.5-2-4.5-4.5v-0.8c0-2.5-2-4.5-4.5-4.5h-0.5c-2.5,0-4.5,2-4.5,4.5v10.4c0,2.5-2,4.5-4.5,4.5h-0.5
				c-2.5,0-4.5-2-4.5-4.5V90.5c0-2.5,2-4.5,4.5-4.5h0.5c2.5,0,4.5,2,4.5,4.5v0c0,2.5,2,4.5,4.5,4.5h0.5c2.5,0,4.5-2,4.5-4.5v-9.6
				c0-2.5,2-4.5,4.5-4.5h0.5c2.5,0,4.5,2,4.5,4.5v19.6C375.9,103.1,377.9,105.1,380.4,105.1z"/>
			<path fill="#A7D0EF" d="M409.2,64.7h0.6c2.5,0,4.5-2,4.5-4.5v-10c0-2.5,2-4.5,4.5-4.5h0.5c2.5,0,4.5,2,4.5,4.5v67.5
				c0,2.5-2,4.5-4.5,4.5h-0.5c-2.5,0-4.5-2-4.5-4.5V79c0-2.5-2-4.5-4.5-4.5h-0.6c-2.5,0-4.5,2-4.5,4.5v10.2c0,2.5-2,4.5-4.5,4.5
				h-0.5c-2.5,0-4.5-2-4.5-4.5v-0.8c0-2.5-2-4.5-4.5-4.5h-0.5c-2.5,0-4.5,2-4.5,4.5v10.4c0,2.5-2,4.5-4.5,4.5h-0.5
				c-2.5,0-4.5-2-4.5-4.5V50.2c0-2.5,2-4.5,4.5-4.5h0.5c2.5,0,4.5,2,4.5,4.5v0c0,2.5,2,4.5,4.5,4.5h0.5c2.5,0,4.5-2,4.5-4.5v-9.6
				c0-2.5,2-4.5,4.5-4.5h0.5c2.5,0,4.5,2,4.5,4.5v19.6C404.7,62.7,406.7,64.7,409.2,64.7z"/>
			<path fill="#51AFE2" d="M371,151.2h0.6c2.5,0,4.5-2,4.5-4.5v-10c0-2.5,2-4.5,4.5-4.5h0.5c2.5,0,4.5,2,4.5,4.5v67.5
				c0,2.5-2,4.5-4.5,4.5h-0.5c-2.5,0-4.5-2-4.5-4.5v-38.7c0-2.5-2-4.5-4.5-4.5H371c-2.5,0-4.5,2-4.5,4.5v10.2c0,2.5-2,4.5-4.5,4.5
				h-0.5c-2.5,0-4.5-2-4.5-4.5v-0.8c0-2.5-2-4.5-4.5-4.5H352c-2.5,0-4.5,2-4.5,4.5v10.4c0,2.5-2,4.5-4.5,4.5h-0.5
				c-2.5,0-4.5-2-4.5-4.5v-48.6c0-2.5,2-4.5,4.5-4.5h0.5c2.5,0,4.5,2,4.5,4.5v0c0,2.5,2,4.5,4.5,4.5h0.5c2.5,0,4.5-2,4.5-4.5V127
				c0-2.5,2-4.5,4.5-4.5h0.5c2.5,0,4.5,2,4.5,4.5v19.6C366.5,149.2,368.5,151.2,371,151.2z"/>
		</g>
		<g>
			<path fill="#006F37" d="M369.3,10.1H235.2c-4.1,0-7.4,3.3-7.4,7.4v211.4h148.9V17.5C376.7,13.4,373.4,10.1,369.3,10.1z"/>
			<path fill="#CADEF3" d="M350.1,10.1h-95.7c-5.1,0-9.2,4.1-9.2,9.2v302h114.2v-302C359.4,14.2,355.2,10.1,350.1,10.1z"/>
			<path fill="#51AFE2" d="M336.3,135.6h-0.6c-2.5,0-4.5,2-4.5,4.5v10c0,2.5-2,4.5-4.5,4.5h-0.5c-2.5,0-4.5-2-4.5-4.5V82.6
				c0-2.5,2-4.5,4.5-4.5h0.5c2.5,0,4.5,2,4.5,4.5v38.7c0,2.5,2,4.5,4.5,4.5h0.6c2.5,0,4.5-2,4.5-4.5v-10.2c0-2.5,2-4.5,4.5-4.5h0.5
				c2.5,0,4.5,2,4.5,4.5v0.8c0,2.5,2,4.5,4.5,4.5h0.5c2.5,0,4.5-2,4.5-4.5v-10.4c0-2.5,2-4.5,4.5-4.5h0.5c2.5,0,4.5,2,4.5,4.5v48.6
				c0,2.5-2,4.5-4.5,4.5h-0.5c-2.5,0-4.5-2-4.5-4.5v0c0-2.5-2-4.5-4.5-4.5h-0.5c-2.5,0-4.5,2-4.5,4.5v9.6c0,2.5-2,4.5-4.5,4.5h-0.5
				c-2.5,0-4.5-2-4.5-4.5v-19.6C340.8,137.7,338.8,135.6,336.3,135.6z"/>
			<path fill="#A7D0EF" d="M335.7,164.1h0.4c2.5,0,4.6-2.1,4.6-4.6v0c0-2.5,2.1-4.6,4.6-4.6h0.5c2.5,0,4.6,2.1,4.6,4.6v29.2
				c0,2.5-2.1,4.6-4.6,4.6h-0.5c-2.5,0-4.6-2.1-4.6-4.6v-0.5c0-2.5-2.1-4.6-4.6-4.6h-0.4c-2.5,0-4.6,2.1-4.6,4.6v19.6
				c0,2.5-2.1,4.6-4.6,4.6H326c-2.5,0-4.6-2.1-4.6-4.6v-68c0-2.5,2.1-4.6,4.6-4.6h0.5c2.5,0,4.6,2.1,4.6,4.6v19.6
				C331.1,162,333.1,164.1,335.7,164.1z"/>
			<path fill="#82BFE8" d="M298,155.6h-0.4c-2.5,0-4.6-2.1-4.6-4.6v0c0-2.5-2.1-4.6-4.6-4.6h-0.5c-2.5,0-4.6,2.1-4.6,4.6v29.2
				c0,2.5,2.1,4.6,4.6,4.6h0.5c2.5,0,4.6-2.1,4.6-4.6v-0.5c0-2.5,2.1-4.6,4.6-4.6h0.4c2.5,0,4.6,2.1,4.6,4.6v19.6
				c0,2.5,2.1,4.6,4.6,4.6h0.5c2.5,0,4.6-2.1,4.6-4.6v-68c0-2.5-2.1-4.6-4.6-4.6h-0.5c-2.5,0-4.6,2.1-4.6,4.6V151
				C302.6,153.6,300.5,155.6,298,155.6z"/>
			<path fill="#A7D0EF" d="M354.6,228.1h-0.4c-2.5,0-4.6-2.1-4.6-4.6v0c0-2.5-2.1-4.6-4.6-4.6h-0.5c-2.5,0-4.6,2.1-4.6,4.6v29.2
				c0,2.5,2.1,4.6,4.6,4.6h0.5c2.5,0,4.6-2.1,4.6-4.6v-0.5c0-2.5,2.1-4.6,4.6-4.6h0.4c2.5,0,4.6,2.1,4.6,4.6v19.6
				c0,2.5,2.1,4.6,4.6,4.6h0.5c2.5,0,4.6-2.1,4.6-4.6v-68c0-2.5-2.1-4.6-4.6-4.6h-0.5c-2.5,0-4.6,2.1-4.6,4.6v19.6
				C359.2,226.1,357.1,228.1,354.6,228.1z"/>
			<path fill="#82BFE8" d="M278.1,234.5h0.6c2.5,0,4.5,2,4.5,4.5v20.4c0,2.5,2,4.5,4.5,4.5h0.5c2.5,0,4.5-2,4.5-4.5v-77.9
				c0-2.5-2-4.5-4.5-4.5h-0.5c-2.5,0-4.5,2-4.5,4.5v38.7c0,2.5-2,4.5-4.5,4.5h-0.6c-2.5,0-4.5-2-4.5-4.5v-10.2c0-2.5-2-4.5-4.5-4.5
				h-0.5c-2.5,0-4.5,2-4.5,4.5v0.8c0,2.5-2,4.5-4.5,4.5H259c-2.5,0-4.5-2-4.5-4.5v-10.4c0-2.5-2-4.5-4.5-4.5h-0.5
				c-2.5,0-4.5,2-4.5,4.5v48.6c0,2.5,2,4.5,4.5,4.5h0.5c2.5,0,4.5-2,4.5-4.5v0c0-2.5,2-4.5,4.5-4.5h0.5c2.5,0,4.5,2,4.5,4.5v9.6
				c0,2.5,2,4.5,4.5,4.5h0.5c2.5,0,4.5-2,4.5-4.5v-19.6C273.6,236.6,275.6,234.5,278.1,234.5z"/>
			<path fill="#82BFE8" d="M326.2,201.7h-0.6c-2.5,0-4.5-2-4.5-4.5l0,0c0-2.5-2-4.5-4.5-4.5H316c-2.5,0-4.5,2-4.5,4.5v38.7
				c0,2.5,2,4.5,4.5,4.5h0.6c2.5,0,4.5-2,4.5-4.5v-10c0-2.5,2-4.5,4.5-4.5h0.6c2.5,0,4.5,2,4.5,4.5v0.1c0,2.5,2,4.5,4.5,4.5h0.6
				c2.5,0,4.5-2,4.5-4.5v-38.7c0-2.5-2-4.5-4.5-4.5h-0.6c-2.5,0-4.5,2-4.5,4.5v10C330.7,199.7,328.7,201.7,326.2,201.7z"/>
			<path fill="#51AFE2" d="M325.8,285.4h0.6c2.5,0,4.5-2,4.5-4.5v-32.8c0-2.5,2-4.5,4.5-4.5h0.5c2.5,0,4.5,2,4.5,4.5v90.3
				c0,2.5-2,4.5-4.5,4.5h-0.5c-2.5,0-4.5-2-4.5-4.5v-38.7c0-2.5-2-4.5-4.5-4.5h-0.6c-2.5,0-4.5,2-4.5,4.5v10.2c0,2.5-2,4.5-4.5,4.5
				h-0.5c-2.5,0-4.5-2-4.5-4.5v-0.8c0-2.5-2-4.5-4.5-4.5h-0.5c-2.5,0-4.5,2-4.5,4.5v10.4c0,2.5-2,4.5-4.5,4.5h-0.5
				c-2.5,0-4.5-2-4.5-4.5v-48.6c0-2.5,2-4.5,4.5-4.5h0.5c2.5,0,4.5,2,4.5,4.5l0,0c0,2.5,2,4.5,4.5,4.5h0.5c2.5,0,4.5-2,4.5-4.5v-9.6
				c0-2.5,2-4.5,4.5-4.5h0.5c2.5,0,4.5,2,4.5,4.5v19.6C321.3,283.3,323.4,285.4,325.8,285.4z"/>
			<path fill="#A7D0EF" d="M267.9,269.6h0.6c2.5,0,4.5,2,4.5,4.5v32.8c0,2.5,2,4.5,4.5,4.5h0.5c2.5,0,4.5-2,4.5-4.5v-90.3
				c0-2.5-2-4.5-4.5-4.5h-0.5c-2.5,0-4.5,2-4.5,4.5v38.7c0,2.5-2,4.5-4.5,4.5h-0.6c-2.5,0-4.5-2-4.5-4.5v-10.2c0-2.5-2-4.5-4.5-4.5
				h-0.5c-2.5,0-4.5,2-4.5,4.5v0.8c0,2.5-2,4.5-4.5,4.5h-0.5c-2.5,0-4.5-2-4.5-4.5v-10.4c0-2.5-2-4.5-4.5-4.5h-0.5
				c-2.5,0-4.5,2-4.5,4.5v48.6c0,2.5,2,4.5,4.5,4.5h0.5c2.5,0,4.5-2,4.5-4.5v0c0-2.5,2-4.5,4.5-4.5h0.5c2.5,0,4.5,2,4.5,4.5v9.6
				c0,2.5,2,4.5,4.5,4.5h0.5c2.5,0,4.5-2,4.5-4.5v-19.6C263.4,271.6,265.4,269.6,267.9,269.6z"/>
			<path fill="#82BFE8" d="M278.3,69h0.6c2.5,0,4.5-2,4.5-4.5V44.1c0-2.5,2-4.5,4.5-4.5h0.5c2.5,0,4.5,2,4.5,4.5v77.9
				c0,2.5-2,4.5-4.5,4.5H288c-2.5,0-4.5-2-4.5-4.5V83.3c0-2.5-2-4.5-4.5-4.5h-0.6c-2.5,0-4.5,2-4.5,4.5v10.2c0,2.5-2,4.5-4.5,4.5
				h-0.5c-2.5,0-4.5-2-4.5-4.5v-0.8c0-2.5-2-4.5-4.5-4.5h-0.5c-2.5,0-4.5,2-4.5,4.5v10.4c0,2.5-2,4.5-4.5,4.5h-0.5
				c-2.5,0-4.5-2-4.5-4.5V54.5c0-2.5,2-4.5,4.5-4.5h0.5c2.5,0,4.5,2,4.5,4.5v0c0,2.5,2,4.5,4.5,4.5h0.5c2.5,0,4.5-2,4.5-4.5v-9.6
				c0-2.5,2-4.5,4.5-4.5h0.5c2.5,0,4.5,2,4.5,4.5v19.6C273.8,67,275.8,69,278.3,69z"/>
			<path fill="#A7D0EF" d="M307.1,28.7h0.6c2.5,0,4.5-2,4.5-4.5v-10c0-2.5,2-4.5,4.5-4.5h0.5c2.5,0,4.5,2,4.5,4.5v67.5
				c0,2.5-2,4.5-4.5,4.5h-0.5c-2.5,0-4.5-2-4.5-4.5V43c0-2.5-2-4.5-4.5-4.5h-0.6c-2.5,0-4.5,2-4.5,4.5v10.2c0,2.5-2,4.5-4.5,4.5
				h-0.5c-2.5,0-4.5-2-4.5-4.5v-0.8c0-2.5-2-4.5-4.5-4.5h-0.5c-2.5,0-4.5,2-4.5,4.5v10.4c0,2.5-2,4.5-4.5,4.5h-0.5
				c-2.5,0-4.5-2-4.5-4.5V14.1c0-2.5,2-4.5,4.5-4.5h0.5c2.5,0,4.5,2,4.5,4.5v0c0,2.5,2,4.5,4.5,4.5h0.5c2.5,0,4.5-2,4.5-4.5V4.5
				c0-2.5,2-4.5,4.5-4.5l0.5,0c2.5,0,4.5,2,4.5,4.5v19.6C302.6,26.6,304.6,28.7,307.1,28.7z"/>
			<path fill="#51AFE2" d="M268.9,115.1h0.6c2.5,0,4.5-2,4.5-4.5v-10c0-2.5,2-4.5,4.5-4.5h0.5c2.5,0,4.5,2,4.5,4.5v67.5
				c0,2.5-2,4.5-4.5,4.5h-0.5c-2.5,0-4.5-2-4.5-4.5v-38.7c0-2.5-2-4.5-4.5-4.5h-0.6c-2.5,0-4.5,2-4.5,4.5v10.2c0,2.5-2,4.5-4.5,4.5
				h-0.5c-2.5,0-4.5-2-4.5-4.5v-0.8c0-2.5-2-4.5-4.5-4.5h-0.5c-2.5,0-4.5,2-4.5,4.5v10.4c0,2.5-2,4.5-4.5,4.5h-0.5
				c-2.5,0-4.5-2-4.5-4.5v-48.6c0-2.5,2-4.5,4.5-4.5h0.5c2.5,0,4.5,2,4.5,4.5v0c0,2.5,2,4.5,4.5,4.5h0.5c2.5,0,4.5-2,4.5-4.5V91
				c0-2.5,2-4.5,4.5-4.5h0.5c2.5,0,4.5,2,4.5,4.5v19.6C264.4,113.1,266.4,115.1,268.9,115.1z"/>
		</g>
		<g>
			<polygon fill="#9D5A4A" points="140.6,276.1 140.3,251.5 162.4,239 173.7,263.1 166.7,276.1 			"/>
			<polygon fill="#764235" points="140.6,251.3 140.3,251.5 140.6,276.1 140.8,276.1 155.1,254.7 			"/>
			<polygon fill="#764235" points="170.3,255.8 162.4,239 161.9,239.4 155.1,254.7 			"/>
			<polygon fill="#613429" points="170.3,255.8 155.1,254.7 173.4,263.7 173.4,263.6 173.5,262.8 			"/>
		</g>
		<g>
			<polygon fill="#9D5A4A" points="450.5,280.1 450.7,259.7 437,249.3 427.6,269.3 433.4,280.1 			"/>
			<polygon fill="#764235" points="450.5,259.5 450.7,259.7 450.5,280.1 450.4,280.1 444.7,263.5 			"/>
			<polygon fill="#764235" points="430.4,263.3 437,249.3 437.4,249.6 443,262.3 			"/>
			<polygon fill="#613429" points="430.4,263.3 443,262.3 427.8,269.8 427.8,269.7 427.7,269 			"/>
		</g>
		<path fill="#82BFE8" d="M149.5,288v-0.6c0-2.2-1.8-4-4-4H99.8c-2.2,0-4-1.8-4-4V279c0-2.2,1.8-4,4-4h96.5c2.2,0,4,1.8,4,4v0.5
			c0,2.2-1.8,4-4,4h-34.2c-2.2,0-4,1.8-4,4v0.6c0,2.2,1.8,4,4,4h9c2.2,0,4,1.8,4,4v0.5c0,2.2-1.8,4-4,4h-0.7c-2.2,0-4,1.8-4,4v0.4
			c0,2.2,1.8,4,4,4h59.5c2.2,0,4,1.8,4,4v0.5c0,2.2-1.8,4-4,4h-93.3c-2.2,0-4-1.8-4-4v-0.5c0-2.2,1.8-4,4-4l0,0c2.2,0,4-1.8,4-4
			v-0.4c0-2.2-1.8-4-4-4H120c-2.2,0-4-1.8-4-4v-0.5c0-2.2,1.8-4,4-4h25.5C147.7,292,149.5,290.2,149.5,288z"/>
	</g>
	<path fill="#FFFFFF" d="M500,111.2v-0.7c0-2.6-2.1-4.7-4.7-4.7h-77.9c-2.6,0-4.7-2.1-4.7-4.7v-0.5c0-2.6,2.1-4.7,4.7-4.7h137.3
		c2.6,0,4.7,2.1,4.7,4.7v0.5c0,2.6-2.1,4.7-4.7,4.7h-40c-2.6,0-4.7,2.1-4.7,4.7v0.7c0,2.6,2.1,4.7,4.7,4.7h10.5
		c2.6,0,4.7,2.1,4.7,4.7v0.5c0,2.6-2.1,4.7-4.7,4.7h-0.8c-2.6,0-4.7,2.1-4.7,4.7v0.5c0,2.6,2.1,4.7,4.7,4.7h69.7
		c2.6,0,4.7,2.1,4.7,4.7v0.5c0,2.6-2.1,4.7-4.7,4.7H485c-2.6,0-4.7-2.1-4.7-4.7v-0.5c0-2.6,2.1-4.7,4.7-4.7l0,0
		c2.6,0,4.7-2.1,4.7-4.7v-0.5c0-2.6-2.1-4.7-4.7-4.7h-19.4c-2.6,0-4.7-2.1-4.7-4.7v-0.5c0-2.6,2.1-4.7,4.7-4.7h29.8
		C497.9,115.8,500,113.8,500,111.2z"/>
	<path fill="#FFFFFF" d="M138,177.1v0.5c0,2.6-2.3,4.4-4.9,4.4h-19.5c-2.6,0-4.6,2.4-4.6,5v0.5c0,1.3,0.5,2.5,1.4,3.3
		c0.8,0.8,2.3,1.4,3.6,1.4c2.6,0,5,2.1,5,4.7v0.5c0,2.6-2.8,4.7-5.4,4.7H4.5c-2.6,0-4.5-2.1-4.5-4.7v-0.5c0-2.6,1.9-4.8,4.5-4.8
		h69.7c2.6,0,4.9-2,4.9-4.5V187c0-2.6-2.3-5-4.9-5h-0.8c-2.6,0-4.3-1.8-4.3-4.4v-0.5c0-2.6,1.8-5.1,4.3-5.1h10.5
		c2.6,0,5.1-1.6,5.1-4.2v-0.7c0-2.6-2.6-5.1-5.1-5.1h-40c-2.6,0-4.9-1.6-4.9-4.2v-0.5c0-2.6,2.3-4.3,4.9-4.3H108v9h-4.7
		c-2.6,0-4.3,2.5-4.3,5.1v0.7c0,2.6,1.7,4.2,4.3,4.2h29.8C135.7,172,138,174.5,138,177.1z"/>
	<path fill="#006F37" d="M209.8,283h35v-88h-20c-8.3,0-15,6.7-15,15V283z"/>
	<path fill="#A7D0EF" d="M226.1,283h18.7v-75.2h-10.1c-4.7,0-8.6,3.8-8.6,8.6V283z"/>
	<path fill="#006F37" d="M394.8,283h-35v-88h20c8.3,0,15,6.7,15,15V283z"/>
	<path fill="#A7D0EF" d="M378.5,283h-18.7v-75.2h10.1c4.7,0,8.6,3.8,8.6,8.6V283z"/>
</g>
</svg>
