<?xml version="1.0" encoding="utf-8"?>
<!-- Generator: Adobe Illustrator 18.0.0, SVG Export Plug-In . SVG Version: 6.00 Build 0)  -->
<!DOCTYPE svg PUBLIC "-//W3C//DTD SVG 1.1//EN" "http://www.w3.org/Graphics/SVG/1.1/DTD/svg11.dtd">
<svg version="1.1" id="Layer_1" xmlns="http://www.w3.org/2000/svg" xmlns:xlink="http://www.w3.org/1999/xlink" x="0px" y="0px"
	 viewBox="0 0 153.3 312" enable-background="new 0 0 153.3 312" xml:space="preserve">
<g>
	<g>
		<g>
			<g>
				<g>
					<path fill="#A4A6A6" d="M153.3,280.5c0,17.4-34.3,31.6-76.7,31.6S0,297.9,0,280.5s34.3-26.2,76.7-26.2S153.3,263,153.3,280.5z"
						/>
				</g>
				<ellipse fill="#CDCECD" cx="76.7" cy="277.7" rx="76.7" ry="29.9"/>
			</g>
		</g>
		<g>
			<path fill="#403F40" d="M142.1,278.3c0,13.5-29.3,24.4-65.5,24.4s-65.5-10.9-65.5-24.4c0-13.5,29.3-20.2,65.5-20.2
				S142.1,264.8,142.1,278.3z"/>
			<ellipse fill="#4C4A4C" cx="76.7" cy="274.1" rx="65.5" ry="23.5"/>
		</g>
	</g>
	<g>
		<g>
			<g>
				<path fill="#5A585A" d="M25.3,276.5L25.3,276.5c-2,0-3.6-1.1-3.6-2.4V45l7.3,4.7v224.4C28.9,275.4,27.3,276.5,25.3,276.5z"/>
				<polygon fill="#D1B0A7" points="28.9,51.3 21.7,46.1 21.7,40.2 28.9,46.3 				"/>
			</g>
			<g>
				<g>
					<polygon fill="#5A585A" points="40.2,268.3 33,268.3 33,36.8 40.2,41.5 					"/>
					<polygon fill="#D1B0A7" points="40.2,43.1 33,37.9 33,32 40.2,38.1 					"/>
				</g>
				<g>
					<path fill="#5A585A" d="M36.6,282.9L36.6,282.9c2,0,3.6-1.1,3.6-2.4V54.3L33,59.1v221.5C33,281.9,34.6,282.9,36.6,282.9z"/>
					<polygon fill="#D1B0A7" points="33,60.7 40.2,55.5 40.2,49.6 33,55.7 					"/>
				</g>
			</g>
			<g>
				<g>
					<polygon fill="#5A585A" points="51.5,260 44.3,260 44.3,28.5 51.5,33.3 					"/>
					<polygon fill="#D1B0A7" points="51.5,34.9 44.3,29.7 44.3,23.8 51.5,29.9 					"/>
				</g>
				<g>
					<path fill="#5A585A" d="M47.9,289.3L47.9,289.3c2,0,3.6-1.1,3.6-2.4V62.6l-7.3,4.7v219.7C44.3,288.3,45.9,289.3,47.9,289.3z"/>
					<polygon fill="#D1B0A7" points="44.3,68.9 51.5,63.7 51.5,57.8 44.3,63.9 					"/>
				</g>
				<g>
					<polygon fill="#D1B0A7" points="51.5,52.2 44.3,47 44.3,41.1 51.5,47.2 					"/>
				</g>
			</g>
			<g>
				<g>
					<polygon fill="#5A585A" points="56.9,260 64.1,260 64.1,28.5 56.9,33.3 					"/>
					<polygon fill="#D1B0A7" points="56.9,34.9 64.1,29.7 64.1,23.8 56.9,29.9 					"/>
				</g>
				<g>
					<path fill="#5A585A" d="M60.5,290.4L60.5,290.4c-2,0-3.6-1.1-3.6-2.4V62.6l7.3,4.7V288C64.1,289.3,62.5,290.4,60.5,290.4z"/>
					<polygon fill="#D1B0A7" points="64.1,68.9 56.9,63.7 56.9,57.8 64.1,63.9 					"/>
				</g>
				<polygon fill="#D1B0A7" points="56.9,52.2 64.1,47 64.1,41.1 56.9,47.2 				"/>
			</g>
			<g>
				<g>
					<polygon fill="#5A585A" points="75.5,260 68.3,260 68.3,28.5 75.5,33.3 					"/>
					<polygon fill="#D1B0A7" points="75.5,34.9 68.3,29.7 68.3,23.8 75.5,29.9 					"/>
				</g>
				<g>
					<path fill="#5A585A" d="M71.9,290.4L71.9,290.4c2,0,3.6-1.1,3.6-2.4V62.6l-7.3,4.7V288C68.3,289.3,69.9,290.4,71.9,290.4z"/>
					<polygon fill="#D1B0A7" points="68.3,68.9 75.5,63.7 75.5,57.8 68.3,63.9 					"/>
				</g>
				<polygon fill="#D1B0A7" points="75.5,52.2 68.3,47 68.3,41.1 75.5,47.2 				"/>
			</g>
		</g>
		<g>
			<g>
				<path fill="#5A585A" d="M130,276.5L130,276.5c2,0,3.6-1.1,3.6-2.4V45l-7.3,4.7v224.4C126.4,275.4,128,276.5,130,276.5z"/>
				<polygon fill="#D1B0A7" points="126.4,51.3 133.7,46.1 133.7,40.2 126.4,46.3 				"/>
			</g>
			<g>
				<g>
					<polygon fill="#5A585A" points="115.1,268.3 122.4,268.3 122.4,36.8 115.1,41.5 					"/>
					<polygon fill="#D1B0A7" points="115.1,43.1 122.4,37.9 122.4,32 115.1,38.1 					"/>
				</g>
				<g>
					<path fill="#5A585A" d="M118.7,282.9L118.7,282.9c-2,0-3.6-1.1-3.6-2.4V54.3l7.3,4.7v221.5
						C122.4,281.9,120.7,282.9,118.7,282.9z"/>
					<polygon fill="#D1B0A7" points="122.4,60.7 115.1,55.5 115.1,49.6 122.4,55.7 					"/>
				</g>
			</g>
			<g>
				<g>
					<polygon fill="#5A585A" points="103.8,260 111.1,260 111.1,28.5 103.8,33.3 					"/>
					<polygon fill="#D1B0A7" points="103.8,34.9 111.1,29.7 111.1,23.8 103.8,29.9 					"/>
				</g>
				<g>
					<path fill="#5A585A" d="M107.4,289.3L107.4,289.3c-2,0-3.6-1.1-3.6-2.4V62.6l7.3,4.7v219.7
						C111.1,288.3,109.4,289.3,107.4,289.3z"/>
					<polygon fill="#D1B0A7" points="111.1,68.9 103.8,63.7 103.8,57.8 111.1,63.9 					"/>
				</g>
				<g>
					<polygon fill="#D1B0A7" points="103.8,52.2 111.1,47 111.1,41.1 103.8,47.2 					"/>
				</g>
			</g>
			<g>
				<g>
					<polygon fill="#5A585A" points="98.5,260 91.2,260 91.2,28.5 98.5,33.3 					"/>
					<polygon fill="#D1B0A7" points="98.5,34.9 91.2,29.7 91.2,23.8 98.5,29.9 					"/>
				</g>
				<g>
					<path fill="#5A585A" d="M94.9,290.4L94.9,290.4c2,0,3.6-1.1,3.6-2.4V62.6l-7.3,4.7V288C91.2,289.3,92.9,290.4,94.9,290.4z"/>
					<polygon fill="#D1B0A7" points="91.2,68.9 98.5,63.7 98.5,57.8 91.2,63.9 					"/>
				</g>
				<polygon fill="#D1B0A7" points="98.5,52.2 91.2,47 91.2,41.1 98.5,47.2 				"/>
			</g>
			<g>
				<g>
					<polygon fill="#5A585A" points="79.8,260 87.1,260 87.1,28.5 79.8,33.3 					"/>
					<polygon fill="#D1B0A7" points="79.8,34.9 87.1,29.7 87.1,23.8 79.8,29.9 					"/>
				</g>
				<g>
					<path fill="#5A585A" d="M83.5,290.4L83.5,290.4c-2,0-3.6-1.1-3.6-2.4V62.6l7.3,4.7V288C87.1,289.3,85.5,290.4,83.5,290.4z"/>
					<polygon fill="#D1B0A7" points="87.1,68.9 79.8,63.7 79.8,57.8 87.1,63.9 					"/>
				</g>
				<polygon fill="#D1B0A7" points="79.8,52.2 87.1,47 87.1,41.1 79.8,47.2 				"/>
			</g>
		</g>
	</g>
</g>
</svg>
