<?xml version="1.0" encoding="utf-8"?>
<!-- Generator: Adobe Illustrator 18.0.0, SVG Export Plug-In . SVG Version: 6.00 Build 0)  -->
<!DOCTYPE svg PUBLIC "-//W3C//DTD SVG 1.1//EN" "http://www.w3.org/Graphics/SVG/1.1/DTD/svg11.dtd">
<svg version="1.1" id="Layer_1" xmlns="http://www.w3.org/2000/svg" xmlns:xlink="http://www.w3.org/1999/xlink" x="0px" y="0px"
	 viewBox="0 0 153.3 312" enable-background="new 0 0 153.3 312" xml:space="preserve">
<g>
	<g>
		<g>
			<g>
				<g>
					<path fill="#A4A6A6" d="M153.3,280.5c0,17.4-34.3,31.6-76.7,31.6S0,297.9,0,280.5s34.3-26.2,76.7-26.2S153.3,263,153.3,280.5z"
						/>
				</g>
				<ellipse fill="#CDCECD" cx="76.7" cy="277.7" rx="76.7" ry="29.9"/>
			</g>
		</g>
		<g>
			<path fill="#403F40" d="M142.1,278.3c0,13.5-29.3,24.4-65.5,24.4s-65.5-10.9-65.5-24.4c0-13.5,29.3-20.2,65.5-20.2
				S142.1,264.8,142.1,278.3z"/>
			<ellipse fill="#4C4A4C" cx="76.7" cy="274.1" rx="65.5" ry="23.5"/>
		</g>
	</g>
	<g>
		<g>
			<g>
				<path fill="#5A585A" d="M25.3,276.5L25.3,276.5c-2,0-3.6-1.1-3.6-2.4V45l7.3,4.7v224.4C28.9,275.4,27.3,276.5,25.3,276.5z"/>
				<polygon fill="#D1B0A7" points="28.9,51.3 21.7,46.1 21.7,40.2 28.9,46.3 				"/>
			</g>
			<g>
				<g>
					<polygon fill="#5A585A" points="40.2,268.3 33,268.3 33,36.8 40.2,41.5 					"/>
					<polygon fill="#D1B0A7" points="40.2,43.1 33,37.9 33,32 40.2,38.1 					"/>
				</g>
				<g>
					<path fill="#5A585A" d="M36.6,282.9L36.6,282.9c2,0,3.6-1.1,3.6-2.4V54.3L33,59.1v221.5C33,281.9,34.6,282.9,36.6,282.9z"/>
					<polygon fill="#D1B0A7" points="33,60.7 40.2,55.5 40.2,49.6 33,55.7 					"/>
				</g>
			</g>
			<g>
				<g>
					<polygon fill="#5A585A" points="51.5,260 44.3,260 44.3,28.5 51.5,33.3 					"/>
					<polygon fill="#D1B0A7" points="51.5,34.9 44.3,29.7 44.3,23.8 51.5,29.9 					"/>
				</g>
				<g>
					<path fill="#5A585A" d="M47.9,289.3L47.9,289.3c2,0,3.6-1.1,3.6-2.4V62.6l-7.3,4.7v219.7C44.3,288.3,45.9,289.3,47.9,289.3z"/>
					<polygon fill="#D1B0A7" points="44.3,68.9 51.5,63.7 51.5,57.8 44.3,63.9 					"/>
				</g>
				<g>
					<polygon fill="#D1B0A7" points="51.5,52.2 44.3,47 44.3,41.1 51.5,47.2 					"/>
				</g>
			</g>
			<g>
				<g>
					<polygon fill="#5A585A" points="56.9,260 64.1,260 64.1,28.5 56.9,33.3 					"/>
					<polygon fill="#D1B0A7" points="56.9,34.9 64.1,29.7 64.1,23.8 56.9,29.9 					"/>
				</g>
				<g>
					<path fill="#5A585A" d="M60.5,290.4L60.5,290.4c-2,0-3.6-1.1-3.6-2.4V62.6l7.3,4.7V288C64.1,289.3,62.5,290.4,60.5,290.4z"/>
					<polygon fill="#D1B0A7" points="64.1,68.9 56.9,63.7 56.9,57.8 64.1,63.9 					"/>
				</g>
				<polygon fill="#D1B0A7" points="56.9,52.2 64.1,47 64.1,41.1 56.9,47.2 				"/>
			</g>
			<g>
				<g>
					<polygon fill="#5A585A" points="75.5,260 68.3,260 68.3,28.5 75.5,33.3 					"/>
					<polygon fill="#D1B0A7" points="75.5,34.9 68.3,29.7 68.3,23.8 75.5,29.9 					"/>
				</g>
				<g>
					<path fill="#5A585A" d="M71.9,290.4L71.9,290.4c2,0,3.6-1.1,3.6-2.4V62.6l-7.3,4.7V288C68.3,289.3,69.9,290.4,71.9,290.4z"/>
					<polygon fill="#D1B0A7" points="68.3,68.9 75.5,63.7 75.5,57.8 68.3,63.9 					"/>
				</g>
				<polygon fill="#D1B0A7" points="75.5,52.2 68.3,47 68.3,41.1 75.5,47.2 				"/>
			</g>
		</g>
		<g>
			<g>
				<path fill="#5A585A" d="M130,276.5L130,276.5c2,0,3.6-1.1,3.6-2.4V45l-7.3,4.7v224.4C126.4,275.4,128,276.5,130,276.5z"/>
				<polygon fill="#D1B0A7" points="126.4,51.3 133.7,46.1 133.7,40.2 126.4,46.3 				"/>
			</g>
			<g>
				<g>
					<polygon fill="#5A585A" points="115.1,268.3 122.4,268.3 122.4,36.8 115.1,41.5 					"/>
					<polygon fill="#D1B0A7" points="115.1,43.1 122.4,37.9 122.4,32 115.1,38.1 					"/>
				</g>
				<g>
					<path fill="#5A585A" d="M118.7,282.9L118.7,282.9c-2,0-3.6-1.1-3.6-2.4V54.3l7.3,4.7v221.5
						C122.4,281.9,120.7,282.9,118.7,282.9z"/>
					<polygon fill="#D1B0A7" points="122.4,60.7 115.1,55.5 115.1,49.6 122.4,55.7 					"/>
				</g>
			</g>
			<g>
				<g>
					<polygon fill="#5A585A" points="103.8,260 111.1,260 111.1,28.5 103.8,33.3 					"/>
					<polygon fill="#D1B0A7" points="103.8,34.9 111.1,29.7 111.1,23.8 103.8,29.9 					"/>
				</g>
				<g>
					<path fill="#5A585A" d="M107.4,289.3L107.4,289.3c-2,0-3.6-1.1-3.6-2.4V62.6l7.3,4.7v219.7
						C111.1,288.3,109.4,289.3,107.4,289.3z"/>
					<polygon fill="#D1B0A7" points="111.1,68.9 103.8,63.7 103.8,57.8 111.1,63.9 					"/>
				</g>
				<g>
					<polygon fill="#D1B0A7" points="103.8,52.2 111.1,47 111.1,41.1 103.8,47.2 					"/>
				</g>
			</g>
			<g>
				<g>
					<polygon fill="#5A585A" points="98.5,260 91.2,260 91.2,28.5 98.5,33.3 					"/>
					<polygon fill="#D1B0A7" points="98.5,34.9 91.2,29.7 91.2,23.8 98.5,29.9 					"/>
				</g>
				<g>
					<path fill="#5A585A" d="M94.9,290.4L94.9,290.4c2,0,3.6-1.1,3.6-2.4V62.6l-7.3,4.7V288C91.2,289.3,92.9,290.4,94.9,290.4z"/>
					<polygon fill="#D1B0A7" points="91.2,68.9 98.5,63.7 98.5,57.8 91.2,63.9 					"/>
				</g>
				<polygon fill="#D1B0A7" points="98.5,52.2 91.2,47 91.2,41.1 98.5,47.2 				"/>
			</g>
			<g>
				<g>
					<polygon fill="#5A585A" points="79.8,260 87.1,260 87.1,28.5 79.8,33.3 					"/>
					<polygon fill="#D1B0A7" points="79.8,34.9 87.1,29.7 87.1,23.8 79.8,29.9 					"/>
				</g>
				<g>
					<path fill="#5A585A" d="M83.5,290.4L83.5,290.4c-2,0-3.6-1.1-3.6-2.4V62.6l7.3,4.7V288C87.1,289.3,85.5,290.4,83.5,290.4z"/>
					<polygon fill="#D1B0A7" points="87.1,68.9 79.8,63.7 79.8,57.8 87.1,63.9 					"/>
				</g>
				<polygon fill="#D1B0A7" points="79.8,52.2 87.1,47 87.1,41.1 79.8,47.2 				"/>
			</g>
		</g>
	</g>
</g>
<g>
	<g>
		<g>
			<path fill="#DC5123" d="M40.2,19.6C39.4,26,38,31.1,36.2,34c-1.8-2.8-3.3-8-4-14.4c1.2-1.6,2.6-2.9,4-3.9
				C37.6,16.7,39,18,40.2,19.6z"/>
			<path fill="#F15A24" d="M46.4,32.1c0,7.4-4.2,13.9-10.3,16.7c-6-2.9-10.3-9.3-10.3-16.7c0-5.6,2.4-10.7,6.2-14.1
				c0.8,4.3,2.2,7.8,4,9.7c1.8-1.9,3.3-5.4,4-9.7C44,21.4,46.4,26.4,46.4,32.1z"/>
			<path fill="#F9A022" d="M36.2,48.4c-4.1-2.7-6.7-7.7-6.7-13.1c0-2.6,0.6-5.1,1.7-7.4c0.8,2.2,1.8,4,3,5.3l1.8,2.2l2.3-2.2
				c1.2-1.3,2.2-3.1,3-5.3c1.1,2.2,1.7,4.7,1.7,7.4C42.9,40.8,40.3,45.7,36.2,48.4z"/>
			<path fill="#FDB91E" d="M42.9,35.3c0,5.4-3.4,10.4-7.5,13.1c0,0,1.1-0.1-0.9-0.1V35.4l0.9,0.2l2.4-2.3C39,32,40.2,30.2,41,28
				C42.1,30.2,42.9,32.7,42.9,35.3z"/>
		</g>
		<g>
			<path fill="#DC5123" d="M60.7,5.9c-0.8,6.4-2.2,11.6-4,14.4c-1.8-2.8-3.3-8-4-14.4c1.2-1.6,2.6-2.9,4-3.9
				C58.1,3,59.5,4.3,60.7,5.9z"/>
			<path fill="#F15A24" d="M66.9,18.4c0,7.4-4.2,13.9-10.3,16.7c-6-2.9-10.3-9.3-10.3-16.7c0-5.6,2.4-10.7,6.2-14.1
				c0.8,4.3,2.2,7.8,4,9.7c1.8-1.9,3.3-5.4,4-9.7C64.5,7.7,66.9,12.8,66.9,18.4z"/>
			<path fill="#F9A022" d="M56.7,34.8c-4.1-2.7-6.7-7.7-6.7-13.1c0-2.6,0.6-5.1,1.7-7.4c0.8,2.2,1.8,4,3,5.3l1.8,2.2l2.3-2.2
				c1.2-1.3,2.2-3.1,3-5.3c1.1,2.2,1.7,4.7,1.7,7.4C63.4,27.1,60.8,32.1,56.7,34.8z"/>
			<path fill="#FDB91E" d="M63.4,21.7c0,5.4-3.1,10.4-7.3,13.1c0,0,0.4-0.1-0.6-0.1V21.8l0.6,0.2l2.3-2.3c1.2-1.3,2.3-3.1,3.1-5.3
				C62.7,16.5,63.4,19,63.4,21.7z"/>
		</g>
		<g>
			<path fill="#DC5123" d="M82.2,3.9c-0.8,6.4-2.2,11.6-4,14.4c-1.8-2.8-3.3-8-4-14.4c1.2-1.6,2.6-2.9,4-3.9C79.6,1,81,2.4,82.2,3.9
				z"/>
			<path fill="#F15A24" d="M88.4,16.5c0,7.4-4.2,13.9-10.3,16.7c-6-2.9-10.3-9.3-10.3-16.7c0-5.6,2.4-10.7,6.2-14.1
				c0.8,4.3,2.2,7.8,4,9.7c1.8-1.9,3.3-5.4,4-9.7C86,5.8,88.4,10.8,88.4,16.5z"/>
			<path fill="#F9A022" d="M78.2,32.8c-4.1-2.7-6.7-7.7-6.7-13.1c0-2.6,0.6-5.1,1.7-7.4c0.8,2.2,1.8,4,3,5.3l1.8,2.2l2.3-2.2
				c1.2-1.3,2.2-3.1,3-5.3c1.1,2.2,1.7,4.7,1.7,7.4C84.9,25.1,82.3,30.1,78.2,32.8z"/>
			<path fill="#FDB91E" d="M84.9,19.7c0,5.4-2.9,10.4-7,13.1c0,0,0.6-0.1-0.4-0.1V19.8l0.4,0.2l2.2-2.3c1.2-1.3,2.2-3.1,3.1-5.3
				C84.3,14.6,84.9,17.1,84.9,19.7z"/>
		</g>
		<g>
			<path fill="#DC5123" d="M116.1,19.6c0.8,6.4,2.2,11.6,4,14.4c1.8-2.8,3.3-8,4-14.4c-1.2-1.6-2.6-2.9-4-3.9
				C118.7,16.7,117.4,18,116.1,19.6z"/>
			<path fill="#F15A24" d="M109.9,32.1c0,7.4,4.2,13.9,10.3,16.7c6-2.9,10.3-9.3,10.3-16.7c0-5.6-2.4-10.7-6.2-14.1
				c-0.8,4.3-2.2,7.8-4,9.7c-1.8-1.9-3.3-5.4-4-9.7C112.3,21.4,109.9,26.4,109.9,32.1z"/>
			<path fill="#F9A022" d="M120.2,48.4c4.1-2.7,6.7-7.7,6.7-13.1c0-2.6-0.6-5.1-1.7-7.4c-0.8,2.2-1.8,4-3,5.3l-1.8,2.2l-2.3-2.2
				c-1.2-1.3-2.2-3.1-3-5.3c-1.1,2.2-1.7,4.7-1.7,7.4C113.4,40.8,116,45.7,120.2,48.4z"/>
			<path fill="#FDB91E" d="M113.4,35.3c0,5.4,3.2,10.4,7.4,13.1c0,0-0.2-0.1,0.8-0.1V35.4l-0.8,0.2l-2.4-2.3
				c-1.2-1.3-2.3-3.1-3.2-5.3C114.2,30.2,113.4,32.7,113.4,35.3z"/>
		</g>
		<g>
			<path fill="#DC5123" d="M95.6,5.9c0.8,6.4,2.2,11.6,4,14.4c1.8-2.8,3.3-8,4-14.4c-1.2-1.6-2.6-2.9-4-3.9
				C98.2,3,96.8,4.3,95.6,5.9z"/>
			<path fill="#F15A24" d="M89.4,18.4c0,7.4,4.2,13.9,10.3,16.7c6-2.9,10.3-9.3,10.3-16.7c0-5.6-2.4-10.7-6.2-14.1
				c-0.8,4.3-2.2,7.8-4,9.7c-1.8-1.9-3.3-5.4-4-9.7C91.8,7.7,89.4,12.8,89.4,18.4z"/>
			<path fill="#F9A022" d="M99.7,34.8c4.1-2.7,6.7-7.7,6.7-13.1c0-2.6-0.6-5.1-1.7-7.4c-0.8,2.2-1.8,4-3,5.3l-1.8,2.2l-2.3-2.2
				c-1.2-1.3-2.2-3.1-3-5.3c-1.1,2.2-1.7,4.7-1.7,7.4C92.9,27.1,95.5,32.1,99.7,34.8z"/>
			<path fill="#FDB91E" d="M92.9,21.7c0,5.4,3.5,10.4,7.6,13.1c0,0,0-0.1,1-0.1V21.8l-1,0.2L98,19.6c-1.2-1.3-2.4-3.1-3.2-5.3
				C93.7,16.5,92.9,19,92.9,21.7z"/>
		</g>
	</g>
	<g>
		<path fill="#DC5123" d="M40.2,18.7c-0.8,6.4-2.2,11.6-4,14.4c-1.8-2.8-3.3-8-4-14.4c1.2-1.6,2.6-2.9,4-3.9
			C37.6,15.8,39,17.1,40.2,18.7z"/>
		<path fill="#F15A24" d="M46.4,31.2c0,7.4-4.2,13.9-10.3,16.7c-6-2.9-10.3-9.3-10.3-16.7c0-5.6,2.4-10.7,6.2-14.1
			c0.8,4.3,2.2,7.8,4,9.7c1.8-1.9,3.3-5.4,4-9.7C44,20.5,46.4,25.6,46.4,31.2z"/>
		<path fill="#F9A022" d="M36.2,47.6c-4.1-2.7-6.7-7.7-6.7-13.1c0-2.6,0.6-5.1,1.7-7.4c0.8,2.2,1.8,4,3,5.3l1.8,2.2l2.3-2.2
			c1.2-1.3,2.2-3.1,3-5.3c1.1,2.2,1.7,4.7,1.7,7.4C42.9,39.9,40.3,44.9,36.2,47.6z"/>
		<path fill="#FDB91E" d="M42.9,34.5c0,5.4-3.4,10.4-7.5,13.1c0,0,1.1-0.1-0.9-0.1V34.6l0.9,0.2l2.4-2.3c1.2-1.3,2.4-3.1,3.2-5.3
			C42.1,29.3,42.9,31.9,42.9,34.5z"/>
	</g>
	<g>
		<path fill="#DC5123" d="M60.7,32.4c-0.8,6.4-2.2,11.6-4,14.4c-1.8-2.8-3.3-8-4-14.4c1.2-1.6,2.6-2.9,4-3.9
			C58.1,29.5,59.5,30.8,60.7,32.4z"/>
		<path fill="#F15A24" d="M66.9,44.9c0,7.4-4.2,13.9-10.3,16.7c-6-2.9-10.3-9.3-10.3-16.7c0-5.6,2.4-10.7,6.2-14.1
			c0.8,4.3,2.2,7.8,4,9.7c1.8-1.9,3.3-5.4,4-9.7C64.5,34.2,66.9,39.3,66.9,44.9z"/>
		<path fill="#F9A022" d="M56.7,61.2c-4.1-2.7-6.7-7.7-6.7-13.1c0-2.6,0.6-5.1,1.7-7.4c0.8,2.2,1.8,4,3,5.3l1.8,2.2l2.3-2.2
			c1.2-1.3,2.2-3.1,3-5.3c1.1,2.2,1.7,4.7,1.7,7.4C63.4,53.6,60.8,58.6,56.7,61.2z"/>
		<path fill="#FDB91E" d="M63.4,48.2c0,5.4-3.1,10.4-7.3,13.1c0,0,0.4-0.1-0.6-0.1V48.3l0.6,0.2l2.3-2.3c1.2-1.3,2.3-3.1,3.1-5.3
			C62.7,43,63.4,45.5,63.4,48.2z"/>
	</g>
	<g>
		<path fill="#DC5123" d="M82.2,34.4c-0.8,6.4-2.2,11.6-4,14.4c-1.8-2.8-3.3-8-4-14.4c1.2-1.6,2.6-2.9,4-3.9
			C79.6,31.4,81,32.8,82.2,34.4z"/>
		<path fill="#F15A24" d="M88.4,46.9c0,7.4-4.2,13.9-10.3,16.7c-6-2.9-10.3-9.3-10.3-16.7c0-5.6,2.4-10.7,6.2-14.1
			c0.8,4.3,2.2,7.8,4,9.7c1.8-1.9,3.3-5.4,4-9.7C86,36.2,88.4,41.2,88.4,46.9z"/>
		<path fill="#F9A022" d="M78.2,63.2c-4.1-2.7-6.7-7.7-6.7-13.1c0-2.6,0.6-5.1,1.7-7.4c0.8,2.2,1.8,4,3,5.3l1.8,2.2l2.3-2.2
			c1.2-1.3,2.2-3.1,3-5.3c1.1,2.2,1.7,4.7,1.7,7.4C84.9,55.5,82.3,60.5,78.2,63.2z"/>
		<path fill="#FDB91E" d="M84.9,50.1c0,5.4-2.9,10.4-7,13.1c0,0,0.6-0.1-0.4-0.1V50.2l0.4,0.2l2.2-2.3c1.2-1.3,2.2-3.1,3.1-5.3
			C84.3,45,84.9,47.5,84.9,50.1z"/>
	</g>
	<g>
		<path fill="#DC5123" d="M116.1,18.7c0.8,6.4,2.2,11.6,4,14.4c1.8-2.8,3.3-8,4-14.4c-1.2-1.6-2.6-2.9-4-3.9
			C118.7,15.8,117.4,17.1,116.1,18.7z"/>
		<path fill="#F15A24" d="M109.9,31.2c0,7.4,4.2,13.9,10.3,16.7c6-2.9,10.3-9.3,10.3-16.7c0-5.6-2.4-10.7-6.2-14.1
			c-0.8,4.3-2.2,7.8-4,9.7c-1.8-1.9-3.3-5.4-4-9.7C112.3,20.5,109.9,25.6,109.9,31.2z"/>
		<path fill="#F9A022" d="M120.2,47.6c4.1-2.7,6.7-7.7,6.7-13.1c0-2.6-0.6-5.1-1.7-7.4c-0.8,2.2-1.8,4-3,5.3l-1.8,2.2l-2.3-2.2
			c-1.2-1.3-2.2-3.1-3-5.3c-1.1,2.2-1.7,4.7-1.7,7.4C113.4,39.9,116,44.9,120.2,47.6z"/>
		<path fill="#FDB91E" d="M113.4,34.5c0,5.4,3.2,10.4,7.4,13.1c0,0-0.2-0.1,0.8-0.1V34.6l-0.8,0.2l-2.4-2.3
			c-1.2-1.3-2.3-3.1-3.2-5.3C114.2,29.3,113.4,31.9,113.4,34.5z"/>
	</g>
	<g>
		<path fill="#DC5123" d="M95.6,32.4c0.8,6.4,2.2,11.6,4,14.4c1.8-2.8,3.3-8,4-14.4c-1.2-1.6-2.6-2.9-4-3.9
			C98.2,29.5,96.8,30.8,95.6,32.4z"/>
		<path fill="#F15A24" d="M89.4,44.9c0,7.4,4.2,13.9,10.3,16.7c6-2.9,10.3-9.3,10.3-16.7c0-5.6-2.4-10.7-6.2-14.1
			c-0.8,4.3-2.2,7.8-4,9.7c-1.8-1.9-3.3-5.4-4-9.7C91.8,34.2,89.4,39.3,89.4,44.9z"/>
		<path fill="#F9A022" d="M99.7,61.2c4.1-2.7,6.7-7.7,6.7-13.1c0-2.6-0.6-5.1-1.7-7.4c-0.8,2.2-1.8,4-3,5.3l-1.8,2.2l-2.3-2.2
			c-1.2-1.3-2.2-3.1-3-5.3c-1.1,2.2-1.7,4.7-1.7,7.4C92.9,53.6,95.5,58.6,99.7,61.2z"/>
		<path fill="#FDB91E" d="M92.9,48.2c0,5.4,3.5,10.4,7.6,13.1c0,0,0-0.1,1-0.1V48.3l-1,0.2L98,46.1c-1.2-1.3-2.4-3.1-3.2-5.3
			C93.7,43,92.9,45.5,92.9,48.2z"/>
	</g>
</g>
</svg>
