<?xml version="1.0" encoding="utf-8"?>
<!-- Generator: Adobe Illustrator 18.0.0, SVG Export Plug-In . SVG Version: 6.00 Build 0)  -->
<!DOCTYPE svg PUBLIC "-//W3C//DTD SVG 1.1//EN" "http://www.w3.org/Graphics/SVG/1.1/DTD/svg11.dtd">
<svg version="1.1" id="Layer_1" xmlns="http://www.w3.org/2000/svg" xmlns:xlink="http://www.w3.org/1999/xlink" x="0px" y="0px"
	 viewBox="0 0 667.3 346.2" enable-background="new 0 0 667.3 346.2" xml:space="preserve">
<g>
	<line fill="none" stroke="#E0E0E0" stroke-width="3" stroke-miterlimit="10" x1="245" y1="90.2" x2="491" y2="208.2"/>
	<g>
		<path fill="#BF9E80" d="M205.2,346.2L205.2,346.2c-45.9,0-83.2-37.2-83.2-83.2V158.2c0-45.9,37.2-83.2,83.2-83.2h0
			c45.9,0,83.2,37.2,83.2,83.2V263C288.4,309,251.1,346.2,205.2,346.2z"/>
		<path fill="#B48F6F" d="M288.9,158.2V263c0,45.9-37.5,83.2-83.4,83.2c-31.5,0-59-17.5-73.1-43.3L247.8,86.7
			c5.9,3.5,11.6,7.8,16.5,12.6C279.3,114.4,288.9,135.2,288.9,158.2z"/>
	</g>
	<g>
		<g>
			<path fill="#CCA77C" d="M533.8,199.9l-176.2,22.5c-2,0.3-4.1,0.7-6.1,1.2l-60,16.4c-28.9,7.9-41.6,41.7-25.1,66.7l0,0
				c8.1,12.4,22,19.8,36.8,19.8h253c31.6,0,52.9-32.4,40.5-61.4l-16.7-39C572.1,208.1,553.3,197.4,533.8,199.9z"/>
			<path fill="#BF9E80" d="M556.2,326.2h-99.8l126.8-92.6l13.5,31.2C609.1,293.9,587.8,326.2,556.2,326.2z"/>
			<g>
				<path fill="#00954E" d="M343,232.4c0,2.4,1.9,4.3,4.3,4.3h1.7c2.3,0,4.1-2,4.1-4.3v-3.5c0-2.1,1.7-3.8,3.8-3.8h2
					c2.3,0,4.2,1.9,4.2,4.2v14.8c0,2.3,1.7,4.2,4,4.2h2.3c2.3,0,3.8-2,3.8-4.2v-2.3c0-2.3,2.2-3.5,4.4-3.5h1.8
					c2.6,0,4.7,2.1,4.7,4.7v1.8c0,2.4,2,4.4,4.4,4.4h0.9c2.3,0,4-1.9,4-4.3c0-2.3,1.8-4.3,4.1-4.3h2.5c2.3,0,4.1,1.9,4,4.3
					c0,2.3,1,7.4,3.3,7.4l13.3-0.8h9.2c2.5,0,10,2,10,3.1c0,0,5.9-3.1,8.4-3.1H460c2.5,0,4.5-2,4.5-4.5v-13.4c0-2,1.7-3.7,3.7-3.7
					h1.8c2.2,0,4,1.7,4.1,4c0,2.2,1.9,3.8,4.1,3.8h2.3c2.3,0,4.1-1.9,4.1-4.1v-12.2c0-2.1,1.7-3.8,3.8-3.8h2c2.3,0,4.2,1.9,4.2,4.2
					v2.7c0,2.2,1.8,3.9,3.9,3.9h1.7c2.4,0,4.4-2,4.4-4.4v-3.2c0-2.2,1.8-4,4-4h2.1c2.2,0,3.9,1.8,3.9,3.9v4.2c0,2.4,1.9,4.3,4.3,4.3
					h1.7c2.2,0,4.1-1.8,4.1-4.1v-3.7c0-2.1,1.7-3.8,3.8-3.8h2c2.3,0,4.2,1.6,4.2,3.8v15.2c0,2.3,1.7,4.2,4,4.2h1.9
					c2.3,0,4.2-1.9,4.2-4.2V234c0-1.9,1.6-3.5,3.5-3.5h2.7c2.6,0,4.7,2.1,4.7,4.7v1.8c0,2.4,2,4.4,4.4,4.4h0.9c2.3,0,4-1.9,4-4.3
					c0-2.3,1.8-4.3,4.1-4.3h2.4c2.3,0,4.1,1.9,4,4.3c0,2.3,1.8,4.3,4.1,4.3h1.7c1.6,0,3-1,3.7-2.3l-5.5-12.8
					c-7.8-18-26.5-28.8-46-26.3l-176.2,22.5c-2,0.3-4.1,0.7-6,1.2l-9.3,2.5c0.4,0.6,0.6,1.4,0.6,2.2V232.4z"/>
				<path fill="#00954E" d="M326.8,236.2h1.8c2.3,0,5.3-2.1,5.3-4.4v-3.1l-10,2.8v0.4C323.9,234.1,324.5,236.2,326.8,236.2z"/>
				<path fill="#00954E" d="M302.2,241.3c0,2.3,1.8,3.9,4.1,3.9h2.3c2.3,0,5.2-1.8,5.2-4v-7l-13.6,3.6
					C301.8,238.3,302.2,239.7,302.2,241.3z"/>
				<g>
					<path fill="#5E9E49" d="M336.7,259.2h2.3c1.5,0,2.8-1.1,3.4-2.5c-3,0.1-6,0.1-9.1,0.1C334.1,258.2,335.2,259.2,336.7,259.2z"/>
					<path fill="#5E9E49" d="M588.8,248.9c-0.4-2.1-1.1-4.4-2.2-6h0.4l-1.7-3.9c-0.7,1.4-2.1,2.3-3.7,2.3H580c-2.3,0-4.1-2-4.1-4.3
						c0-2.3-1.8-4.3-4.1-4.3h-2.4c-2.3,0-4.1,2-4.1,4.3c0,2.3-1.8,4.3-4.1,4.3h-1.7c-2.3,0-3.5-2.1-3.5-4.4V234
						c0-2.3-2.4-3.5-4.7-3.5h-1.8c-2.3,0-4.4,1.3-4.4,3.5v2.3c0,2.3-1.5,4.2-3.8,4.2H539c-2.3,0-4-2-4-4.2v-15.2
						c0-2.3-1.9-3.8-4.2-3.8h-1.7c-2.3,0-4.1,1.6-4.1,3.8v3.5c0,2.3-1.8,4.3-4.1,4.3h-1.7c-2.3,0-4.3-2-4.3-4.3v-4.1
						c0-2.3-1.7-4-3.9-4h-2.3c-2.3,0-3.8,1.8-3.8,4v3.5c0,2.3-2.1,4.1-4.4,4.1h-1.7c-2.3,0-3.9-1.8-3.9-4.1v-2.9
						c0-2.3-2-3.8-4.2-3.8h-1.8c-2.3,0-4.1,1.6-4.1,3.8v12.3c0,2.3-1.9,4-4.1,4h-2.3c-2.3,0-4.1-1.6-4.1-3.9c0-2.3-1.8-3.9-4.1-3.9
						h-1.7c-2.3,0-3.8,1.4-3.8,3.7v13.4c0,2.3-2.2,4.5-4.4,4.5h-12.3c-2.3,0-15.9,0-18.1,0h-9.2c0,0-4.2,0-9.4,0s-7.2-4.3-7.2-6.6
						c0-2.3-1.8-4.3-4.1-4.3h-2.4c-2.3,0-4.1,2-4.1,4.3c0,2.3-1.8,4.3-4.1,4.3h-1.8c-2.3,0-3.5-2.1-3.5-4.4v-2.9
						c0-2.3-2.4-3.5-4.7-3.5h-1.8c-2.3,0-4.4,1.3-4.4,3.5v2.3c0,2.3-1.5,4.2-3.8,4.2h-2.3c-2.3,0-4-2-4-4.2v-15.2
						c0-2.3-1.9-3.8-4.2-3.8h-1.8c-2.3,0-4.1,1.6-4.1,3.8v3.5c0,2.3-1.8,4.3-4.1,4.3h-1.8c-2.3,0-4.3-2-4.3-4.3v-4.1
						c0-0.8-0.2-1.6-0.6-2.2l-9.4,2.6v3.1c0,2.3-2.1,4.1-4.4,4.1h-1.8c-2.3,0-3.9-1.8-3.9-4.1v-0.4l-10.1,2.8v7c0,2.3-1.9,4-4.1,4
						h-2.3c-2.3,0-4.1-1.6-4.1-3.9c0-1.7-1-3-2.5-3.6l-6.9,1.9c-0.2,0.5-0.3,1-0.3,1.5v9.6c3.6,3.3,6.4,7.8,8.9,11.7
						c0.1,0.2,0.3,0.5,0.4,0.7v-4c0-1.5,0.9-2.7,2.2-3.4c0,0,0,0,0,0c0.7-0.4,1.5-0.6,2.2-0.6h2.3c1.1,0,2.1,0.4,2.9,1.1h0
						c0.8,0.7,1.2,1.7,1.2,2.9v12.3c0,2.3,1.8,4.6,4.1,4.6h1.8c2.3,0,4.2-2.4,4.2-4.6v-21.6c0-2.3,1.7-3.9,3.9-3.9h1.8
						c2.3,0,4.4,1.7,4.4,3.9v4.7c0,0.8,0.2,1.5,0.5,2.2c3,0,6-0.1,9.1-0.1c0.3-0.7,0.5-1.4,0.5-2.1v-4.1c0-2.3,2-3.8,4.3-3.8h1.8
						c2.3,0,4.1,1.5,4.1,3.8v21.6c0,2.3,1.9,4.1,4.1,4.1h1.8c2.3,0,4.2-1.8,4.2-4.1v-9.9c0-2.3,1.7-3.8,4-3.8h2.3
						c2.3,0,3.8,1.6,3.8,3.8v2.3c0,2.2,2.1,3.9,4.3,3.9h1.9c0.1,0,0.3,0.1,0.4,0.1c2.2-0.1,4.3-1.8,4.3-4v-1.7
						c0-2.3,1.3-3.6,3.5-3.6h1.8c2.3,0,4,1.4,4,3.6v8.8c0,2.3,1.9,4.6,4.2,4.6h2.4c2.3,0,4.3-2.4,4.3-4.6v-8.8c0-1.1,0.4-2,1.1-2.7
						c0.6,0.4,1.3,0.6,2.1,0.6h1.9c2.3,0,4.1,2,4.1,4.3v1.8c0,2.3,1.8,4,4,4h2.3c2.3,0,3.7-1.8,3.7-4v0c0.5-0.6,0.8-1.4,0.8-2.2
						v-1.8c0.8-1.2,2.3-2,3.7-2h22.2c2.3,0,4.3,2,4.3,4.3v4.7c0,2.3,1.6,4.2,3.9,4.2h1.8c2.3,0,4.4-2,4.4-4.2V265
						c0-2.3,1.5-4.3,3.8-4.3h1.7c0.1,0,0.1,0.1,0.1,0.1c1.8-0.1,3.1-1.2,3.5-2.8c-14.5-0.6-29-1.1-43.5-1.4
						c-3.2-0.1-6.4-0.1-9.6-0.2c-6.4-0.1-12.8-0.2-19.2-0.3c6.4,0.1,12.8,0.1,19.2,0.3c3.2,0.1,6.4,0.1,9.6,0.2
						c14.5,0.3,29,0.8,43.5,1.4c0.1-0.4,0.2-0.8,0.2-1.2v-5.3c0-2.3,2.1-4,4.4-4h2.3c2.3,0,4.1,1.7,4.1,4v12.3
						c0,2.3,1.8,4.6,4.1,4.6h1.8c2.3,0,4.2-2.4,4.2-4.6v-21.6c0-2.3,1.7-3.9,3.9-3.9h1.7c2.3,0,4.4,1.7,4.4,3.9v4.7
						c0,2.3,1.5,4.5,3.8,4.5h2.3c2.3,0,3.9-2.3,3.9-4.5v-4.1c0-2.3,2-3.8,4.3-3.8h1.7c2.3,0,4.1,1.5,4.1,3.8v21.6
						c0,2.3,1.9,4.1,4.1,4.1h1.7c2.3,0,4.2-1.8,4.2-4.1v-9.9c0-2.3,1.7-3.8,4-3.8h2.3c2.3,0,3.8,1.6,3.8,3.8v2.3
						c0,2.2,2.1,3.9,4.3,3.9h1.9c0.1,0,0.3,0.1,0.4,0.1c2.2-0.1,4.3-1.8,4.3-4V255c0-2.3,1.3-3.6,3.5-3.6h1.7c2.3,0,4,1.4,4,3.6v8.8
						c0,2.3,1.9,4.6,4.2,4.6h2.4c2.3,0,4.3-2.4,4.3-4.6V255c0-2.3,1.6-3.6,3.9-3.6h1.7c2.3,0,3.6,1.4,3.6,3.6v1.7
						c0,0.8,0.3,1.5,0.7,2.1C588.6,256.5,589.5,252.8,588.8,248.9z"/>
				</g>
			</g>
			<path fill="#CCA77C" d="M380.1,277.1l86,11c1,0.1,2,0.3,3,0.6l29.3,8c14.1,3.9,20.3,20.3,12.3,32.5l0,0c-4,6-10.7,9.7-17.9,9.7
				H369.2c-15.4,0-25.8-15.8-19.7-30l8.2-19C361.4,281.1,370.6,275.9,380.1,277.1z"/>
			<path fill="#BF9E80" d="M510.5,329.2c-2,3-4.7,5.6-7.7,7.2c-3.1,1.7-6.6,2.7-10.2,2.7h-102l68.6-51.9l6.9,0.8c1,0.1,2,0.3,3,0.6
				l29.3,8C512.4,300.6,518.6,317,510.5,329.2z"/>
			<path fill="#CCA77C" d="M226.8,204.7l-133.3,70c-19.7,10.4-12.4,40.2,9.9,40.2h203.4c19,0,28.5-23,15-36.4l-70.2-70
				C245.2,201.9,235.1,200.4,226.8,204.7z"/>
			<path fill="#BF9E80" d="M306.9,315.2H147.6l120-90.7l54.3,54.2C335.4,292.1,325.9,315.2,306.9,315.2z"/>
			<path fill="#00954E" d="M501.5,298.2H354.2l3.4-8.1c3.8-8.8,12.9-14.1,22.5-12.9l86,10.9c1,0.1,2,0.3,3,0.6l29.3,8.2
				C499.4,297.2,500.5,297.2,501.5,298.2z"/>
			<g>
				<path fill="#00954E" d="M121.9,268.8v-8.2l-26.4,13.6h20.1C118.2,274.2,121.9,271.5,121.9,268.8z"/>
				<path fill="#00954E" d="M132.9,268.8c0,2.7,1.5,5.4,4.1,5.4h14.6c2.7,0,5.3-2.7,5.3-5.4v-15.9c0-2.7,1.7-4.7,4.4-4.7h2.1
					c2.7,0,4.9,1.8,4.9,4.5c0,2.7,2.2,4.5,4.9,4.5h2.8c2.7,0,5-1.6,5-4.3v-14.6c0-2.7,2-5.1,4.7-5.1h2.1c2.7,0,6.3,2.5,6.3,5.1v3.5
					c0,2.7,0.8,5.4,3.4,5.4h2.1c2.7,0,5.5-2.7,5.5-5.4v-4.2c0-2.7,1.5-4.5,4.2-4.5h2.8c2.7,0,6,1.8,6,4.5v4.9c0,2.7,1,4.7,3.7,4.7
					h2.1c2.7,0,5.2-2,5.2-4.7v-4.2c0-2.7,1.8-5.1,4.5-5.1h2.1c2.7,0,5.5,2.5,5.5,5.1v18c0,2.7,1.6,4.8,4.2,4.8h2.8
					c2.7,0,5-2.2,5-4.8v-2.8c0-2.7,2-4.4,4.7-4.4h2.1c2.7,0,6.2,1.7,6.2,4.4v3.5c0,2.7,0.8,5.1,3.5,5.1h2.1c2.7,0,4.9-2.3,4.9-5
					c0-2.7,2.2-5,4.9-5h0.1h2.7h0.1c2.7,0,4.9,2.3,4.9,5c0,2.7,2.2,5,4.9,5h2.1c2.6,0,4.8-2.2,4.8-4.8l-48.9-48.8
					c-6.6-6.6-16.7-8.1-25-3.8l-95.6,50.4c0.8,0.9,1.7,2,1.7,3.3V268.8z"/>
				<path fill="#00904E" d="M256.9,213.2c-1,0.9-1,2.3-1,3.8v5.2c0,2.9-3.6,6-6.5,6h-3c-2.9,0-3.5-3.2-3.5-6v-5.9c0-2.9-4-5-6.8-5
					h-2.2c-2.9,0-3.9,2.2-3.9,5v19.6c0,0.7-1,1.6-1,2.5v4.2c0,2.7-2.6,4.7-5.2,4.7h-2.1c-2.7,0-3.7-2-3.7-4.7v-4.9c0-1-1-1.9-1-2.6
					v-7c0-1.1-1-2.2-1-3.1v-14.1l11.3-6.1c8.2-4.3,18.5-2.8,25.1,3.8L256.9,213.2z"/>
				<path fill="#00954E" d="M84.9,282.6c-0.5,0.8-0.9,1.6-1.3,2.6H89C87.2,285.2,85.7,284.1,84.9,282.6z"/>
				<path fill="#80A643" d="M300.7,257.4c-0.1,2.6-2.3,4.8-4.9,4.8h-2.1c-2.7,0-4.9-2.3-4.9-5c0-2.7-2.2-5-4.9-5h-0.1h-2.7h-0.1
					c-2.7,0-4.9,2.3-4.9,5c0,2.7-2.2,5-4.9,5h-2.1c-2.7,0-3.5-2.5-3.5-5.1v-3.5c0-2.7-3.5-4.4-6.2-4.4h-2.1c-2.7,0-4.7,1.7-4.7,4.4
					v2.8c0,2.7-2.3,4.8-5,4.8h-2.8c-2.7,0-4.2-2.2-4.2-4.8v-18c0-2.7-2.8-5.1-5.5-5.1h-2.1c-2.7,0-4.5,2.5-4.5,5.1v4.2
					c0,2.7-2.6,4.7-5.2,4.7h-2.1c-2.7,0-3.7-2-3.7-4.7v-4.9c0-2.7-3.3-4.5-6-4.5h-2.8c-2.7,0-4.2,1.8-4.2,4.5v4.2
					c0,2.7-2.8,5.4-5.5,5.4h-2.1c-2.7,0-3.4-2.7-3.4-5.4v-3.5c0-2.7-3.6-5.1-6.3-5.1h-2.1c-2.7,0-4.7,2.5-4.7,5.1v14.6
					c0,2.7-2.4,4.3-5,4.3H173c-2.7,0-4.9-1.8-4.9-4.5c0-2.7-2.2-4.5-4.9-4.5h-2.1c-2.7,0-4.4,2-4.4,4.7v15.9c0,2.7-2.6,5.4-5.3,5.4
					H137c-2.7,0-4.1-2.7-4.1-5.4v-10.4c0-1.3-0.1-2.5-0.9-3.3l-10.1,5.5v8.2c0,2.7-3.7,5.4-6.3,5.4H95.5l-1.9,0.8
					c-3.9,2.1-6.8,4.7-8.7,7.9c0.8,1.5,2.3,2.4,4.1,2.4h0.2h2.1c2.7,0,5.6,2.4,5.6,5.1v2.1c0,2.7,1.4,4.8,4.1,4.8h2.8
					c2.7,0,5.1-2.1,5.1-4.8v-2.1c0-2.7,1.9-5.1,4.6-5.1h26.3c2.7,0,6.1,2.4,6.1,5.1v5.5c0,2.7,0.9,5.3,3.6,5.3h2.1
					c2.7,0,5.3-2.7,5.3-5.3v-5.5c0-2.7,1.7-5.1,4.4-5.1h2.1c0.1,0,0.6,0.1,0.7,0.1c2.6-0.1,4.9-2.1,4.9-4.7v-6.2
					c0-2.7,1.5-5.2,4.2-5.2h2.8c2.7,0,5,2.5,5,5.2v11.1v3.5c0,2.7,2,5.3,4.7,5.3h2.1c2.7,0,6.3-2.6,6.3-5.3v-3.5v-22.2
					c0-2.7,0.8-5.1,3.4-5.1h2.1c2.7,0,5.5,2.4,5.5,5.1v5.5c0,2.7,1.5,5.4,4.2,5.4h2.8c2.7,0,6-2.7,6-5.4V264c0-2.7,1-4.8,3.7-4.8
					h2.1c2.7,0,5.2,2.1,5.2,4.8v21.5v4.2c0,2.7,1.8,5.6,4.5,5.6h2.1c2.7,0,5.5-2.9,5.5-5.6v-4.2v-7.6c0-2.7,1.6-4.6,4.2-4.6h2.8
					c2.7,0,5,2,5,4.6v2.8c0,2.6,1.9,4.6,4.5,4.6h0.2h2.1c0.1,0,0.7,0.1,0.8,0.1c2.6-0.1,5.4-2.1,5.4-4.7v-2.1c0-2.7,0.8-4.3,3.5-4.3
					h2.1c2.7,0,5.4,1.7,5.4,4.3v6.9v3.5c0,2.7,1.6,5.3,4.3,5.3h0.1h2.7h0.1c2.7,0,5.9-2.6,5.9-5.3v-3.5v-6.9c0-2.7,1.2-4.3,3.8-4.3
					h2.1c2.7,0,5.1,1.7,5.1,4.3v2.1c0,2.6,1.8,4.6,4.4,4.6h0.2h2.1c0.1,0,0.7,0.1,0.8,0.1c2.6-0.1,5.5-2.1,5.5-4.7v-2.8
					c0-2.4,1.1-4.4,3.4-4.8L300.7,257.4z"/>
				<path fill="#5E9E49" d="M317.2,273.1c-2.3,0.4-3.4,2.4-3.4,4.8v2.8c0,2.6-3.5,4.6-6.1,4.6h-2.5c-2.6,0-4.4-2-4.4-4.6v-2.1
					c0-2.7-2.4-4.3-5.1-4.3h-2.1c-2.7,0-3.8,1.7-3.8,4.3v10.4c0,2.7-3.2,5.3-5.9,5.3h-2.8c-2.7,0-4.3-2.6-4.3-5.3v-10.4
					c0-2.7-2.7-4.3-5.4-4.3h-2.1c-2.7,0-3.5,1.7-3.5,4.3v2.1c0,2.6-3.4,4.6-6,4.6h-2.5c-2.6,0-4.5-2-4.5-4.6v-2.8
					c0-2.7-2.3-4.6-5-4.6h-2.8c-2.7,0-4.2,2-4.2,4.6v11.8c0,2.7-2.8,5.6-5.5,5.6h-2.1c-2.7,0-4.5-2.9-4.5-5.6V264
					c0-2.7-2.6-4.8-5.2-4.8h-2.1c-2.7,0-3.7,2.1-3.7,4.8v4.9c0,2.7-3.3,5.4-6,5.4h-2.8c-2.7,0-4.2-2.7-4.2-5.4v-5.5
					c0-2.7-2.8-5.1-5.5-5.1h-2.1c-2.7,0-3.4,2.4-3.4,5.1v25.6c0,2.7-3.6,5.3-6.3,5.3h-2.1c-2.7,0-4.7-2.6-4.7-5.3v-14.6
					c0-1,0-2,0-2.9v-15.9c0-0.8,0-1.7,0-2.7v-14.5c0-2.7,2-5.1,4.7-5.1h2.1c2.7,0,6.3,2.5,6.3,5.1v3.5c0,2.7,0.8,5.4,3.4,5.4h2.1
					c2.7,0,5.5-2.7,5.5-5.4v-4.2c0-2.7,1.5-4.5,4.2-4.5h2.8c2.7,0,6,1.8,6,4.5v4.9c0,2.7,1,4.7,3.7,4.7h2.1c2.7,0,5.2-2,5.2-4.7
					v-4.2c0-2.7,1.8-5.1,4.5-5.1h2.1c2.7,0,5.5,2.5,5.5,5.1v18c0,2.7,1.6,4.8,4.2,4.8h2.8c2.7,0,5-2.2,5-4.8v-2.8
					c0-2.7,2-4.4,4.7-4.4h2.1c2.7,0,6.2,1.7,6.2,4.4v3.5c0,2.7,0.8,5.1,3.5,5.1h2.1c2.7,0,4.8-2.3,4.8-5c0-2.7,2.2-5,4.9-5h2.8
					c2.7,0,4.9,2.3,4.9,5c0,2.7,2.2,5,4.8,5h2.1c2.6,0,5.1-2.2,5.2-4.8L317.2,273.1z"/>
			</g>
		</g>
		<path fill="#CB9EA3" d="M296.5,202.6"/>
	</g>
	<g>
		<path fill="#C7C7C7" d="M120.1,112.8v0.4c0,2.7,2.2,5,5,5h0c2.7,0,5,2.2,5,5v0.5c0,2.7-2.2,5-5,5H93.6c-2.7,0-5-2.2-5-5v-0.5
			c0-2.7,2.2-5,5-5h0.5c2.7,0,5-2.2,5-5v-0.4c0-2.7-2.2-5-5-5H72.9c-2.7,0-5-2.2-5-5v-0.5c0-2.7,2.2-5,5-5h73.4c2.7,0,5,2.2,5,5v0.5
			c0,2.7-2.2,5-5,5h-21.2C122.4,107.8,120.1,110,120.1,112.8z"/>
		<path fill="#E0E0E0" d="M57.5,72.2v-0.7c0-2.7-2.2-4.9-4.9-4.9H41.8c-2.7,0-4.9-2.2-4.9-4.9v-0.6c0-2.7,2.2-4.9,4.9-4.9h72.9
			c2.7,0,4.9,2.2,4.9,4.9v0.6c0,2.7-2.2,4.9-4.9,4.9H72.9c-2.7,0-4.9,2.2-4.9,4.9v0.7c0,2.7,2.2,4.9,4.9,4.9h11
			c2.7,0,4.9,2.2,4.9,4.9v0.6c0,2.7-2.2,4.9-4.9,4.9h-0.9c-2.7,0-4.9,2.2-4.9,4.9v0.5c0,2.7,2.2,4.9,4.9,4.9h11.2
			c2.7,0,4.9,2.2,4.9,4.9v0.6c0,2.7-2.2,4.9-4.9,4.9H41.8c-2.7,0-4.9-2.2-4.9-4.9v-0.6c0-2.7,2.2-4.9,4.9-4.9h0
			c2.7,0,4.9-2.2,4.9-4.9v-0.5c0-2.7-2.2-4.9-4.9-4.9H4.9c-2.7,0-4.9-2.2-4.9-4.9v-0.6C0,79.2,2.2,77,4.9,77h47.7
			C55.3,77,57.5,74.9,57.5,72.2z"/>
		<path fill="#E0E0E0" d="M150.8,113.4v-0.7c0-2.7-2.2-4.9-4.9-4.9h-10.8c-2.7,0-4.9-2.2-4.9-4.9v-0.6c0-2.7,2.2-4.9,4.9-4.9h72.9
			c2.7,0,4.9,2.2,4.9,4.9v0.6c0,2.7-2.2,4.9-4.9,4.9h-41.8c-2.7,0-4.9,2.2-4.9,4.9v0.7c0,2.7,2.2,4.9,4.9,4.9h11
			c2.7,0,4.9,2.2,4.9,4.9v0.6c0,2.7-2.2,4.9-4.9,4.9h-0.9c-2.7,0-4.9,2.2-4.9,4.9v0.5c0,2.7,2.2,4.9,4.9,4.9h11.2
			c2.7,0,4.9,2.2,4.9,4.9v0.6c0,2.7-2.2,4.9-4.9,4.9h-52.5c-2.7,0-4.9-2.2-4.9-4.9v-0.6c0-2.7,2.2-4.9,4.9-4.9h0
			c2.7,0,4.9-2.2,4.9-4.9v-0.5c0-2.7-2.2-4.9-4.9-4.9h-10.4c-2.7,0-4.9-2.2-4.9-4.9v-0.6c0-2.7,2.2-4.9,4.9-4.9H146
			C148.7,118.3,150.8,116.1,150.8,113.4z"/>
	</g>
	<g>
		<path fill="#C7C7C7" d="M529.9,165.7v0.4c0,2.7-2.2,5-5,5l0,0c-2.7,0-5,2.2-5,5v0.5c0,2.7,2.2,5,5,5h31.5c2.7,0,5-2.2,5-5V176
			c0-2.7-2.2-5-5-5h-0.5c-2.7,0-5-2.2-5-5v-0.4c0-2.7,2.2-5,5-5h21.2c2.7,0,5-2.2,5-5v-0.5c0-2.7-2.2-5-5-5h-73.4c-2.7,0-5,2.2-5,5
			v0.5c0,2.7,2.2,5,5,5h21.2C527.6,160.7,529.9,162.9,529.9,165.7z"/>
		<path fill="#E0E0E0" d="M499.2,166.4v-0.7c0-2.7,2.2-4.9,4.9-4.9h10.8c2.7,0,4.9-2.2,4.9-4.9v-0.6c0-2.7-2.2-4.9-4.9-4.9h-72.9
			c-2.7,0-4.9,2.2-4.9,4.9v0.6c0,2.7,2.2,4.9,4.9,4.9h41.8c2.7,0,4.9,2.2,4.9,4.9v0.7c0,2.7-2.2,4.9-4.9,4.9h-11
			c-2.7,0-4.9,2.2-4.9,4.9v0.6c0,2.7,2.2,4.9,4.9,4.9h0.9c2.7,0,4.9,2.2,4.9,4.9v0.5c0,2.7-2.2,4.9-4.9,4.9h-11.2
			c-2.7,0-4.9,2.2-4.9,4.9v0.6c0,2.7,2.2,4.9,4.9,4.9h52.5c2.7,0,4.9-2.2,4.9-4.9v-0.6c0-2.7-2.2-4.9-4.9-4.9l0,0
			c-2.7,0-4.9-2.2-4.9-4.9v-0.5c0-2.7,2.2-4.9,4.9-4.9h10.4c2.7,0,4.9-2.2,4.9-4.9v-0.6c0-2.7-2.2-4.9-4.9-4.9H504
			C501.3,171.2,499.2,169,499.2,166.4z"/>
	</g>
	<g>
		<path fill="#A4A6A3" d="M526.9,56.8c-11.6,0-21,30.2-21,18.6V21.1c0-11.6,9.4-21.1,21-21.1c11.6,0,21,9.4,21,21.1v54.4
			C547.9,87,538.5,56.8,526.9,56.8z"/>
		<rect x="520.4" y="39.2" fill="#898B89" width="12.2" height="18.6"/>
		<polygon fill="#898B89" points="494,174.9 501.3,182.7 511.6,164.6 497.9,165.5 		"/>
		<polygon fill="#898B89" points="561.5,209.6 543.4,223.8 537.5,200.3 555.2,198.4 		"/>
		<polygon fill="#BDBEC0" points="556.5,301.2 498.5,301.2 505.7,145.5 549.3,145.5 		"/>
		<polygon fill="#AAABAD" points="515.3,145.5 508.2,301.2 517.8,301.2 525,145.5 		"/>
		<polygon fill="#AAABAD" points="534.6,145.5 527.4,301.2 537.1,301.2 544.3,145.5 		"/>
		<polygon fill="#AAABAD" points="546.7,301.2 556.5,301.2 551.6,195.4 		"/>
		<polygon fill="#B0B1B3" points="561.5,209.6 498.8,187.1 499.8,52.9 555.2,52.9 		"/>
		<polygon fill="#BDBEC0" points="559.1,139.6 494,174.9 499.8,52.9 555.2,52.9 		"/>
		<g>
			<path fill="#A4A6A3" d="M393.3,65.1h15.1c2.1,0,3.7-1.7,3.7-3.7v-7.5h-18.9c-3.1,0-5.6,2.5-5.6,5.6v0
				C387.7,62.6,390.2,65.1,393.3,65.1z"/>
			<path fill="#A4A6A3" d="M406.3,55.8h-1c-1.4,0-2.4-1.1-2.4-2.4v0c0-1.4,1.1-2.4,2.4-2.4h1c1.4,0,2.4,1.1,2.4,2.4v0
				C408.7,54.7,407.6,55.8,406.3,55.8z"/>
			<polygon fill="#A4A6A3" points="439.1,72.5 499.8,91.6 499.8,52.9 439.1,52.9 			"/>
			<polygon fill="#BDBEC0" points="415.1,77.4 499.8,66.1 499.8,52.9 408.7,52.9 			"/>
			<polygon fill="#BDBEC0" points="439.1,72.5 499.8,91.6 499.8,52.9 439.1,52.9 			"/>
		</g>
		<g>
			<path fill="#A4A6A3" d="M661.7,65.1h-15.1c-2.1,0-3.7-1.7-3.7-3.7v-7.5h18.9c3.1,0,5.6,2.5,5.6,5.6v0
				C667.3,62.6,664.8,65.1,661.7,65.1z"/>
			<path fill="#A4A6A3" d="M648.7,55.8h1c1.4,0,2.4-1.1,2.4-2.4v0c0-1.4-1.1-2.4-2.4-2.4h-1c-1.4,0-2.4,1.1-2.4,2.4v0
				C646.3,54.7,647.4,55.8,648.7,55.8z"/>
			<polygon fill="#A4A6A3" points="615.9,72.5 555.2,91.6 555.2,52.9 615.9,52.9 			"/>
			<polygon fill="#BDBEC0" points="639.9,77.4 555.2,66.1 555.2,52.9 646.3,52.9 			"/>
			<polygon fill="#BDBEC0" points="615.9,72.5 555.2,91.6 555.2,52.9 615.9,52.9 			"/>
		</g>
		<polygon fill="#898B89" points="411.2,63.7 443,74 421,72.5 		"/>
		<polygon fill="#898B89" points="643.3,63.7 611.5,74 633.5,72.5 		"/>
		<path fill="#BDBEC0" d="M538.9,46.9L527.5,51c-0.8,0.3-1.7,0.3-2.4,0l-10.9-4.1c-1.4-0.5-2.3-1.8-2.3-3.3V21.1
			c0-8.1,6.6-14.7,14.7-14.7h0c8.1,0,14.7,6.6,14.7,14.7v22.5C541.2,45,540.3,46.4,538.9,46.9z"/>
		<path fill="#CBCBCC" d="M541,21.1L541,21.1h-9.1c-1.5,0-2.7,1.2-2.7,2.7v8.8c0,1.5-1.2,2.7-2.7,2.7h0c-1.5,0-2.7-1.2-2.7-2.7v-8.8
			c0-1.5-1.2-2.7-2.7-2.7h-9.3c0-8.1,6.5-14.7,14.6-14.7c4.1,0,7.7,1.6,10.3,4.3C539.4,13.3,541,17,541,21.1z"/>
		<path fill="#A4A6A3" d="M543.9,19.6v0.3c0-0.6-1.4-1.2-2-1.8c-3.8-3.8-8.9-6.2-14.7-6.2c-6.7,0-12.3,3.1-16.3,8v-0.3
			c0-9.2,7-16.6,16.2-16.6c4.6,0,8.9,1.9,11.9,4.9C541.9,10.8,543.9,15,543.9,19.6z"/>
		<path fill="#BDBEC0" d="M526.5,5.3L526.5,5.3c-0.4,0-0.8,0.4-0.8,0.8v6.3c0,0.4,0.4,0.8,0.8,0.8l0,0c0.4,0,0.8-0.4,0.8-0.8V6.1
			C527.3,5.7,527,5.3,526.5,5.3z"/>
		<g>
			<polygon fill="#A4A6A3" points="530.2,37.7 522.4,37.7 522.9,36.7 529.7,36.7 			"/>
			<polygon fill="#CBCBCC" points="530.2,37.7 522.4,37.7 522.9,38.7 529.7,38.7 			"/>
		</g>
		<polygon fill="#CBCBCC" points="557.1,90.6 556.9,90.6 556.9,90.3 		"/>
		<polygon fill="#B0B1B3" points="496.9,109.2 498,91 496.9,90.6 443.3,52.9 457.2,52.9 496.9,90.6 556.9,90.6 540,91.1 		"/>
		<polygon fill="#CCCDCF" points="561.5,209.6 532.4,199.2 543.2,52.9 555.2,52.9 		"/>
	</g>
	<path fill="#BF9E80" d="M277,50.2"/>
	<line fill="none" stroke="#514E4D" stroke-width="3" stroke-miterlimit="10" x1="387.4" y1="158.2" x2="387.4" y2="174.2"/>
	<g>
		<path fill="#FDBA63" d="M392.3,197.7h-11.7c-4.2,0-7.7-3.4-7.7-7.7v-11.7c0-4.2,3.4-7.7,7.7-7.7h11.7c4.2,0,7.7,3.4,7.7,7.7V190
			C400,194.3,396.6,197.7,392.3,197.7z"/>
		<g>
			<path fill="#E49B19" d="M396.1,181.3c0,0.8-0.7,2-1.5,2h-5.8v-8h1.7C393.7,175.2,396.1,178.2,396.1,181.3z"/>
			<path fill="#E49B19" d="M385.9,175.2v8h-7.5c-0.8,0-1.5-1.2-1.5-2c0-3.1,2.5-6,5.5-6H385.9z"/>
		</g>
	</g>
	<line fill="none" stroke="#4E4C4B" stroke-width="8" stroke-miterlimit="10" x1="378.4" y1="154.2" x2="396" y2="162.6"/>
	<path fill="#E49B19" d="M400.9,189.2v0.8c0,4.2-4.3,8.2-8.5,8.2h-11.7c-4.2,0-6.8-3.9-6.8-8.2v-0.8H400.9z"/>
	<path fill="#E0E0E0" d="M592.5,125.1v-0.7c0-2.7,2.2-4.9,4.9-4.9h10.8c2.7,0,4.9-2.2,4.9-4.9v-0.6c0-2.7-2.2-4.9-4.9-4.9h-72.9
		c-2.7,0-4.9,2.2-4.9,4.9v0.6c0,2.7,2.2,4.9,4.9,4.9h41.8c2.7,0,4.9,2.2,4.9,4.9v0.7c0,2.7-2.2,4.9-4.9,4.9h-11
		c-2.7,0-4.9,2.2-4.9,4.9v0.6c0,2.7,2.2,4.9,4.9,4.9h0.9c2.7,0,4.9,2.2,4.9,4.9v0.5c0,2.7-2.2,4.9-4.9,4.9h-11.2
		c-2.7,0-4.9,2.2-4.9,4.9v0.6c0,2.7,2.2,4.9,4.9,4.9h52.5c2.7,0,4.9-2.2,4.9-4.9v-0.6c0-2.7-2.2-4.9-4.9-4.9l0,0
		c-2.7,0-4.9-2.2-4.9-4.9v-0.5c0-2.7,2.2-4.9,4.9-4.9h36.9c2.7,0,4.9-2.2,4.9-4.9v-0.6c0-2.7-2.2-4.9-4.9-4.9h-47.7
		C594.7,130,592.5,127.8,592.5,125.1z"/>
</g>
</svg>
