<?xml version="1.0" encoding="utf-8"?>
<!-- Generator: Adobe Illustrator 18.0.0, SVG Export Plug-In . SVG Version: 6.00 Build 0)  -->
<!DOCTYPE svg PUBLIC "-//W3C//DTD SVG 1.1//EN" "http://www.w3.org/Graphics/SVG/1.1/DTD/svg11.dtd">
<svg version="1.1" id="Layer_1" xmlns="http://www.w3.org/2000/svg" xmlns:xlink="http://www.w3.org/1999/xlink" x="0px" y="0px"
	 viewBox="0 0 125 123" width="125" height="123" enable-background="new 0 0 125 123" xml:space="preserve">
<g id="armleft">
	<g>
		<path fill="#EF5D5F" d="M100.9,20.3c-0.8-0.1-1.5-0.6-2-1.3c-0.8-1-1.3-2.2-1.3-3.5c-0.1-3.5,3.1-6.7,2.5-10.1
			c-0.3-2-1.8-3.6-3.3-5.1c2.7,2,5.3,4.2,7.3,6.9c2.1,2.7,3.5,5.9,3.6,9.2c0,0.9-0.1,1.8-0.5,2.5c-0.5,0.9-1.5,1.4-2.5,1.6
			c-1,0.2-2,0.2-3,0.1L100.9,20.3z"/>
	</g>
	<g>
		<path fill="#F17565" d="M105.1,16.7c-0.1,0.5-0.5,0.8-0.9,1.1c-0.1,0.1-0.2,0.1-0.3,0.2c0,0,0,0-0.1,0c-0.5,0.1-1.1,0.1-1.7,0.1
			l-0.5-0.3c-0.5,0-0.9-0.3-1.1-0.7c-0.1-0.1-0.1-0.1-0.2-0.2c-0.1-0.1-0.1-0.3-0.2-0.4c-0.3-1-0.1-2.2,0-3.2
			c0.3-0.7,0.6-1.4,0.8-2.2c0.3,0.2,0.7,0.4,1,0.7c1.3,0.9,2.4,2.2,3,3.8C105.1,15.9,105.2,16.3,105.1,16.7z"/>
	</g>
	<g>
		<path fill="#FDBA63" d="M116.1,65.2l-4-16.2c-0.1-0.3-0.2-0.6-0.3-0.8L99.3,22.3c-0.8-1.6-0.5-3.4,0.7-4.4l4.1-3.7
			c0.8-0.7,2-0.9,3-0.5l0.8,0.3c1.1,0.5,2,1.6,2.2,2.9l6.1,29.8c0,0.2,0.1,0.4,0.2,0.6l6.1,16.2c0.5,1.4,0.3,2.9-0.6,3.8l-0.9,1
			c-0.2,0.2-0.5,0.3-0.8,0.2l-1.7-0.5C117.4,67.7,116.4,66.6,116.1,65.2z"/>
		<path fill="#FBAB18" d="M110.1,16.9c-0.3-1.3-1.1-2.4-2.2-2.9l-0.8-0.3c-0.1-0.1-0.2-0.1-0.4-0.1c1,3.5,1.7,6.9,2.1,10.5
			c0.6,5.5,0.4,11-1,16l3.9,8.1c0,0,0,0,0,0.1c1.4-1.4,2.6-3,3.9-4.6L110.1,16.9z"/>
		<path fill="#0081A9" d="M115.7,43.7c-1.2,1.6-2.5,3.2-3.9,4.6c0.1,0.2,0.2,0.5,0.3,0.8l0.9,3.8c1.5-1.1,2.9-2.4,4.1-3.9l-0.6-1.6
			c-0.1-0.2-0.1-0.4-0.2-0.6L115.7,43.7z"/>
		<path fill="#FFE08C" d="M113.1,31l0.6,3.1c-1.2-0.2-2.4-1.5-3.3-2.8c-0.2,0.3-0.4,0.4-0.7,0.6c-0.6,0.4-1.7,0.1-2.1-0.7
			c-0.7-1.6-1.4-3.2-2.1-4.8c0,2,0.3,4.2,0.3,6.1c0,0.9-0.1,1.7-0.5,2.3l-1.8-3.7c0-0.9-0.1-1.7-0.1-2.6c-0.2-2.3-0.2-4.5,0.5-6.6
			c0.3-0.9,1.6-0.8,2,0c0.7,1.3,1.4,2.7,2,4.1c0.1,0.2,0.6,1.6,1,2.6c0.2-0.3,0.3-0.4,0.6-0.6c0.6-0.4,1.2-0.1,1.6,0.5
			C111.4,28.8,112.3,30.3,113.1,31z"/>
	</g>
	<g>
		<g>
			<path fill="#6B461F" d="M100.6,83.8c-0.7,0-1.4-0.3-1.9-0.8L74.6,58.9c-1-1-1-2.7,0-3.8c1-1,2.7-1,3.8,0l22.5,22.4l19-15.1
				c1.2-0.9,2.8-0.7,3.8,0.4c0.9,1.2,0.7,2.8-0.4,3.8l-20.8,16.6C101.8,83.6,101.2,83.8,100.6,83.8z"/>
		</g>
		<g>
			<path fill="#FBAB18" d="M87,71.8c-1.1,0-2.2-0.4-3-1.2L73.4,60c-1.7-1.7-1.7-4.4,0-6c1.7-1.7,4.4-1.7,6,0L90,64.6
				c1.7,1.7,1.7,4.4,0,6C89.2,71.4,88.1,71.8,87,71.8z"/>
		</g>
	</g>
	<g>
		<path fill="#84582B" d="M122.9,66.9l-2.8,1.6c-2.1,1.2-4.7,0.5-5.9-1.5l0,0c-1.2-2.1-0.5-4.7,1.5-5.9l2.8-1.6
			c2.1-1.2,4.7-0.5,5.9,1.5l0,0C125.6,63,125,65.7,122.9,66.9z"/>
	</g>
</g>
<g>
	<g>
		<polygon fill="#FDBA63" points="60,81.7 49.5,71.2 69.4,43.6 88.2,62.4 		"/>
	</g>
	<g>
		<polygon fill="#FBAB18" points="88.2,62.4 65.2,78 67.2,46.6 69.4,43.6 		"/>
	</g>
	<g>
		<g>
			<polygon fill="#9CC638" points="67.2,78 60.7,83.3 48,72.9 54.4,64.7 			"/>
		</g>
	</g>
	<g>
		<circle fill="#6B461F" cx="84.5" cy="46.3" r="15.4"/>
		<path fill="#7B5126" d="M99.9,46.3c0,8.5-6.9,15.4-15.4,15.4c-6,0-11.1-3.4-13.6-8.2c2.6,1.9,5.7,3,9.1,3
			c8.4,0,15.4-6.9,15.4-15.4c0-2.6-0.6-5-1.7-7C97.4,36.7,99.9,41.1,99.9,46.3z"/>
	</g>
</g>
<g id="armright">
	<g>
		<g>
			<path fill="#6B461F" d="M71.4,56.2c-0.7,0-1.4-0.3-1.9-0.8l-22-23L28.1,47c-1.2,0.9-2.9,0.7-3.7-0.5c-0.9-1.2-0.7-2.9,0.5-3.7
				l21.2-16c1.1-0.8,2.6-0.7,3.5,0.3l23.5,24.7c1,1.1,1,2.8-0.1,3.8C72.7,56,72,56.2,71.4,56.2z"/>
		</g>
		<g>
			<path fill="#FDBA63" d="M71.4,57.8c-1.1,0-2.3-0.4-3.1-1.3L58,45.7c-1.6-1.7-1.6-4.4,0.1-6c1.7-1.6,4.4-1.6,6,0.1l10.4,10.8
				c1.6,1.7,1.6,4.4-0.1,6C73.5,57.4,72.4,57.8,71.4,57.8z"/>
		</g>
	</g>
	<g>
		<path fill="#84582B" d="M32.7,48.3l-2.8,1.6c-2.1,1.2-4.7,0.5-5.9-1.5l0,0c-1.2-2.1-0.5-4.7,1.5-5.9l2.8-1.6
			c2.1-1.2,4.7-0.5,5.9,1.5l0,0C35.4,44.4,34.7,47.1,32.7,48.3z"/>
	</g>
</g>
<g id="leftleg">
	<g>
		<g>
			<path fill="#6B461F" d="M73.2,119c-0.3,0-0.7-0.1-1-0.2c-1.4-0.6-2-2.1-1.4-3.5L80.3,93L52.6,77.2c-1.3-0.7-1.7-2.4-1-3.6
				c0.7-1.3,2.4-1.7,3.6-1l29.7,16.9c1.2,0.7,1.7,2.1,1.1,3.4l-10.4,24.5C75.3,118.4,74.3,119,73.2,119z"/>
		</g>
		<g>
			<g>
				<path fill="#9CC638" d="M66.9,86.5c-0.7,0-1.4-0.2-2.1-0.6l-13-7.4c-2-1.2-2.8-3.8-1.6-5.8s3.8-2.8,5.8-1.6l13,7.4
					c2,1.2,2.8,3.8,1.6,5.8C69.9,85.8,68.4,86.5,66.9,86.5z"/>
			</g>
		</g>
	</g>
	<g>
		<path fill="#FDBA63" d="M76.9,112.9l2.8,1.6c2.1,1.2,2.7,3.9,1.5,5.9l0,0c-1.2,2.1-3.9,2.7-5.9,1.5l-2.8-1.6
			c-2.1-1.2-2.7-3.9-1.5-5.9l0,0C72.2,112.4,74.9,111.7,76.9,112.9z"/>
	</g>
</g>
<g id="rightleg">
	<g>
		<g>
			<path fill="#6B461F" d="M28.8,99.7c-0.6,0-1.2-0.2-1.7-0.6L6.6,82.3c-1.1-0.9-1.3-2.6-0.4-3.8c0.9-1.1,2.6-1.3,3.8-0.4l18.8,15.4
				l22.8-22.1c1.1-1,2.7-1,3.8,0.1c1,1.1,1,2.7-0.1,3.8L30.7,98.9C30.2,99.4,29.5,99.7,28.8,99.7z"/>
		</g>
		<g>
			<g>
				<path fill="#9CC638" d="M42.6,87.9c-1.1,0-2.2-0.4-3.1-1.3c-1.6-1.7-1.6-4.4,0.1-6l10.7-10.4c1.7-1.6,4.4-1.6,6,0.1
					s1.6,4.4-0.1,6L45.6,86.7C44.8,87.5,43.7,87.9,42.6,87.9z"/>
			</g>
		</g>
	</g>
	<g>
		<path fill="#FDBA63" d="M9.2,84.5l-2.8,1.6c-2.1,1.2-4.7,0.5-5.9-1.5l0,0c-1.2-2.1-0.5-4.7,1.5-5.9l2.8-1.6
			c2.1-1.2,4.7-0.5,5.9,1.5l0,0C12,80.7,11.3,83.2,9.2,84.5z"/>
	</g>
</g>
</svg>
