<?xml version="1.0" encoding="utf-8"?>
<!-- Generator: Adobe Illustrator 18.0.0, SVG Export Plug-In . SVG Version: 6.00 Build 0)  -->
<!DOCTYPE svg PUBLIC "-//W3C//DTD SVG 1.1//EN" "http://www.w3.org/Graphics/SVG/1.1/DTD/svg11.dtd">
<svg version="1.1" id="Layer_1" xmlns="http://www.w3.org/2000/svg" xmlns:xlink="http://www.w3.org/1999/xlink" x="0px" y="0px"
	 viewBox="0 0 625.3 300" enable-background="new 0 0 625.3 300" xml:space="preserve">
<g>
	<g>
		<g>
			<path fill="#C7C7C7" d="M547.8,176.9v0.4c0,2.3-1.8,4.1-4.1,4.1l0,0c-2.3,0-4.1,1.8-4.1,4.1v0.4c0,2.3,1.8,4.1,4.1,4.1h26.1
				c2.3,0,4.1-1.8,4.1-4.1v-0.4c0-2.3-1.8-4.1-4.1-4.1h-0.4c-2.3,0-4.1-1.8-4.1-4.1v-0.4c0-2.3,1.8-4.1,4.1-4.1h17.5
				c2.3,0,4.1-1.8,4.1-4.1v-0.4c0-2.3-1.8-4.1-4.1-4.1h-60.8c-2.3,0-4.1,1.8-4.1,4.1v0.4c0,2.3,1.8,4.1,4.1,4.1h17.6
				C546,172.8,547.8,174.6,547.8,176.9z"/>
			<path fill="#E0E0E0" d="M599.7,143.3v-0.6c0-2.2,1.8-4,4-4h8.9c2.2,0,4-1.8,4-4v-0.5c0-2.2-1.8-4-4-4h-60.4c-2.2,0-4,1.8-4,4v0.5
				c0,2.2,1.8,4,4,4h34.6c2.2,0,4,1.8,4,4v0.6c0,2.2-1.8,4-4,4h-9.1c-2.2,0-4,1.8-4,4v0.5c0,2.2,1.8,4,4,4h0.7c2.2,0,4,1.8,4,4v0.4
				c0,2.2-1.8,4-4,4h-9.3c-2.2,0-4,1.8-4,4v0.5c0,2.2,1.8,4,4,4h43.5c2.2,0,4-1.8,4-4v-0.5c0-2.2-1.8-4-4-4l0,0c-2.2,0-4-1.8-4-4
				v-0.4c0-2.2,1.8-4,4-4h8.6c2.2,0,4-1.8,4-4v-0.5c0-2.2-1.8-4-4-4h-17.6C601.5,147.3,599.7,145.5,599.7,143.3z"/>
			<path fill="#E0E0E0" d="M522.4,177.5v-0.6c0-2.2,1.8-4,4-4h8.9c2.2,0,4-1.8,4-4v-0.5c0-2.2-1.8-4-4-4H475c-2.2,0-4,1.8-4,4v0.5
				c0,2.2,1.8,4,4,4h34.6c2.2,0,4,1.8,4,4v0.6c0,2.2-1.8,4-4,4h-9.1c-2.2,0-4,1.8-4,4v0.5c0,2.2,1.8,4,4,4h0.7c2.2,0,4,1.8,4,4v0.4
				c0,2.2-1.8,4-4,4H492c-2.2,0-4,1.8-4,4v0.5c0,2.2,1.8,4,4,4h43.5c2.2,0,4-1.8,4-4v-0.5c0-2.2-1.8-4-4-4l0,0c-2.2,0-4-1.8-4-4
				v-0.4c0-2.2,1.8-4,4-4h8.6c2.2,0,4-1.8,4-4v-0.5c0-2.2-1.8-4-4-4h-17.6C524.2,181.5,522.4,179.7,522.4,177.5z"/>
		</g>
		<g>
			<g>
				<g>
					<rect x="63.8" y="163.7" fill="#0077A2" width="40.3" height="136.3"/>
					<rect x="71.6" y="172.6" fill="#FDBA63" width="24.8" height="84"/>
					<rect x="69.9" y="179.7" fill="#0077A2" width="28.1" height="3.4"/>
					<rect x="69.9" y="189.3" fill="#0077A2" width="28.1" height="3.4"/>
					<rect x="69.9" y="198.8" fill="#0077A2" width="28.1" height="3.4"/>
					<rect x="69.9" y="208.4" fill="#0077A2" width="28.1" height="3.4"/>
					<rect x="69.9" y="217.9" fill="#0077A2" width="28.1" height="3.4"/>
					<rect x="69.9" y="227.5" fill="#0077A2" width="28.1" height="3.4"/>
					<rect x="69.9" y="237" fill="#0077A2" width="28.1" height="3.4"/>
					<rect x="69.9" y="246.6" fill="#0077A2" width="28.1" height="3.4"/>
					<rect x="69.9" y="256.1" fill="#0077A2" width="28.1" height="3.4"/>
					<rect x="69.9" y="265.7" fill="#0077A2" width="28.1" height="3.4"/>
					<rect x="69.9" y="275.2" fill="#0077A2" width="28.1" height="3.4"/>
					<rect x="82" y="172.6" fill="#0077A2" width="3.9" height="103"/>
				</g>
				<g>
					<rect x="104.1" y="118" fill="#0077A2" width="40.3" height="182"/>
					<rect x="111.9" y="126.9" fill="#005980" width="24.8" height="103"/>
					<rect x="110.2" y="134" fill="#0077A2" width="28.1" height="3.4"/>
					<rect x="110.2" y="143.6" fill="#0077A2" width="28.1" height="3.4"/>
					<rect x="110.2" y="153.1" fill="#0077A2" width="28.1" height="3.4"/>
					<rect x="110.2" y="162.7" fill="#0077A2" width="28.1" height="3.4"/>
					<rect x="110.2" y="172.2" fill="#0077A2" width="28.1" height="3.4"/>
					<rect x="110.2" y="181.8" fill="#0077A2" width="28.1" height="3.4"/>
					<rect x="110.2" y="191.3" fill="#0077A2" width="28.1" height="3.4"/>
					<rect x="110.2" y="200.9" fill="#0077A2" width="28.1" height="3.4"/>
					<rect x="110.2" y="210.4" fill="#0077A2" width="28.1" height="3.4"/>
					<rect x="110.2" y="220" fill="#0077A2" width="28.1" height="3.4"/>
					<rect x="110.2" y="229.5" fill="#0077A2" width="28.1" height="3.4"/>
					<rect x="122.3" y="126.9" fill="#0077A2" width="3.9" height="103"/>
				</g>
			</g>
			<g>
				<g>
					<rect x="144.4" y="163.7" fill="#0077A2" width="40.3" height="136.3"/>
					<rect x="152.1" y="172.6" fill="#FDBA63" width="24.8" height="81.5"/>
					<rect x="150.5" y="179.7" fill="#0077A2" width="28.1" height="3.4"/>
					<rect x="150.5" y="189.3" fill="#0077A2" width="28.1" height="3.4"/>
					<rect x="150.5" y="198.8" fill="#0077A2" width="28.1" height="3.4"/>
					<rect x="150.5" y="208.4" fill="#0077A2" width="28.1" height="3.4"/>
					<rect x="150.5" y="217.9" fill="#0077A2" width="28.1" height="3.4"/>
					<rect x="150.5" y="227.5" fill="#0077A2" width="28.1" height="3.4"/>
					<rect x="150.5" y="237" fill="#0077A2" width="28.1" height="3.4"/>
					<rect x="150.5" y="246.6" fill="#0077A2" width="28.1" height="3.4"/>
					<rect x="150.5" y="256.1" fill="#0077A2" width="28.1" height="3.4"/>
					<rect x="150.5" y="265.7" fill="#0077A2" width="28.1" height="3.4"/>
					<rect x="150.5" y="275.2" fill="#0077A2" width="28.1" height="3.4"/>
					<rect x="162.6" y="172.6" fill="#0077A2" width="3.9" height="103"/>
				</g>
				<g>
					<rect x="184.7" y="118" fill="#0077A2" width="40.3" height="182"/>
					<rect x="192.4" y="126.9" fill="#005980" width="24.8" height="103"/>
					<rect x="190.7" y="134" fill="#0077A2" width="28.1" height="3.4"/>
					<rect x="190.7" y="143.6" fill="#0077A2" width="28.1" height="3.4"/>
					<rect x="190.7" y="153.1" fill="#0077A2" width="28.1" height="3.4"/>
					<rect x="190.7" y="162.7" fill="#0077A2" width="28.1" height="3.4"/>
					<rect x="190.7" y="172.2" fill="#0077A2" width="28.1" height="3.4"/>
					<rect x="190.7" y="181.8" fill="#0077A2" width="28.1" height="3.4"/>
					<rect x="190.7" y="191.3" fill="#0077A2" width="28.1" height="3.4"/>
					<rect x="190.7" y="200.9" fill="#0077A2" width="28.1" height="3.4"/>
					<rect x="190.7" y="210.4" fill="#0077A2" width="28.1" height="3.4"/>
					<rect x="190.7" y="220" fill="#0077A2" width="28.1" height="3.4"/>
					<rect x="190.7" y="229.5" fill="#0077A2" width="28.1" height="3.4"/>
					<rect x="202.9" y="126.9" fill="#0077A2" width="3.9" height="103"/>
				</g>
			</g>
		</g>
		<g>
			<g>
				<g>
					<rect x="224.9" y="163.7" fill="#0077A2" width="40.3" height="136.3"/>
					<rect x="232.7" y="172.6" fill="#005980" width="24.8" height="103"/>
					<rect x="231" y="179.7" fill="#0077A2" width="28.1" height="3.4"/>
					<rect x="231" y="189.3" fill="#0077A2" width="28.1" height="3.4"/>
					<rect x="231" y="198.8" fill="#0077A2" width="28.1" height="3.4"/>
					<rect x="231" y="208.4" fill="#0077A2" width="28.1" height="3.4"/>
					<rect x="231" y="217.9" fill="#0077A2" width="28.1" height="3.4"/>
					<rect x="231" y="227.5" fill="#0077A2" width="28.1" height="3.4"/>
					<rect x="231" y="237" fill="#0077A2" width="28.1" height="3.4"/>
					<rect x="231" y="246.6" fill="#0077A2" width="28.1" height="3.4"/>
					<rect x="231" y="256.1" fill="#0077A2" width="28.1" height="3.4"/>
					<rect x="231" y="265.7" fill="#0077A2" width="28.1" height="3.4"/>
					<rect x="231" y="275.2" fill="#0077A2" width="28.1" height="3.4"/>
					<rect x="243.1" y="172.6" fill="#0077A2" width="3.9" height="103"/>
				</g>
				<g>
					<rect x="265.2" y="118" fill="#0077A2" width="40.3" height="182"/>
					<rect x="273" y="126.9" fill="#FDBA63" width="24.8" height="103"/>
					<rect x="271.3" y="134" fill="#0077A2" width="28.1" height="3.4"/>
					<rect x="271.3" y="143.6" fill="#0077A2" width="28.1" height="3.4"/>
					<rect x="271.3" y="153.1" fill="#0077A2" width="28.1" height="3.4"/>
					<rect x="271.3" y="162.7" fill="#0077A2" width="28.1" height="3.4"/>
					<rect x="271.3" y="172.2" fill="#0077A2" width="28.1" height="3.4"/>
					<rect x="271.3" y="181.8" fill="#0077A2" width="28.1" height="3.4"/>
					<rect x="271.3" y="191.3" fill="#0077A2" width="28.1" height="3.4"/>
					<rect x="271.3" y="200.9" fill="#0077A2" width="28.1" height="3.4"/>
					<rect x="271.3" y="210.4" fill="#0077A2" width="28.1" height="3.4"/>
					<rect x="271.3" y="220" fill="#0077A2" width="28.1" height="3.4"/>
					<rect x="271.3" y="229.5" fill="#0077A2" width="28.1" height="3.4"/>
					<rect x="283.4" y="126.9" fill="#0077A2" width="3.9" height="103"/>
				</g>
			</g>
			<g>
				<g>
					<rect x="305.5" y="163.7" fill="#0077A2" width="40.3" height="136.3"/>
					<rect x="313.2" y="172.6" fill="#005980" width="24.8" height="103"/>
					<rect x="311.5" y="179.7" fill="#0077A2" width="28.1" height="3.4"/>
					<rect x="311.5" y="189.3" fill="#0077A2" width="28.1" height="3.4"/>
					<rect x="311.5" y="198.8" fill="#0077A2" width="28.1" height="3.4"/>
					<rect x="311.5" y="208.4" fill="#0077A2" width="28.1" height="3.4"/>
					<rect x="311.5" y="217.9" fill="#0077A2" width="28.1" height="3.4"/>
					<rect x="311.5" y="227.5" fill="#0077A2" width="28.1" height="3.4"/>
					<rect x="311.5" y="237" fill="#0077A2" width="28.1" height="3.4"/>
					<rect x="311.5" y="246.6" fill="#0077A2" width="28.1" height="3.4"/>
					<rect x="311.5" y="256.1" fill="#0077A2" width="28.1" height="3.4"/>
					<rect x="311.5" y="265.7" fill="#0077A2" width="28.1" height="3.4"/>
					<rect x="311.5" y="275.2" fill="#0077A2" width="28.1" height="3.4"/>
					<rect x="323.7" y="172.6" fill="#0077A2" width="3.9" height="103"/>
				</g>
				<g>
					<rect x="345.8" y="118" fill="#0077A2" width="40.3" height="182"/>
					<rect x="353.5" y="126.9" fill="#005980" width="24.8" height="103"/>
					<rect x="351.8" y="134" fill="#0077A2" width="28.1" height="3.4"/>
					<rect x="351.8" y="143.6" fill="#0077A2" width="28.1" height="3.4"/>
					<rect x="351.8" y="153.1" fill="#0077A2" width="28.1" height="3.4"/>
					<rect x="351.8" y="162.7" fill="#0077A2" width="28.1" height="3.4"/>
					<rect x="351.8" y="172.2" fill="#0077A2" width="28.1" height="3.4"/>
					<rect x="351.8" y="181.8" fill="#0077A2" width="28.1" height="3.4"/>
					<rect x="351.8" y="191.3" fill="#0077A2" width="28.1" height="3.4"/>
					<rect x="351.8" y="200.9" fill="#0077A2" width="28.1" height="3.4"/>
					<rect x="351.8" y="210.4" fill="#0077A2" width="28.1" height="3.4"/>
					<rect x="351.8" y="220" fill="#0077A2" width="28.1" height="3.4"/>
					<rect x="351.8" y="229.5" fill="#0077A2" width="28.1" height="3.4"/>
					<rect x="364" y="126.9" fill="#0077A2" width="3.9" height="103"/>
				</g>
			</g>
		</g>
		<g>
			<g>
				<g>
					<rect x="386" y="163.7" fill="#0077A2" width="40.3" height="136.3"/>
					<rect x="393.8" y="172.6" fill="#005980" width="24.8" height="103"/>
					<rect x="392.1" y="179.7" fill="#0077A2" width="28.1" height="3.4"/>
					<rect x="392.1" y="189.3" fill="#0077A2" width="28.1" height="3.4"/>
					<rect x="392.1" y="198.8" fill="#0077A2" width="28.1" height="3.4"/>
					<rect x="392.1" y="208.4" fill="#0077A2" width="28.1" height="3.4"/>
					<rect x="392.1" y="217.9" fill="#0077A2" width="28.1" height="3.4"/>
					<rect x="392.1" y="227.5" fill="#0077A2" width="28.1" height="3.4"/>
					<rect x="392.1" y="237" fill="#0077A2" width="28.1" height="3.4"/>
					<rect x="392.1" y="246.6" fill="#0077A2" width="28.1" height="3.4"/>
					<rect x="392.1" y="256.1" fill="#0077A2" width="28.1" height="3.4"/>
					<rect x="392.1" y="265.7" fill="#0077A2" width="28.1" height="3.4"/>
					<rect x="392.1" y="275.2" fill="#0077A2" width="28.1" height="3.4"/>
					<rect x="404.2" y="172.6" fill="#0077A2" width="3.9" height="103"/>
				</g>
				<g>
					<rect x="426.3" y="118" fill="#0077A2" width="40.3" height="182"/>
					<rect x="434" y="126.9" fill="#FDBA63" width="24.8" height="103"/>
					<rect x="432.4" y="134" fill="#0077A2" width="28.1" height="3.4"/>
					<rect x="432.4" y="143.6" fill="#0077A2" width="28.1" height="3.4"/>
					<rect x="432.4" y="153.1" fill="#0077A2" width="28.1" height="3.4"/>
					<rect x="432.4" y="162.7" fill="#0077A2" width="28.1" height="3.4"/>
					<rect x="432.4" y="172.2" fill="#0077A2" width="28.1" height="3.4"/>
					<rect x="432.4" y="181.8" fill="#0077A2" width="28.1" height="3.4"/>
					<rect x="432.4" y="191.3" fill="#0077A2" width="28.1" height="3.4"/>
					<rect x="432.4" y="200.9" fill="#0077A2" width="28.1" height="3.4"/>
					<rect x="432.4" y="210.4" fill="#0077A2" width="28.1" height="3.4"/>
					<rect x="432.4" y="220" fill="#0077A2" width="28.1" height="3.4"/>
					<rect x="432.4" y="229.5" fill="#0077A2" width="28.1" height="3.4"/>
					<rect x="444.5" y="126.9" fill="#0077A2" width="3.9" height="103"/>
				</g>
			</g>
			<g>
				<g>
					<rect x="466.6" y="163.7" fill="#0077A2" width="40.3" height="136.3"/>
					<rect x="474.3" y="172.6" fill="#005980" width="24.8" height="103"/>
					<rect x="472.6" y="179.7" fill="#0077A2" width="28.1" height="3.4"/>
					<rect x="472.6" y="189.3" fill="#0077A2" width="28.1" height="3.4"/>
					<rect x="472.6" y="198.8" fill="#0077A2" width="28.1" height="3.4"/>
					<rect x="472.6" y="208.4" fill="#0077A2" width="28.1" height="3.4"/>
					<rect x="472.6" y="217.9" fill="#0077A2" width="28.1" height="3.4"/>
					<rect x="472.6" y="227.5" fill="#0077A2" width="28.1" height="3.4"/>
					<rect x="472.6" y="237" fill="#0077A2" width="28.1" height="3.4"/>
					<rect x="472.6" y="246.6" fill="#0077A2" width="28.1" height="3.4"/>
					<rect x="472.6" y="256.1" fill="#0077A2" width="28.1" height="3.4"/>
					<rect x="472.6" y="265.7" fill="#0077A2" width="28.1" height="3.4"/>
					<rect x="472.6" y="275.2" fill="#0077A2" width="28.1" height="3.4"/>
					<rect x="484.8" y="172.6" fill="#0077A2" width="3.9" height="103"/>
				</g>
				<g>
					<rect x="506.8" y="118" fill="#0077A2" width="40.3" height="182"/>
					<rect x="514.6" y="126.9" fill="#005980" width="24.8" height="103"/>
					<rect x="512.9" y="134" fill="#0077A2" width="28.1" height="3.4"/>
					<rect x="512.9" y="143.6" fill="#0077A2" width="28.1" height="3.4"/>
					<rect x="512.9" y="153.1" fill="#0077A2" width="28.1" height="3.4"/>
					<rect x="512.9" y="162.7" fill="#0077A2" width="28.1" height="3.4"/>
					<rect x="512.9" y="172.2" fill="#0077A2" width="28.1" height="3.4"/>
					<rect x="512.9" y="181.8" fill="#0077A2" width="28.1" height="3.4"/>
					<rect x="512.9" y="191.3" fill="#0077A2" width="28.1" height="3.4"/>
					<rect x="512.9" y="200.9" fill="#0077A2" width="28.1" height="3.4"/>
					<rect x="512.9" y="210.4" fill="#0077A2" width="28.1" height="3.4"/>
					<rect x="512.9" y="220" fill="#0077A2" width="28.1" height="3.4"/>
					<rect x="512.9" y="229.5" fill="#0077A2" width="28.1" height="3.4"/>
					<rect x="525" y="126.9" fill="#0077A2" width="3.9" height="103"/>
				</g>
			</g>
		</g>
		<g>
			<rect x="38.7" y="214.5" fill="#0077A2" width="25.3" height="85.5"/>
			<rect x="43.6" y="220.1" fill="#005980" width="15.6" height="48.4"/>
			<rect x="42.5" y="224.5" fill="#0077A2" width="17.7" height="2.1"/>
			<rect x="42.5" y="230.5" fill="#0077A2" width="17.7" height="2.1"/>
			<rect x="42.5" y="236.5" fill="#0077A2" width="17.7" height="2.1"/>
			<rect x="42.5" y="242.5" fill="#0077A2" width="17.7" height="2.1"/>
			<rect x="42.5" y="248.5" fill="#0077A2" width="17.7" height="2.1"/>
			<rect x="42.5" y="254.5" fill="#0077A2" width="17.7" height="2.1"/>
			<rect x="42.5" y="260.5" fill="#0077A2" width="17.7" height="2.1"/>
			<rect x="42.5" y="266.5" fill="#0077A2" width="17.7" height="2.1"/>
			<rect x="42.5" y="272.5" fill="#0077A2" width="17.7" height="2.1"/>
			<rect x="42.5" y="278.5" fill="#0077A2" width="17.7" height="2.1"/>
			<rect x="42.5" y="284.4" fill="#0077A2" width="17.7" height="2.1"/>
			<rect x="50.1" y="220.1" fill="#0077A2" width="2.4" height="64.6"/>
		</g>
		<g>
			<rect x="546.7" y="214.5" fill="#0077A2" width="25.3" height="85.5"/>
			<rect x="551.6" y="220.1" fill="#FDBA63" width="15.6" height="28.6"/>
			<rect x="550.5" y="224.5" fill="#0077A2" width="17.7" height="2.1"/>
			<rect x="550.5" y="230.5" fill="#0077A2" width="17.7" height="2.1"/>
			<rect x="550.5" y="236.5" fill="#0077A2" width="17.7" height="2.1"/>
			<rect x="550.5" y="242.5" fill="#0077A2" width="17.7" height="2.1"/>
			<rect x="550.5" y="248.5" fill="#0077A2" width="17.7" height="2.1"/>
			<rect x="550.5" y="254.5" fill="#0077A2" width="17.7" height="2.1"/>
			<rect x="550.5" y="260.5" fill="#0077A2" width="17.7" height="2.1"/>
			<rect x="550.5" y="266.5" fill="#0077A2" width="17.7" height="2.1"/>
			<rect x="550.5" y="272.5" fill="#0077A2" width="17.7" height="2.1"/>
			<rect x="550.5" y="278.5" fill="#0077A2" width="17.7" height="2.1"/>
			<rect x="550.5" y="284.4" fill="#0077A2" width="17.7" height="2.1"/>
			<rect x="558.1" y="220.1" fill="#0077A2" width="2.4" height="64.6"/>
		</g>
	</g>
	<g>
		<path fill="#4D4D4D" d="M181.5,188.6v-0.8c0-3.4,2.7-6.1,6.1-6.1h142.8c3.4,0,6.1-2.7,6.1-6.1v-0.8c0-3.4-2.7-6.1-6.1-6.1H181.5
			c-7.2,0-13,5.8-13,13v0v12.8v0c0,7.3,5.9,13.2,13.2,13.2h408.9c3.4,0,6.1,2.7,6.1,6.1v0c0,3.4-2.7,6.1-6.1,6.1H13
			c-7.2,0-13,5.8-13,13v0v12.8l0,0c0,7.3,5.9,13.2,13.2,13.2H421c3.4,0,6.1,2.7,6.1,6.1l0,0c0,3.4-2.7,6.1-6.1,6.1H236.5
			c-3.4,0-6.1,2.7-6.1,6.1v0.8c0,3.4,2.7,6.1,6.1,6.1h190.8c7.1,0,12.8-5.7,12.8-12.8l0,0v-12.4l0,0v0c0-7.2-5.8-13-13-13h-408
			c-3.4,0-6.1-2.7-6.1-6.1V239c0-3.4,2.7-6.1,6.1-6.1h577.1c7.1,0,12.8-5.7,12.8-12.8v0v-12.8v0c0-7-5.6-12.6-12.6-12.6H187.6
			C184.3,194.7,181.5,191.9,181.5,188.6z"/>
		<path fill="#5B5C5D" d="M181.5,185.6v-0.8c0-3.4,2.7-6.1,6.1-6.1h142.8c3.4,0,6.1-2.7,6.1-6.1v-0.8c0-3.4-2.7-6.1-6.1-6.1H181.5
			c-7.2,0-13,5.8-13,13v0v12.8v0c0,7.3,5.9,13.2,13.2,13.2h408.9c3.4,0,6.1,2.7,6.1,6.1v0c0,3.4-2.7,6.1-6.1,6.1H13
			c-7.2,0-13,5.8-13,13v0v12.8l0,0c0,7.3,5.9,13.2,13.2,13.2H421c3.4,0,6.1,2.7,6.1,6.1l0,0c0,3.4-2.7,6.1-6.1,6.1H236.5
			c-3.4,0-6.1,2.7-6.1,6.1v0.8c0,3.4,2.7,6.1,6.1,6.1h190.8c7.1,0,12.8-5.7,12.8-12.8l0,0v-12.4l0,0v0c0-7.2-5.8-13-13-13h-408
			c-3.4,0-6.1-2.7-6.1-6.1V236c0-3.4,2.7-6.1,6.1-6.1h577.1c7.1,0,12.8-5.7,12.8-12.8v0v-12.8v0c0-7-5.6-12.6-12.6-12.6H187.6
			C184.3,191.7,181.5,188.9,181.5,185.6z"/>
		<g>
			<g>
				<path fill="#0077A2" d="M556.9,224.7h12.6c3.8,0,6.9-3.1,6.9-6.9v-1.3c0-5.1-4.1-9.2-9.2-9.2h-3.4c-6.7,0-12.2,5.5-12.2,12.2v0
					C551.7,222.4,554,224.7,556.9,224.7z"/>
				<circle fill="#4D4D4D" cx="570.2" cy="222.2" r="3.8"/>
				<circle fill="#4D4D4D" cx="557.6" cy="222.2" r="3.8"/>
				<circle fill="#808080" cx="570.2" cy="222.2" r="1.9"/>
				<circle fill="#808080" cx="557.6" cy="222.2" r="1.9"/>
				<path fill="#005980" d="M566.6,209h-0.1c-1.5,0-2.7,1.2-2.7,2.7v2.2c0,1.5,1.2,2.7,2.7,2.7h7.4v-0.1
					C573.9,212.4,570.6,209,566.6,209z"/>
				<path fill="#005980" d="M556.7,216.6h2.9c0.9,0,1.7-0.8,1.7-1.7V212c0-1.3-1.5-2.2-2.6-1.5c-1.4,0.8-2.5,2-3.4,3.4
					C554.6,215.1,555.4,216.6,556.7,216.6z"/>
			</g>
			<g>
				<path fill="#0077A2" d="M523.6,224.7h12.6c3.8,0,6.9-3.1,6.9-6.9v-1.3c0-5.1-4.1-9.2-9.2-9.2h-3.4c-6.7,0-12.2,5.5-12.2,12.2v0
					C518.3,222.4,520.7,224.7,523.6,224.7z"/>
				<circle fill="#4D4D4D" cx="536.8" cy="222.2" r="3.8"/>
				<circle fill="#4D4D4D" cx="524.2" cy="222.2" r="3.8"/>
				<circle fill="#808080" cx="536.8" cy="222.2" r="1.9"/>
				<circle fill="#808080" cx="524.2" cy="222.2" r="1.9"/>
				<path fill="#005980" d="M533.3,209h-0.1c-1.5,0-2.7,1.2-2.7,2.7v2.2c0,1.5,1.2,2.7,2.7,2.7h7.4v-0.1
					C540.6,212.4,537.2,209,533.3,209z"/>
				<path fill="#005980" d="M523.4,216.6h2.9c0.9,0,1.7-0.8,1.7-1.7V212c0-1.3-1.5-2.2-2.6-1.5c-1.4,0.8-2.5,2-3.4,3.4
					C521.2,215.1,522,216.6,523.4,216.6z"/>
			</g>
			<g>
				<path fill="#0077A2" d="M490.2,224.7h12.6c3.8,0,6.9-3.1,6.9-6.9v-1.3c0-5.1-4.1-9.2-9.2-9.2h-3.4c-6.7,0-12.2,5.5-12.2,12.2v0
					C485,222.4,487.3,224.7,490.2,224.7z"/>
				<circle fill="#4D4D4D" cx="503.4" cy="222.2" r="3.8"/>
				<circle fill="#4D4D4D" cx="490.9" cy="222.2" r="3.8"/>
				<circle fill="#808080" cx="503.4" cy="222.2" r="1.9"/>
				<circle fill="#808080" cx="490.9" cy="222.2" r="1.9"/>
				<path fill="#005980" d="M499.9,209h-0.1c-1.5,0-2.7,1.2-2.7,2.7v2.2c0,1.5,1.2,2.7,2.7,2.7h7.4v-0.1
					C507.2,212.4,503.9,209,499.9,209z"/>
				<path fill="#005980" d="M490,216.6h2.9c0.9,0,1.7-0.8,1.7-1.7V212c0-1.3-1.5-2.2-2.6-1.5c-1.4,0.8-2.5,2-3.4,3.4
					C487.9,215.1,488.7,216.6,490,216.6z"/>
			</g>
			<g>
				<path fill="#0077A2" d="M454.9,224.7h12.6c3.8,0,6.9-3.1,6.9-6.9v-1.3c0-5.1-4.1-9.2-9.2-9.2h-3.4c-6.7,0-12.2,5.5-12.2,12.2v0
					C449.7,222.4,452,224.7,454.9,224.7z"/>
				<circle fill="#4D4D4D" cx="468.2" cy="222.2" r="3.8"/>
				<circle fill="#4D4D4D" cx="455.6" cy="222.2" r="3.8"/>
				<circle fill="#808080" cx="468.2" cy="222.2" r="1.9"/>
				<circle fill="#808080" cx="455.6" cy="222.2" r="1.9"/>
				<path fill="#005980" d="M464.6,209h-0.1c-1.5,0-2.7,1.2-2.7,2.7v2.2c0,1.5,1.2,2.7,2.7,2.7h7.4v-0.1
					C471.9,212.4,468.6,209,464.6,209z"/>
				<path fill="#005980" d="M454.7,216.6h2.9c0.9,0,1.7-0.8,1.7-1.7V212c0-1.3-1.5-2.2-2.6-1.5c-1.4,0.8-2.5,2-3.4,3.4
					C452.6,215.1,453.4,216.6,454.7,216.6z"/>
			</g>
			<g>
				<path fill="#97B137" d="M421.6,224.7h12.6c3.8,0,6.9-3.1,6.9-6.9v-1.3c0-5.1-4.1-9.2-9.2-9.2h-3.4c-6.7,0-12.2,5.5-12.2,12.2v0
					C416.3,222.4,418.7,224.7,421.6,224.7z"/>
				<circle fill="#4D4D4D" cx="434.8" cy="222.2" r="3.8"/>
				<circle fill="#4D4D4D" cx="422.2" cy="222.2" r="3.8"/>
				<circle fill="#808080" cx="434.8" cy="222.2" r="1.9"/>
				<circle fill="#808080" cx="422.2" cy="222.2" r="1.9"/>
				<path fill="#439541" d="M431.3,209h-0.1c-1.5,0-2.7,1.2-2.7,2.7v2.2c0,1.5,1.2,2.7,2.7,2.7h7.4v-0.1
					C438.6,212.4,435.2,209,431.3,209z"/>
				<path fill="#439541" d="M421.4,216.6h2.9c0.9,0,1.7-0.8,1.7-1.7V212c0-1.3-1.5-2.2-2.6-1.5c-1.4,0.8-2.5,2-3.4,3.4
					C419.2,215.1,420,216.6,421.4,216.6z"/>
			</g>
			<g>
				<path fill="#97B137" d="M388.2,224.7h12.6c3.8,0,6.9-3.1,6.9-6.9v-1.3c0-5.1-4.1-9.2-9.2-9.2h-3.4c-6.7,0-12.2,5.5-12.2,12.2v0
					C383,222.4,385.3,224.7,388.2,224.7z"/>
				<circle fill="#4D4D4D" cx="401.4" cy="222.2" r="3.8"/>
				<circle fill="#4D4D4D" cx="388.9" cy="222.2" r="3.8"/>
				<circle fill="#808080" cx="401.4" cy="222.2" r="1.9"/>
				<circle fill="#808080" cx="388.9" cy="222.2" r="1.9"/>
				<path fill="#439541" d="M397.9,209h-0.1c-1.5,0-2.7,1.2-2.7,2.7v2.2c0,1.5,1.2,2.7,2.7,2.7h7.4v-0.1
					C405.2,212.4,401.9,209,397.9,209z"/>
				<path fill="#439541" d="M388,216.6h2.9c0.9,0,1.7-0.8,1.7-1.7V212c0-1.3-1.5-2.2-2.6-1.5c-1.4,0.8-2.5,2-3.4,3.4
					C385.9,215.1,386.7,216.6,388,216.6z"/>
			</g>
			<g>
				<path fill="#0077A2" d="M337.9,224.7h12.6c3.8,0,6.9-3.1,6.9-6.9v-1.3c0-5.1-4.1-9.2-9.2-9.2h-3.4c-6.7,0-12.2,5.5-12.2,12.2v0
					C332.7,222.4,335,224.7,337.9,224.7z"/>
				<circle fill="#4D4D4D" cx="351.2" cy="222.2" r="3.8"/>
				<circle fill="#4D4D4D" cx="338.6" cy="222.2" r="3.8"/>
				<circle fill="#808080" cx="351.2" cy="222.2" r="1.9"/>
				<circle fill="#808080" cx="338.6" cy="222.2" r="1.9"/>
				<path fill="#97B137" d="M347.6,209h-0.1c-1.5,0-2.7,1.2-2.7,2.7v2.2c0,1.5,1.2,2.7,2.7,2.7h7.4v-0.1
					C354.9,212.4,351.6,209,347.6,209z"/>
				<path fill="#97B137" d="M337.7,216.6h2.9c0.9,0,1.7-0.8,1.7-1.7V212c0-1.3-1.5-2.2-2.6-1.5c-1.4,0.8-2.5,2-3.4,3.4
					C335.6,215.1,336.4,216.6,337.7,216.6z"/>
			</g>
			<g>
				<path fill="#97B137" d="M304.6,224.7h12.6c3.8,0,6.9-3.1,6.9-6.9v-1.3c0-5.1-4.1-9.2-9.2-9.2h-3.4c-6.7,0-12.2,5.5-12.2,12.2v0
					C299.3,222.4,301.7,224.7,304.6,224.7z"/>
				<circle fill="#4D4D4D" cx="317.8" cy="222.2" r="3.8"/>
				<circle fill="#4D4D4D" cx="305.2" cy="222.2" r="3.8"/>
				<circle fill="#808080" cx="317.8" cy="222.2" r="1.9"/>
				<circle fill="#808080" cx="305.2" cy="222.2" r="1.9"/>
				<path fill="#439541" d="M314.3,209h-0.1c-1.5,0-2.7,1.2-2.7,2.7v2.2c0,1.5,1.2,2.7,2.7,2.7h7.4v-0.1
					C321.6,212.4,318.2,209,314.3,209z"/>
				<path fill="#FDBA63" d="M304.4,216.6h2.9c0.9,0,1.7-0.8,1.7-1.7V212c0-1.3-1.5-2.2-2.6-1.5c-1.4,0.8-2.5,2-3.4,3.4
					C302.2,215.1,303,216.6,304.4,216.6z"/>
			</g>
			<g>
				<path fill="#97B137" d="M271.2,224.7h12.6c3.8,0,6.9-3.1,6.9-6.9v-1.3c0-5.1-4.1-9.2-9.2-9.2h-3.4c-6.7,0-12.2,5.5-12.2,12.2v0
					C266,222.4,268.3,224.7,271.2,224.7z"/>
				<circle fill="#4D4D4D" cx="284.4" cy="222.2" r="3.8"/>
				<circle fill="#4D4D4D" cx="271.9" cy="222.2" r="3.8"/>
				<circle fill="#808080" cx="284.4" cy="222.2" r="1.9"/>
				<circle fill="#808080" cx="271.9" cy="222.2" r="1.9"/>
				<path fill="#439541" d="M280.9,209h-0.1c-1.5,0-2.7,1.2-2.7,2.7v2.2c0,1.5,1.2,2.7,2.7,2.7h7.4v-0.1
					C288.2,212.4,284.9,209,280.9,209z"/>
				<path fill="#439541" d="M271,216.6h2.9c0.9,0,1.7-0.8,1.7-1.7V212c0-1.3-1.5-2.2-2.6-1.5c-1.4,0.8-2.5,2-3.4,3.4
					C268.9,215.1,269.7,216.6,271,216.6z"/>
			</g>
			<g>
				<path fill="#FDBA63" d="M137.9,224.7h12.6c3.8,0,6.9-3.1,6.9-6.9v-1.3c0-5.1-4.1-9.2-9.2-9.2h-3.4c-6.7,0-12.2,5.5-12.2,12.2v0
					C132.7,222.4,135,224.7,137.9,224.7z"/>
				<circle fill="#4D4D4D" cx="151.2" cy="222.2" r="3.8"/>
				<circle fill="#4D4D4D" cx="138.6" cy="222.2" r="3.8"/>
				<circle fill="#808080" cx="151.2" cy="222.2" r="1.9"/>
				<circle fill="#808080" cx="138.6" cy="222.2" r="1.9"/>
				<path fill="#E49B19" d="M147.6,209h-0.1c-1.5,0-2.7,1.2-2.7,2.7v2.2c0,1.5,1.2,2.7,2.7,2.7h7.4v-0.1
					C154.9,212.4,151.6,209,147.6,209z"/>
				<path fill="#E49B19" d="M137.7,216.6h2.9c0.9,0,1.7-0.8,1.7-1.7V212c0-1.3-1.5-2.2-2.6-1.5c-1.4,0.8-2.5,2-3.4,3.4
					C135.6,215.1,136.4,216.6,137.7,216.6z"/>
			</g>
			<g>
				<path fill="#FDBA63" d="M71.2,224.7h12.6c3.8,0,6.9-3.1,6.9-6.9v-1.3c0-5.1-4.1-9.2-9.2-9.2h-3.4c-6.7,0-12.2,5.5-12.2,12.2v0
					C66,222.4,68.3,224.7,71.2,224.7z"/>
				<circle fill="#4D4D4D" cx="84.4" cy="222.2" r="3.8"/>
				<circle fill="#4D4D4D" cx="71.9" cy="222.2" r="3.8"/>
				<circle fill="#808080" cx="84.4" cy="222.2" r="1.9"/>
				<circle fill="#808080" cx="71.9" cy="222.2" r="1.9"/>
				<path fill="#E49B19" d="M80.9,209h-0.1c-1.5,0-2.7,1.2-2.7,2.7v2.2c0,1.5,1.2,2.7,2.7,2.7h7.4v-0.1
					C88.2,212.4,84.9,209,80.9,209z"/>
				<path fill="#E49B19" d="M71,216.6h2.9c0.9,0,1.7-0.8,1.7-1.7V212c0-1.3-1.5-2.2-2.6-1.5c-1.4,0.8-2.5,2-3.4,3.4
					C68.9,215.1,69.7,216.6,71,216.6z"/>
			</g>
		</g>
		<g>
			<g>
				<path fill="#0077A2" d="M210.5,199.7h-12.6c-3.8,0-6.9-3.1-6.9-6.9v-1.3c0-5.1,4.1-9.2,9.2-9.2h3.4c6.7,0,12.2,5.5,12.2,12.2v0
					C215.7,197.4,213.4,199.7,210.5,199.7z"/>
				<circle fill="#4D4D4D" cx="197.3" cy="197.2" r="3.8"/>
				<circle fill="#4D4D4D" cx="209.9" cy="197.2" r="3.8"/>
				<circle fill="#808080" cx="197.3" cy="197.2" r="1.9"/>
				<circle fill="#808080" cx="209.9" cy="197.2" r="1.9"/>
				<path fill="#005980" d="M200.8,184h0.1c1.5,0,2.7,1.2,2.7,2.7v2.2c0,1.5-1.2,2.7-2.7,2.7h-7.4v-0.1
					C193.5,187.4,196.8,184,200.8,184z"/>
				<path fill="#005980" d="M210.7,191.6h-2.9c-0.9,0-1.7-0.8-1.7-1.7V187c0-1.3,1.5-2.2,2.6-1.5c1.4,0.8,2.5,2,3.4,3.4
					C212.9,190.1,212,191.6,210.7,191.6z"/>
			</g>
			<g>
				<path fill="#0077A2" d="M243.9,199.7h-12.6c-3.8,0-6.9-3.1-6.9-6.9v-1.3c0-5.1,4.1-9.2,9.2-9.2h3.4c6.7,0,12.2,5.5,12.2,12.2v0
					C249.1,197.4,246.8,199.7,243.9,199.7z"/>
				<circle fill="#4D4D4D" cx="230.6" cy="197.2" r="3.8"/>
				<circle fill="#4D4D4D" cx="243.2" cy="197.2" r="3.8"/>
				<circle fill="#808080" cx="230.6" cy="197.2" r="1.9"/>
				<circle fill="#808080" cx="243.2" cy="197.2" r="1.9"/>
				<path fill="#005980" d="M234.1,184h0.1c1.5,0,2.7,1.2,2.7,2.7v2.2c0,1.5-1.2,2.7-2.7,2.7h-7.4v-0.1
					C226.9,187.4,230.2,184,234.1,184z"/>
				<path fill="#005980" d="M244,191.6h-2.9c-0.9,0-1.7-0.8-1.7-1.7V187c0-1.3,1.5-2.2,2.6-1.5c1.4,0.8,2.5,2,3.4,3.4
					C246.2,190.1,245.4,191.6,244,191.6z"/>
			</g>
			<g>
				<path fill="#0077A2" d="M277.2,199.7h-12.6c-3.8,0-6.9-3.1-6.9-6.9v-1.3c0-5.1,4.1-9.2,9.2-9.2h3.4c6.7,0,12.2,5.5,12.2,12.2v0
					C282.4,197.4,280.1,199.7,277.2,199.7z"/>
				<circle fill="#4D4D4D" cx="264" cy="197.2" r="3.8"/>
				<circle fill="#4D4D4D" cx="276.6" cy="197.2" r="3.8"/>
				<circle fill="#808080" cx="264" cy="197.2" r="1.9"/>
				<circle fill="#808080" cx="276.6" cy="197.2" r="1.9"/>
				<path fill="#005980" d="M267.5,184h0.1c1.5,0,2.7,1.2,2.7,2.7v2.2c0,1.5-1.2,2.7-2.7,2.7h-7.4v-0.1
					C260.2,187.4,263.6,184,267.5,184z"/>
				<path fill="#005980" d="M277.4,191.6h-2.9c-0.9,0-1.7-0.8-1.7-1.7V187c0-1.3,1.5-2.2,2.6-1.5c1.4,0.8,2.5,2,3.4,3.4
					C279.6,190.1,278.8,191.6,277.4,191.6z"/>
			</g>
			<g>
				<path fill="#0077A2" d="M312.5,199.7h-12.6c-3.8,0-6.9-3.1-6.9-6.9v-1.3c0-5.1,4.1-9.2,9.2-9.2h3.4c6.7,0,12.2,5.5,12.2,12.2v0
					C317.7,197.4,315.4,199.7,312.5,199.7z"/>
				<circle fill="#4D4D4D" cx="299.3" cy="197.2" r="3.8"/>
				<circle fill="#4D4D4D" cx="311.9" cy="197.2" r="3.8"/>
				<circle fill="#808080" cx="299.3" cy="197.2" r="1.9"/>
				<circle fill="#808080" cx="311.9" cy="197.2" r="1.9"/>
				<path fill="#97B137" d="M302.8,184h0.1c1.5,0,2.7,1.2,2.7,2.7v2.2c0,1.5-1.2,2.7-2.7,2.7h-7.4v-0.1
					C295.5,187.4,298.8,184,302.8,184z"/>
				<path fill="#97B137" d="M312.7,191.6h-2.9c-0.9,0-1.7-0.8-1.7-1.7V187c0-1.3,1.5-2.2,2.6-1.5c1.4,0.8,2.5,2,3.4,3.4
					C314.9,190.1,314,191.6,312.7,191.6z"/>
			</g>
			<g>
				<path fill="#97B137" d="M345.9,199.7h-12.6c-3.8,0-6.9-3.1-6.9-6.9v-1.3c0-5.1,4.1-9.2,9.2-9.2h3.4c6.7,0,12.2,5.5,12.2,12.2v0
					C351.1,197.4,348.8,199.7,345.9,199.7z"/>
				<circle fill="#4D4D4D" cx="332.6" cy="197.2" r="3.8"/>
				<circle fill="#4D4D4D" cx="345.2" cy="197.2" r="3.8"/>
				<circle fill="#808080" cx="332.6" cy="197.2" r="1.9"/>
				<circle fill="#808080" cx="345.2" cy="197.2" r="1.9"/>
				<path fill="#FDBA63" d="M336.1,184h0.1c1.5,0,2.7,1.2,2.7,2.7v2.2c0,1.5-1.2,2.7-2.7,2.7h-7.4v-0.1
					C328.9,187.4,332.2,184,336.1,184z"/>
				<path fill="#FDBA63" d="M346,191.6h-2.9c-0.9,0-1.7-0.8-1.7-1.7V187c0-1.3,1.5-2.2,2.6-1.5c1.4,0.8,2.5,2,3.4,3.4
					C348.2,190.1,347.4,191.6,346,191.6z"/>
			</g>
			<g>
				<path fill="#0077A2" d="M429.5,199.7h-12.6c-3.8,0-6.9-3.1-6.9-6.9v-1.3c0-5.1,4.1-9.2,9.2-9.2h3.4c6.7,0,12.2,5.5,12.2,12.2v0
					C434.7,197.4,432.4,199.7,429.5,199.7z"/>
				<circle fill="#4D4D4D" cx="416.3" cy="197.2" r="3.8"/>
				<circle fill="#4D4D4D" cx="428.9" cy="197.2" r="3.8"/>
				<circle fill="#808080" cx="416.3" cy="197.2" r="1.9"/>
				<circle fill="#808080" cx="428.9" cy="197.2" r="1.9"/>
				<path fill="#005980" d="M419.8,184h0.1c1.5,0,2.7,1.2,2.7,2.7v2.2c0,1.5-1.2,2.7-2.7,2.7h-7.4v-0.1
					C412.5,187.4,415.8,184,419.8,184z"/>
				<path fill="#005980" d="M429.7,191.6h-2.9c-0.9,0-1.7-0.8-1.7-1.7V187c0-1.3,1.5-2.2,2.6-1.5c1.4,0.8,2.5,2,3.4,3.4
					C431.9,190.1,431,191.6,429.7,191.6z"/>
			</g>
			<g>
				<path fill="#0077A2" d="M462.9,199.7h-12.6c-3.8,0-6.9-3.1-6.9-6.9v-1.3c0-5.1,4.1-9.2,9.2-9.2h3.4c6.7,0,12.2,5.5,12.2,12.2v0
					C468.1,197.4,465.8,199.7,462.9,199.7z"/>
				<circle fill="#4D4D4D" cx="449.6" cy="197.2" r="3.8"/>
				<circle fill="#4D4D4D" cx="462.2" cy="197.2" r="3.8"/>
				<circle fill="#808080" cx="449.6" cy="197.2" r="1.9"/>
				<circle fill="#808080" cx="462.2" cy="197.2" r="1.9"/>
				<path fill="#005980" d="M453.1,184h0.1c1.5,0,2.7,1.2,2.7,2.7v2.2c0,1.5-1.2,2.7-2.7,2.7h-7.4v-0.1
					C445.9,187.4,449.2,184,453.1,184z"/>
				<path fill="#005980" d="M463,191.6h-2.9c-0.9,0-1.7-0.8-1.7-1.7V187c0-1.3,1.5-2.2,2.6-1.5c1.4,0.8,2.5,2,3.4,3.4
					C465.2,190.1,464.4,191.6,463,191.6z"/>
			</g>
			<g>
				<path fill="#0077A2" d="M496.2,199.7h-12.6c-3.8,0-6.9-3.1-6.9-6.9v-1.3c0-5.1,4.1-9.2,9.2-9.2h3.4c6.7,0,12.2,5.5,12.2,12.2v0
					C501.4,197.4,499.1,199.7,496.2,199.7z"/>
				<circle fill="#4D4D4D" cx="483" cy="197.2" r="3.8"/>
				<circle fill="#4D4D4D" cx="495.6" cy="197.2" r="3.8"/>
				<circle fill="#808080" cx="483" cy="197.2" r="1.9"/>
				<circle fill="#808080" cx="495.6" cy="197.2" r="1.9"/>
				<path fill="#005980" d="M486.5,184h0.1c1.5,0,2.7,1.2,2.7,2.7v2.2c0,1.5-1.2,2.7-2.7,2.7h-7.4v-0.1
					C479.2,187.4,482.6,184,486.5,184z"/>
				<path fill="#005980" d="M496.4,191.6h-2.9c-0.9,0-1.7-0.8-1.7-1.7V187c0-1.3,1.5-2.2,2.6-1.5c1.4,0.8,2.5,2,3.4,3.4
					C498.6,190.1,497.8,191.6,496.4,191.6z"/>
			</g>
		</g>
	</g>
	<g>
		<g>
			<g>
				<path fill="#FDBA63" d="M44.5,250.7H31.9c-3.8,0-6.9-3.1-6.9-6.9v-1.3c0-5.1,4.1-9.2,9.2-9.2h3.4c6.7,0,12.2,5.5,12.2,12.2v0
					C49.7,248.4,47.4,250.7,44.5,250.7z"/>
				<circle fill="#4D4D4D" cx="31.3" cy="248.2" r="3.8"/>
				<circle fill="#4D4D4D" cx="43.9" cy="248.2" r="3.8"/>
				<circle fill="#808080" cx="31.3" cy="248.2" r="1.9"/>
				<circle fill="#808080" cx="43.9" cy="248.2" r="1.9"/>
				<path fill="#E49B19" d="M34.8,235h0.1c1.5,0,2.7,1.2,2.7,2.7v2.2c0,1.5-1.2,2.7-2.7,2.7h-7.4v-0.1C27.5,238.4,30.8,235,34.8,235
					z"/>
				<path fill="#E49B19" d="M44.7,242.6h-2.9c-0.9,0-1.7-0.8-1.7-1.7V238c0-1.3,1.5-2.2,2.6-1.5c1.4,0.8,2.5,2,3.4,3.4
					C46.9,241.1,46,242.6,44.7,242.6z"/>
			</g>
			<g>
				<path fill="#FDBA63" d="M77.9,250.7H65.3c-3.8,0-6.9-3.1-6.9-6.9v-1.3c0-5.1,4.1-9.2,9.2-9.2h3.4c6.7,0,12.2,5.5,12.2,12.2v0
					C83.1,248.4,80.8,250.7,77.9,250.7z"/>
				<circle fill="#4D4D4D" cx="64.6" cy="248.2" r="3.8"/>
				<circle fill="#4D4D4D" cx="77.2" cy="248.2" r="3.8"/>
				<circle fill="#808080" cx="64.6" cy="248.2" r="1.9"/>
				<circle fill="#808080" cx="77.2" cy="248.2" r="1.9"/>
				<path fill="#E49B19" d="M68.1,235h0.1c1.5,0,2.7,1.2,2.7,2.7v2.2c0,1.5-1.2,2.7-2.7,2.7h-7.4v-0.1C60.9,238.4,64.2,235,68.1,235
					z"/>
				<path fill="#E49B19" d="M78,242.6h-2.9c-0.9,0-1.7-0.8-1.7-1.7V238c0-1.3,1.5-2.2,2.6-1.5c1.4,0.8,2.5,2,3.4,3.4
					C80.2,241.1,79.4,242.6,78,242.6z"/>
			</g>
			<g>
				<path fill="#FDBA63" d="M111.2,250.7H98.6c-3.8,0-6.9-3.1-6.9-6.9v-1.3c0-5.1,4.1-9.2,9.2-9.2h3.4c6.7,0,12.2,5.5,12.2,12.2v0
					C116.4,248.4,114.1,250.7,111.2,250.7z"/>
				<circle fill="#4D4D4D" cx="98" cy="248.2" r="3.8"/>
				<circle fill="#4D4D4D" cx="110.6" cy="248.2" r="3.8"/>
				<circle fill="#808080" cx="98" cy="248.2" r="1.9"/>
				<circle fill="#808080" cx="110.6" cy="248.2" r="1.9"/>
				<path fill="#E49B19" d="M101.5,235h0.1c1.5,0,2.7,1.2,2.7,2.7v2.2c0,1.5-1.2,2.7-2.7,2.7h-7.4v-0.1
					C94.2,238.4,97.6,235,101.5,235z"/>
				<path fill="#E49B19" d="M111.4,242.6h-2.9c-0.9,0-1.7-0.8-1.7-1.7V238c0-1.3,1.5-2.2,2.6-1.5c1.4,0.8,2.5,2,3.4,3.4
					C113.6,241.1,112.8,242.6,111.4,242.6z"/>
			</g>
			<g>
				<path fill="#FDBA63" d="M146.5,250.7h-12.6c-3.8,0-6.9-3.1-6.9-6.9v-1.3c0-5.1,4.1-9.2,9.2-9.2h3.4c6.7,0,12.2,5.5,12.2,12.2v0
					C151.7,248.4,149.4,250.7,146.5,250.7z"/>
				<circle fill="#4D4D4D" cx="133.3" cy="248.2" r="3.8"/>
				<circle fill="#4D4D4D" cx="145.9" cy="248.2" r="3.8"/>
				<circle fill="#808080" cx="133.3" cy="248.2" r="1.9"/>
				<circle fill="#808080" cx="145.9" cy="248.2" r="1.9"/>
				<path fill="#E49B19" d="M136.8,235h0.1c1.5,0,2.7,1.2,2.7,2.7v2.2c0,1.5-1.2,2.7-2.7,2.7h-7.4v-0.1
					C129.5,238.4,132.8,235,136.8,235z"/>
				<path fill="#E49B19" d="M146.7,242.6h-2.9c-0.9,0-1.7-0.8-1.7-1.7V238c0-1.3,1.5-2.2,2.6-1.5c1.4,0.8,2.5,2,3.4,3.4
					C148.9,241.1,148,242.6,146.7,242.6z"/>
			</g>
			<g>
				<path fill="#97B137" d="M179.9,250.7h-12.6c-3.8,0-6.9-3.1-6.9-6.9v-1.3c0-5.1,4.1-9.2,9.2-9.2h3.4c6.7,0,12.2,5.5,12.2,12.2v0
					C185.1,248.4,182.8,250.7,179.9,250.7z"/>
				<circle fill="#4D4D4D" cx="166.6" cy="248.2" r="3.8"/>
				<circle fill="#4D4D4D" cx="179.2" cy="248.2" r="3.8"/>
				<circle fill="#808080" cx="166.6" cy="248.2" r="1.9"/>
				<circle fill="#808080" cx="179.2" cy="248.2" r="1.9"/>
				<path fill="#439541" d="M170.1,235h0.1c1.5,0,2.7,1.2,2.7,2.7v2.2c0,1.5-1.2,2.7-2.7,2.7h-7.4v-0.1
					C162.9,238.4,166.2,235,170.1,235z"/>
				<path fill="#439541" d="M180,242.6h-2.9c-0.9,0-1.7-0.8-1.7-1.7V238c0-1.3,1.5-2.2,2.6-1.5c1.4,0.8,2.5,2,3.4,3.4
					C182.2,241.1,181.4,242.6,180,242.6z"/>
			</g>
			<g>
				<path fill="#97B137" d="M213.2,250.7h-12.6c-3.8,0-6.9-3.1-6.9-6.9v-1.3c0-5.1,4.1-9.2,9.2-9.2h3.4c6.7,0,12.2,5.5,12.2,12.2v0
					C218.4,248.4,216.1,250.7,213.2,250.7z"/>
				<circle fill="#4D4D4D" cx="200" cy="248.2" r="3.8"/>
				<circle fill="#4D4D4D" cx="212.6" cy="248.2" r="3.8"/>
				<circle fill="#808080" cx="200" cy="248.2" r="1.9"/>
				<circle fill="#808080" cx="212.6" cy="248.2" r="1.9"/>
				<path fill="#439541" d="M203.5,235h0.1c1.5,0,2.7,1.2,2.7,2.7v2.2c0,1.5-1.2,2.7-2.7,2.7h-7.4v-0.1
					C196.2,238.4,199.6,235,203.5,235z"/>
				<path fill="#439541" d="M213.4,242.6h-2.9c-0.9,0-1.7-0.8-1.7-1.7V238c0-1.3,1.5-2.2,2.6-1.5c1.4,0.8,2.5,2,3.4,3.4
					C215.6,241.1,214.8,242.6,213.4,242.6z"/>
			</g>
			<g>
				<path fill="#97B137" d="M248.5,250.7h-12.6c-3.8,0-6.9-3.1-6.9-6.9v-1.3c0-5.1,4.1-9.2,9.2-9.2h3.4c6.7,0,12.2,5.5,12.2,12.2v0
					C253.7,248.4,251.4,250.7,248.5,250.7z"/>
				<circle fill="#4D4D4D" cx="235.3" cy="248.2" r="3.8"/>
				<circle fill="#4D4D4D" cx="247.9" cy="248.2" r="3.8"/>
				<circle fill="#808080" cx="235.3" cy="248.2" r="1.9"/>
				<circle fill="#808080" cx="247.9" cy="248.2" r="1.9"/>
				<path fill="#439541" d="M238.8,235h0.1c1.5,0,2.7,1.2,2.7,2.7v2.2c0,1.5-1.2,2.7-2.7,2.7h-7.4v-0.1
					C231.5,238.4,234.8,235,238.8,235z"/>
				<path fill="#439541" d="M248.7,242.6h-2.9c-0.9,0-1.7-0.8-1.7-1.7V238c0-1.3,1.5-2.2,2.6-1.5c1.4,0.8,2.5,2,3.4,3.4
					C250.9,241.1,250,242.6,248.7,242.6z"/>
			</g>
		</g>
		<g>
			<g>
				<g>
					<polygon fill="#C5C5C6" points="258,300 282.8,300 362,0 337.2,0 					"/>
				</g>
				<g>
					<polygon fill="#E0E0E0" points="265.6,300 290.4,300 369.6,0 344.8,0 					"/>
				</g>
			</g>
			<g>
				<g>
					<polygon fill="#C5C5C6" points="366.5,4.4 595.1,233 602.2,233 370.1,0.9 					"/>
				</g>
				<g>
					<polygon fill="#C5C5C6" points="336,10.9 516.1,191 523.2,191 339.6,7.4 					"/>
				</g>
				<g>
					<polygon fill="#C5C5C6" points="326.9,38.8 521.1,233 528.2,233 330.4,35.2 					"/>
				</g>
				<g>
					<polygon fill="#C5C5C6" points="320,68.9 442.1,191 449.2,191 323.6,65.4 					"/>
				</g>
				<g>
					<polygon fill="#C5C5C6" points="311.9,97.8 447.1,233 454.2,233 315.4,94.2 					"/>
				</g>
				<g>
					<polygon fill="#C5C5C6" points="305,127.9 368.1,191 375.2,191 308.6,124.4 					"/>
				</g>
				<g>
					<polygon fill="#C5C5C6" points="296.9,156.8 332.1,192 339.2,192 300.4,153.2 					"/>
				</g>
				<g>
					<polygon fill="#C5C5C6" points="289,185.9 295.1,192 302.2,192 292.6,182.4 					"/>
				</g>
			</g>
		</g>
		<g>
			<g>
				<g>
					<polygon fill="#C5C5C6" points="379,300 354.2,300 274.9,0 299.7,0 					"/>
				</g>
				<g>
					<polygon fill="#E0E0E0" points="371.4,300 346.6,300 267.3,0 292.1,0 					"/>
				</g>
			</g>
			<g>
				<g>
					<polygon fill="#C5C5C6" points="270.4,4.4 15.9,259 8.8,259 266.9,0.9 					"/>
				</g>
				<g>
					<polygon fill="#C5C5C6" points="300.9,10.9 94.9,217 87.8,217 297.4,7.4 					"/>
				</g>
				<g>
					<polygon fill="#C5C5C6" points="316.9,68.9 168.9,217 161.8,217 313.4,65.4 					"/>
				</g>
				<g>
					<polygon fill="#C5C5C6" points="325.1,97.8 163.9,259 156.8,259 321.5,94.2 					"/>
				</g>
				<g>
					<polygon fill="#C5C5C6" points="331.9,127.9 242.9,217 235.8,217 328.4,124.4 					"/>
				</g>
			</g>
		</g>
		<g>
			<path fill="#FDBA63" d="M104.6,224.7h12.6c3.8,0,6.9-3.1,6.9-6.9v-1.3c0-5.1-4.1-9.2-9.2-9.2h-3.4c-6.7,0-12.2,5.5-12.2,12.2v0
				C99.3,222.4,101.7,224.7,104.6,224.7z"/>
			<circle fill="#4D4D4D" cx="117.8" cy="222.2" r="3.8"/>
			<circle fill="#4D4D4D" cx="105.2" cy="222.2" r="3.8"/>
			<circle fill="#808080" cx="117.8" cy="222.2" r="1.9"/>
			<circle fill="#808080" cx="105.2" cy="222.2" r="1.9"/>
			<path fill="#E49B19" d="M114.3,209h-0.1c-1.5,0-2.7,1.2-2.7,2.7v2.2c0,1.5,1.2,2.7,2.7,2.7h7.4v-0.1
				C121.6,212.4,118.2,209,114.3,209z"/>
			<path fill="#E49B19" d="M104.4,216.6h2.9c0.9,0,1.7-0.8,1.7-1.7V212c0-1.3-1.5-2.2-2.6-1.5c-1.4,0.8-2.5,2-3.4,3.4
				C102.2,215.1,103,216.6,104.4,216.6z"/>
		</g>
		<g>
			<polygon fill="#C5C5C6" points="310.1,38.8 89.9,259 82.8,259 306.5,35.2 			"/>
		</g>
	</g>
	<g>
		<polygon fill="#5B5C5D" points="318,192 322,206 280.1,206 280.1,192 		"/>
		<rect x="262.1" y="205" fill="#4D4D4D" width="60" height="3"/>
	</g>
	<rect x="257.1" y="243" fill="#5B5C5D" width="127" height="13"/>
	<rect x="257.1" y="256" fill="#4D4D4D" width="127" height="3"/>
	<g>
		<polygon fill="#C5C5C6" points="340.1,156.8 237.9,259 230.8,259 336.5,153.2 		"/>
	</g>
	<rect x="324" y="217" fill="#5B5C5D" width="46" height="13"/>
	<rect x="324" y="230" fill="#4D4D4D" width="46" height="3"/>
	<g>
		<g>
			<path fill="#97B137" d="M281.9,250.7h-12.6c-3.8,0-6.9-3.1-6.9-6.9v-1.3c0-5.1,4.1-9.2,9.2-9.2h3.4c6.7,0,12.2,5.5,12.2,12.2v0
				C287.1,248.4,284.8,250.7,281.9,250.7z"/>
			<circle fill="#4D4D4D" cx="268.6" cy="248.2" r="3.8"/>
			<circle fill="#4D4D4D" cx="281.2" cy="248.2" r="3.8"/>
			<circle fill="#808080" cx="268.6" cy="248.2" r="1.9"/>
			<circle fill="#808080" cx="281.2" cy="248.2" r="1.9"/>
			<path fill="#439541" d="M272.1,235h0.1c1.5,0,2.7,1.2,2.7,2.7v2.2c0,1.5-1.2,2.7-2.7,2.7h-7.4v-0.1
				C264.9,238.4,268.2,235,272.1,235z"/>
			<path fill="#439541" d="M282,242.6h-2.9c-0.9,0-1.7-0.8-1.7-1.7V238c0-1.3,1.5-2.2,2.6-1.5c1.4,0.8,2.5,2,3.4,3.4
				C284.2,241.1,283.4,242.6,282,242.6z"/>
		</g>
		<g>
			<path fill="#FDBA63" d="M315.2,250.7h-12.6c-3.8,0-6.9-3.1-6.9-6.9v-1.3c0-5.1,4.1-9.2,9.2-9.2h3.4c6.7,0,12.2,5.5,12.2,12.2v0
				C320.4,248.4,318.1,250.7,315.2,250.7z"/>
			<circle fill="#4D4D4D" cx="302" cy="248.2" r="3.8"/>
			<circle fill="#4D4D4D" cx="314.6" cy="248.2" r="3.8"/>
			<circle fill="#808080" cx="302" cy="248.2" r="1.9"/>
			<circle fill="#808080" cx="314.6" cy="248.2" r="1.9"/>
			<path fill="#E49B19" d="M305.5,235h0.1c1.5,0,2.7,1.2,2.7,2.7v2.2c0,1.5-1.2,2.7-2.7,2.7h-7.4v-0.1
				C298.2,238.4,301.6,235,305.5,235z"/>
			<path fill="#E49B19" d="M315.4,242.6h-2.9c-0.9,0-1.7-0.8-1.7-1.7V238c0-1.3,1.5-2.2,2.6-1.5c1.4,0.8,2.5,2,3.4,3.4
				C317.6,241.1,316.8,242.6,315.4,242.6z"/>
		</g>
		<g>
			<path fill="#FDBA63" d="M349.5,250.7h-12.6c-3.8,0-6.9-3.1-6.9-6.9v-1.3c0-5.1,4.1-9.2,9.2-9.2h3.4c6.7,0,12.2,5.5,12.2,12.2v0
				C354.7,248.4,352.4,250.7,349.5,250.7z"/>
			<circle fill="#4D4D4D" cx="336.3" cy="248.2" r="3.8"/>
			<circle fill="#4D4D4D" cx="348.9" cy="248.2" r="3.8"/>
			<circle fill="#808080" cx="336.3" cy="248.2" r="1.9"/>
			<circle fill="#808080" cx="348.9" cy="248.2" r="1.9"/>
			<path fill="#E49B19" d="M339.8,235h0.1c1.5,0,2.7,1.2,2.7,2.7v2.2c0,1.5-1.2,2.7-2.7,2.7h-7.4v-0.1
				C332.5,238.4,335.8,235,339.8,235z"/>
			<path fill="#E49B19" d="M349.7,242.6h-2.9c-0.9,0-1.7-0.8-1.7-1.7V238c0-1.3,1.5-2.2,2.6-1.5c1.4,0.8,2.5,2,3.4,3.4
				C351.9,241.1,351,242.6,349.7,242.6z"/>
		</g>
		<g>
			<path fill="#FDBA63" d="M382.9,250.7h-12.6c-3.8,0-6.9-3.1-6.9-6.9v-1.3c0-5.1,4.1-9.2,9.2-9.2h3.4c6.7,0,12.2,5.5,12.2,12.2v0
				C388.1,248.4,385.8,250.7,382.9,250.7z"/>
			<circle fill="#4D4D4D" cx="369.6" cy="248.2" r="3.8"/>
			<circle fill="#4D4D4D" cx="382.2" cy="248.2" r="3.8"/>
			<circle fill="#808080" cx="369.6" cy="248.2" r="1.9"/>
			<circle fill="#808080" cx="382.2" cy="248.2" r="1.9"/>
			<path fill="#E49B19" d="M373.1,235h0.1c1.5,0,2.7,1.2,2.7,2.7v2.2c0,1.5-1.2,2.7-2.7,2.7h-7.4v-0.1
				C365.9,238.4,369.2,235,373.1,235z"/>
			<path fill="#E49B19" d="M383,242.6h-2.9c-0.9,0-1.7-0.8-1.7-1.7V238c0-1.3,1.5-2.2,2.6-1.5c1.4,0.8,2.5,2,3.4,3.4
				C385.2,241.1,384.4,242.6,383,242.6z"/>
		</g>
		<g>
			<path fill="#FDBA63" d="M416.2,250.7h-12.6c-3.8,0-6.9-3.1-6.9-6.9v-1.3c0-5.1,4.1-9.2,9.2-9.2h3.4c6.7,0,12.2,5.5,12.2,12.2v0
				C421.4,248.4,419.1,250.7,416.2,250.7z"/>
			<circle fill="#4D4D4D" cx="403" cy="248.2" r="3.8"/>
			<circle fill="#4D4D4D" cx="415.6" cy="248.2" r="3.8"/>
			<circle fill="#808080" cx="403" cy="248.2" r="1.9"/>
			<circle fill="#808080" cx="415.6" cy="248.2" r="1.9"/>
			<path fill="#E49B19" d="M406.5,235h0.1c1.5,0,2.7,1.2,2.7,2.7v2.2c0,1.5-1.2,2.7-2.7,2.7h-7.4v-0.1
				C399.2,238.4,402.6,235,406.5,235z"/>
			<path fill="#E49B19" d="M416.4,242.6h-2.9c-0.9,0-1.7-0.8-1.7-1.7V238c0-1.3,1.5-2.2,2.6-1.5c1.4,0.8,2.5,2,3.4,3.4
				C418.6,241.1,417.8,242.6,416.4,242.6z"/>
		</g>
	</g>
	<path fill="#5B5C5D" d="M230,300h13v-25.5c0-3.6-2.9-6.5-6.5-6.5h0c-3.6,0-6.5,2.9-6.5,6.5V300z"/>
	<g>
		<path fill="#FDBA63" d="M379.2,199.7h-12.6c-3.8,0-6.9-3.1-6.9-6.9v-1.3c0-5.1,4.1-9.2,9.2-9.2h3.4c6.7,0,12.2,5.5,12.2,12.2v0
			C384.4,197.4,382.1,199.7,379.2,199.7z"/>
		<circle fill="#4D4D4D" cx="366" cy="197.2" r="3.8"/>
		<circle fill="#4D4D4D" cx="378.6" cy="197.2" r="3.8"/>
		<circle fill="#808080" cx="366" cy="197.2" r="1.9"/>
		<circle fill="#808080" cx="378.6" cy="197.2" r="1.9"/>
		<path fill="#E49B19" d="M369.5,184h0.1c1.5,0,2.7,1.2,2.7,2.7v2.2c0,1.5-1.2,2.7-2.7,2.7h-7.4v-0.1
			C362.2,187.4,365.6,184,369.5,184z"/>
		<path fill="#E49B19" d="M379.4,191.6h-2.9c-0.9,0-1.7-0.8-1.7-1.7V187c0-1.3,1.5-2.2,2.6-1.5c1.4,0.8,2.5,2,3.4,3.4
			C381.6,190.1,380.8,191.6,379.4,191.6z"/>
	</g>
	<rect x="257" y="268" fill="#5B5C5D" width="44" height="13"/>
	<rect x="257" y="281" fill="#4D4D4D" width="44" height="2.8"/>
	<g>
		<path fill="#C7C7C7" d="M140.1,115.7v0.4c0,2.7,2.2,5,5,5l0,0c2.7,0,5,2.2,5,5v0.5c0,2.7-2.2,5-5,5h-31.5c-2.7,0-5-2.2-5-5v-0.5
			c0-2.7,2.2-5,5-5h0.5c2.7,0,5-2.2,5-5v-0.4c0-2.7-2.2-5-5-5H92.9c-2.7,0-5-2.2-5-5v-0.5c0-2.7,2.2-5,5-5h73.4c2.7,0,5,2.2,5,5v0.5
			c0,2.7-2.2,5-5,5h-21.2C142.3,110.8,140.1,113,140.1,115.7z"/>
		<path fill="#E0E0E0" d="M77.5,75.1v-0.7c0-2.7-2.2-4.9-4.9-4.9H61.8c-2.7,0-4.9-2.2-4.9-4.9v-0.6c0-2.7,2.2-4.9,4.9-4.9h72.9
			c2.7,0,4.9,2.2,4.9,4.9v0.6c0,2.7-2.2,4.9-4.9,4.9H92.9c-2.7,0-4.9,2.2-4.9,4.9v0.7c0,2.7,2.2,4.9,4.9,4.9h11
			c2.7,0,4.9,2.2,4.9,4.9v0.6c0,2.7-2.2,4.9-4.9,4.9h-0.9c-2.7,0-4.9,2.2-4.9,4.9v0.5c0,2.7,2.2,4.9,4.9,4.9h11.2
			c2.7,0,4.9,2.2,4.9,4.9v0.6c0,2.7-2.2,4.9-4.9,4.9H61.7c-2.7,0-4.9-2.2-4.9-4.9v-0.6c0-2.7,2.2-4.9,4.9-4.9h0
			c2.7,0,4.9-2.2,4.9-4.9v-0.5c0-2.7-2.2-4.9-4.9-4.9H24.9c-2.7,0-4.9-2.2-4.9-4.9v-0.6c0-2.7,2.2-4.9,4.9-4.9h47.7
			C75.3,80,77.5,77.8,77.5,75.1z"/>
		<path fill="#E0E0E0" d="M170.8,116.4v-0.7c0-2.7-2.2-4.9-4.9-4.9h-10.8c-2.7,0-4.9-2.2-4.9-4.9v-0.6c0-2.7,2.2-4.9,4.9-4.9h72.9
			c2.7,0,4.9,2.2,4.9,4.9v0.6c0,2.7-2.2,4.9-4.9,4.9h-41.8c-2.7,0-4.9,2.2-4.9,4.9v0.7c0,2.7,2.2,4.9,4.9,4.9h11
			c2.7,0,4.9,2.2,4.9,4.9v0.6c0,2.7-2.2,4.9-4.9,4.9h-0.9c-2.7,0-4.9,2.2-4.9,4.9v0.5c0,2.7,2.2,4.9,4.9,4.9h11.2
			c2.7,0,4.9,2.2,4.9,4.9v0.6c0,2.7-2.2,4.9-4.9,4.9h-52.5c-2.7,0-4.9-2.2-4.9-4.9v-0.6c0-2.7,2.2-4.9,4.9-4.9h0
			c2.7,0,4.9-2.2,4.9-4.9v-0.5c0-2.7-2.2-4.9-4.9-4.9h-10.4c-2.7,0-4.9-2.2-4.9-4.9v-0.6c0-2.7,2.2-4.9,4.9-4.9h21.2
			C168.6,121.3,170.8,119.1,170.8,116.4z"/>
	</g>
	<path fill="#B1B1B1" d="M534.4,125.6v0.5c0,2.2-1.8,4-4,4l0,0c-2.2,0-4,1.8-4,4v0.6c0,2.2,1.8,4,4,4H565c2.2,0,4-1.8,4-4v-0.6
		c0-2.2-1.8-4-4-4h-9c-2.2,0-4-1.8-4-4v-0.5c0-2.2,1.8-4,4-4h0.1c2.2,0,4-1.8,4-4V117c0-2.2-1.8-4-4-4H502c-2.2,0-4,1.8-4,4v0.5
		c0,2.2,1.8,4,4,4h28.4C532.6,121.6,534.4,123.4,534.4,125.6z"/>
</g>
</svg>
