<?xml version="1.0" encoding="utf-8"?>
<!-- Generator: Adobe Illustrator 18.0.0, SVG Export Plug-In . SVG Version: 6.00 Build 0)  -->
<!DOCTYPE svg PUBLIC "-//W3C//DTD SVG 1.1//EN" "http://www.w3.org/Graphics/SVG/1.1/DTD/svg11.dtd">
<svg version="1.1" id="Layer_1" xmlns="http://www.w3.org/2000/svg" xmlns:xlink="http://www.w3.org/1999/xlink" x="0px" y="0px"
	 viewBox="0 0 718 222.4" width="718" height="222" enable-background="new 0 0 718 222.4" xml:space="preserve">
<path fill="#C7C7C7" d="M120.3,114.7v0.6c0,3.5,2.9,6.4,6.4,6.4h0c3.5,0,6.4,2.9,6.4,6.4v0.6c0,3.5-2.9,6.4-6.4,6.4H86.1
	c-3.5,0-6.4-2.9-6.4-6.4v-0.6c0-3.5,2.9-6.4,6.4-6.4h0.6c3.5,0,6.4-2.9,6.4-6.4v-0.6c0-3.5-2.9-6.4-6.4-6.4H59.6
	c-3.5,0-6.4-2.9-6.4-6.4v-0.6c0-3.5,2.9-6.4,6.4-6.4h94.3c3.5,0,6.4,2.9,6.4,6.4v0.6c0,3.5-2.9,6.4-6.4,6.4h-27.3
	C123.1,108.4,120.3,111.2,120.3,114.7z"/>
<path fill="#B1B1B1" d="M141.1,35.2v0.8c0,3.5,2.8,6.3,6.3,6.3h0c3.5,0,6.3,2.8,6.3,6.3v0.9c0,3.5-2.8,6.3-6.3,6.3H93.6
	c-3.5,0-6.3-2.8-6.3-6.3v-0.9c0-3.5,2.8-6.3,6.3-6.3h13.9c3.5,0,6.3-2.8,6.3-6.3v-0.8c0-3.5-2.8-6.3-6.3-6.3h-0.1
	c-3.5,0-6.3-2.8-6.3-6.3v-0.8c0-3.5,2.8-6.3,6.3-6.3h53.7c3.5,0,6.3,2.8,6.3,6.3v0.8c0,3.5-2.8,6.3-6.3,6.3h-13.8
	C143.9,28.9,141.1,31.7,141.1,35.2z"/>
<path fill="#E0E0E0" d="M39.8,62.6v-0.9c0-3.5-2.8-6.3-6.3-6.3H19.7c-3.5,0-6.3-2.8-6.3-6.3v-0.7c0-3.5,2.8-6.3,6.3-6.3h93.7
	c3.5,0,6.3,2.8,6.3,6.3v0.7c0,3.5-2.8,6.3-6.3,6.3H59.6c-3.5,0-6.3,2.8-6.3,6.3v0.9c0,3.5,2.8,6.3,6.3,6.3h14.1
	c3.5,0,6.3,2.8,6.3,6.3v0.7c0,3.5-2.8,6.3-6.3,6.3h-1.1c-3.5,0-6.3,2.8-6.3,6.3v0.7c0,3.5,2.8,6.3,6.3,6.3h14.4
	c3.5,0,6.3,2.8,6.3,6.3v0.7c0,3.5-2.8,6.3-6.3,6.3H19.6c-3.5,0-6.3-2.8-6.3-6.3v-0.7c0-3.5,2.8-6.3,6.3-6.3h0c3.5,0,6.3-2.8,6.3-6.3
	v-0.7c0-3.5-2.8-6.3-6.3-6.3H6.3c-3.5,0-6.3-2.8-6.3-6.3v-0.7c0-3.5,2.8-6.3,6.3-6.3h27.3C37,68.9,39.8,66.1,39.8,62.6z"/>
<g>
	<circle fill="#FDBA63" cx="142.6" cy="64.2" r="64.2"/>
	<path fill="#F9A65F" d="M206.7,64.2c0,35.4-28.7,64.2-64.2,64.2c-17.7,0-33.8-7.2-45.4-18.8l90.7-90.7
		C199.5,30.4,206.7,46.4,206.7,64.2z"/>
	<path fill="none" stroke="#FDBA63" stroke-width="5" stroke-linecap="round" stroke-miterlimit="10" d="M148,18.7
		c22.9,0,41.5,18.6,41.5,41.5"/>
	<path fill="none" stroke="#F9A65F" stroke-width="5" stroke-linecap="round" stroke-miterlimit="10" d="M138.9,110.7
		c-22.9,0-41.5-18.6-41.5-41.5"/>
	<circle fill="#FDBA63" cx="142.6" cy="64.2" r="33.3"/>
</g>
<path fill="#E0E0E0" d="M159.8,115.6v-0.9c0-3.5-2.8-6.3-6.3-6.3h-13.8c-3.5,0-6.3-2.8-6.3-6.3v-0.7c0-3.5,2.8-6.3,6.3-6.3h93.7
	c3.5,0,6.3,2.8,6.3,6.3v0.7c0,3.5-2.8,6.3-6.3,6.3h-53.8c-3.5,0-6.3,2.8-6.3,6.3v0.9c0,3.5,2.8,6.3,6.3,6.3h14.1
	c3.5,0,6.3,2.8,6.3,6.3v0.7c0,3.5-2.8,6.3-6.3,6.3h-1.1c-3.5,0-6.3,2.8-6.3,6.3v0.7c0,3.5,2.8,6.3,6.3,6.3H207
	c3.5,0,6.3,2.8,6.3,6.3v0.7c0,3.5-2.8,6.3-6.3,6.3h-67.5c-3.5,0-6.3-2.8-6.3-6.3v-0.7c0-3.5,2.8-6.3,6.3-6.3h0
	c3.5,0,6.3-2.8,6.3-6.3v-0.7c0-3.5-2.8-6.3-6.3-6.3h-13.3c-3.5,0-6.3-2.8-6.3-6.3v-0.7c0-3.5,2.8-6.3,6.3-6.3h27.3
	C156.9,121.9,159.8,119.1,159.8,115.6z"/>
<g>
	<path fill="#C7C7C7" d="M597.7,175.5v0.6c0,3.5-2.9,6.4-6.4,6.4h0c-3.5,0-6.4,2.9-6.4,6.4v0.6c0,3.5,2.9,6.4,6.4,6.4h40.5
		c3.5,0,6.4-2.9,6.4-6.4v-0.6c0-3.5-2.9-6.4-6.4-6.4h-0.6c-3.5,0-6.4-2.9-6.4-6.4v-0.6c0-3.5,2.9-6.4,6.4-6.4h27.2
		c3.5,0,6.4-2.9,6.4-6.4v-0.6c0-3.5-2.9-6.4-6.4-6.4h-94.3c-3.5,0-6.4,2.9-6.4,6.4v0.6c0,3.5,2.9,6.4,6.4,6.4h27.3
		C594.8,169.1,597.7,172,597.7,175.5z"/>
	<path fill="#B1B1B1" d="M576.9,95.9v0.8c0,3.5-2.8,6.3-6.3,6.3l0,0c-3.5,0-6.3,2.8-6.3,6.3v0.9c0,3.5,2.8,6.3,6.3,6.3h53.7
		c3.5,0,6.3-2.8,6.3-6.3v-0.9c0-3.5-2.8-6.3-6.3-6.3h-13.9c-3.5,0-6.3-2.8-6.3-6.3v-0.8c0-3.5,2.8-6.3,6.3-6.3h0.1
		c3.5,0,6.3-2.8,6.3-6.3v-0.8c0-3.5-2.8-6.3-6.3-6.3h-53.7c-3.5,0-6.3,2.8-6.3,6.3v0.8c0,3.5,2.8,6.3,6.3,6.3h13.8
		C574.1,89.6,576.9,92.5,576.9,95.9z"/>
	<path fill="#E0E0E0" d="M678.2,123.3v-0.9c0-3.5,2.8-6.3,6.3-6.3h13.8c3.5,0,6.3-2.8,6.3-6.3v-0.7c0-3.5-2.8-6.3-6.3-6.3h-93.7
		c-3.5,0-6.3,2.8-6.3,6.3v0.7c0,3.5,2.8,6.3,6.3,6.3h53.8c3.5,0,6.3,2.8,6.3,6.3v0.9c0,3.5-2.8,6.3-6.3,6.3h-14.1
		c-3.5,0-6.3,2.8-6.3,6.3v0.7c0,3.5,2.8,6.3,6.3,6.3h1.1c3.5,0,6.3,2.8,6.3,6.3v0.7c0,3.5-2.8,6.3-6.3,6.3h-14.4
		c-3.5,0-6.3,2.8-6.3,6.3v0.7c0,3.5,2.8,6.3,6.3,6.3h67.5c3.5,0,6.3-2.8,6.3-6.3v-0.7c0-3.5-2.8-6.3-6.3-6.3l0,0
		c-3.5,0-6.3-2.8-6.3-6.3v-0.7c0-3.5,2.8-6.3,6.3-6.3h13.3c3.5,0,6.3-2.8,6.3-6.3v-0.7c0-3.5-2.8-6.3-6.3-6.3h-27.3
		C681,129.6,678.2,126.8,678.2,123.3z"/>
	<path fill="#E0E0E0" d="M558.2,176.4v-0.9c0-3.5,2.8-6.3,6.3-6.3h13.8c3.5,0,6.3-2.8,6.3-6.3v-0.7c0-3.5-2.8-6.3-6.3-6.3h-93.7
		c-3.5,0-6.3,2.8-6.3,6.3v0.7c0,3.5,2.8,6.3,6.3,6.3h53.8c3.5,0,6.3,2.8,6.3,6.3v0.9c0,3.5-2.8,6.3-6.3,6.3h-14.1
		c-3.5,0-6.3,2.8-6.3,6.3v0.7c0,3.5,2.8,6.3,6.3,6.3h1.1c3.5,0,6.3,2.8,6.3,6.3v0.7c0,3.5-2.8,6.3-6.3,6.3h-14.4
		c-3.5,0-6.3,2.8-6.3,6.3v0.7c0,3.5,2.8,6.3,6.3,6.3h67.5c3.5,0,6.3-2.8,6.3-6.3v-0.7c0-3.5-2.8-6.3-6.3-6.3l0,0
		c-3.5,0-6.3-2.8-6.3-6.3v-0.7c0-3.5,2.8-6.3,6.3-6.3h13.3c3.5,0,6.3-2.8,6.3-6.3v-0.7c0-3.5-2.8-6.3-6.3-6.3h-27.3
		C561,182.6,558.2,179.8,558.2,176.4z"/>
</g>
</svg>
