<?xml version="1.0" encoding="utf-8"?>
<!-- Generator: Adobe Illustrator 19.0.0, SVG Export Plug-In . SVG Version: 6.00 Build 0)  -->
<svg version="1.1" id="Layer_1" xmlns="http://www.w3.org/2000/svg" xmlns:xlink="http://www.w3.org/1999/xlink" x="0px" y="0px"
	 viewBox="-77 80.5 128.3 123" style="enable-background:new -77 80.5 128.3 123;" xml:space="preserve">
<style type="text/css">
	.st0{fill:#EF5D5F;}
	.st1{fill:#F17565;}
	.st2{fill:#FDBA63;}
	.st3{fill:#FBAB18;}
	.st4{fill:#0081A9;}
	.st5{fill:#FFE08C;}
	.st6{fill:#6B461F;}
	.st7{fill:#84582B;}
	.st8{fill:#9CC638;}
	.st9{fill:#7B5126;}
</style>
<g id="armleft">
	<g>
		<path class="st0" d="M27.7,100.5c-0.8-0.1-1.5-0.6-2-1.3c-0.8-1-1.3-2.2-1.3-3.5c-0.1-3.5,3.1-6.7,2.5-10.1
			c-0.3-2-1.8-3.6-3.3-5.1c2.7,2,5.3,4.2,7.3,6.9c2.1,2.7,3.5,5.9,3.6,9.2c0,0.9-0.1,1.8-0.5,2.5c-0.5,0.9-1.5,1.4-2.5,1.6
			c-1,0.2-2,0.2-3,0.1L27.7,100.5z"/>
	</g>
	<g>
		<path class="st1" d="M31.9,96.9c-0.1,0.5-0.5,0.8-0.9,1.1c-0.1,0.1-0.2,0.1-0.3,0.2c0,0,0,0-0.1,0c-0.5,0.1-1.1,0.1-1.7,0.1
			L28.4,98c-0.5,0-0.9-0.3-1.1-0.7c-0.1-0.1-0.1-0.1-0.2-0.2s-0.1-0.3-0.2-0.4c-0.3-1-0.1-2.2,0-3.2c0.3-0.7,0.6-1.4,0.8-2.2
			c0.3,0.2,0.7,0.4,1,0.7c1.3,0.9,2.4,2.2,3,3.8C31.9,96.1,32,96.5,31.9,96.9z"/>
	</g>
	<g>
		<path class="st2" d="M42.9,145.4l-4-16.2c-0.1-0.3-0.2-0.6-0.3-0.8l-12.5-25.9c-0.8-1.6-0.5-3.4,0.7-4.4l4.1-3.7
			c0.8-0.7,2-0.9,3-0.5l0.8,0.3c1.1,0.5,2,1.6,2.2,2.9l6.1,29.8c0,0.2,0.1,0.4,0.2,0.6l6.1,16.2c0.5,1.4,0.3,2.9-0.6,3.8l-0.9,1
			c-0.2,0.2-0.5,0.3-0.8,0.2l-1.7-0.5C44.2,147.9,43.2,146.8,42.9,145.4z"/>
		<path class="st3" d="M36.9,97.1c-0.3-1.3-1.1-2.4-2.2-2.9l-0.8-0.3c-0.1-0.1-0.2-0.1-0.4-0.1c1,3.5,1.7,6.9,2.1,10.5
			c0.6,5.5,0.4,11-1,16l3.9,8.1c0,0,0,0,0,0.1c1.4-1.4,2.6-3,3.9-4.6L36.9,97.1z"/>
		<path class="st4" d="M42.5,123.9c-1.2,1.6-2.5,3.2-3.9,4.6c0.1,0.2,0.2,0.5,0.3,0.8l0.9,3.8c1.5-1.1,2.9-2.4,4.1-3.9l-0.6-1.6
			c-0.1-0.2-0.1-0.4-0.2-0.6L42.5,123.9z"/>
		<path class="st5" d="M39.9,111.2l0.6,3.1c-1.2-0.2-2.4-1.5-3.3-2.8c-0.2,0.3-0.4,0.4-0.7,0.6c-0.6,0.4-1.7,0.1-2.1-0.7
			c-0.7-1.6-1.4-3.2-2.1-4.8c0,2,0.3,4.2,0.3,6.1c0,0.9-0.1,1.7-0.5,2.3l-1.8-3.7c0-0.9-0.1-1.7-0.1-2.6c-0.2-2.3-0.2-4.5,0.5-6.6
			c0.3-0.9,1.6-0.8,2,0c0.7,1.3,1.4,2.7,2,4.1c0.1,0.2,0.6,1.6,1,2.6c0.2-0.3,0.3-0.4,0.6-0.6c0.6-0.4,1.2-0.1,1.6,0.5
			C38.2,109,39.1,110.5,39.9,111.2z"/>
	</g>
	<g>
		<g>
			<path class="st6" d="M27.4,164c-0.7,0-1.4-0.3-1.9-0.8L1.4,139.1c-1-1-1-2.7,0-3.8c1-1,2.7-1,3.8,0l22.5,22.4l19-15.1
				c1.2-0.9,2.8-0.7,3.8,0.4c0.9,1.2,0.7,2.8-0.4,3.8l-20.8,16.6C28.6,163.8,28,164,27.4,164z"/>
		</g>
		<g>
			<path class="st3" d="M13.8,152c-1.1,0-2.2-0.4-3-1.2L0.2,140.2c-1.7-1.7-1.7-4.4,0-6c1.7-1.7,4.4-1.7,6,0l10.6,10.6
				c1.7,1.7,1.7,4.4,0,6C16,151.6,14.9,152,13.8,152z"/>
		</g>
	</g>
	<g>
		<path class="st7" d="M49.7,147.1l-2.8,1.6c-2.1,1.2-4.7,0.5-5.9-1.5l0,0c-1.2-2.1-0.5-4.7,1.5-5.9l2.8-1.6
			c2.1-1.2,4.7-0.5,5.9,1.5l0,0C52.4,143.2,51.8,145.9,49.7,147.1z"/>
	</g>
</g>
<g>
	<g>
		<polygon class="st2" points="-13.2,161.9 -23.7,151.4 -3.8,123.8 15,142.6 		"/>
	</g>
	<g>
		<polygon class="st3" points="15,142.6 -8,158.2 -6,126.8 -3.8,123.8 		"/>
	</g>
	<g>
		<g>
			<polygon class="st8" points="-6,158.2 -12.5,163.5 -25.2,153.1 -18.8,144.9 			"/>
		</g>
	</g>
	<g>
		<circle class="st6" cx="11.3" cy="126.5" r="15.4"/>
		<path class="st9" d="M26.7,126.5c0,8.5-6.9,15.4-15.4,15.4c-6,0-11.1-3.4-13.6-8.2c2.6,1.9,5.7,3,9.1,3c8.4,0,15.4-6.9,15.4-15.4
			c0-2.6-0.6-5-1.7-7C24.2,116.9,26.7,121.3,26.7,126.5z"/>
	</g>
</g>
<g id="armright">
	<g>
		<g>
			<path class="st6" d="M-1.8,136.4c-0.7,0-1.4-0.3-1.9-0.8l-22-23l-19.4,14.6c-1.2,0.9-2.9,0.7-3.7-0.5c-0.9-1.2-0.7-2.9,0.5-3.7
				l21.2-16c1.1-0.8,2.6-0.7,3.5,0.3L-0.1,132c1,1.1,1,2.8-0.1,3.8C-0.5,136.2-1.2,136.4-1.8,136.4z"/>
		</g>
		<g>
			<path class="st2" d="M-1.8,138c-1.1,0-2.3-0.4-3.1-1.3l-10.3-10.8c-1.6-1.7-1.6-4.4,0.1-6s4.4-1.6,6,0.1l10.4,10.8
				c1.6,1.7,1.6,4.4-0.1,6C0.3,137.6-0.8,138-1.8,138z"/>
		</g>
	</g>
	<g>
		<path class="st7" d="M-40.5,128.5l-2.8,1.6c-2.1,1.2-4.7,0.5-5.9-1.5l0,0c-1.2-2.1-0.5-4.7,1.5-5.9l2.8-1.6
			c2.1-1.2,4.7-0.5,5.9,1.5l0,0C-37.8,124.6-38.5,127.3-40.5,128.5z"/>
	</g>
</g>
<g id="leftleg">
	<g>
		<g>
			<path class="st6" d="M20.9,179.7c-0.3,0-0.7-0.1-1-0.2c-1.4-0.6-1.3,0-0.7-1.4l-16.7-8.4l-23.2-12.5c-1.3-0.7-1.7-2.4-1-3.6
				c0.7-1.3,2.4-1.7,3.6-1l25.5,14.6c0.7,0.6,0.6,0.5,1,1.3l16,8.2C24.1,177.8,22,179.7,20.9,179.7z"/>
		</g>
		<g>
			<g>
				<path class="st8" d="M-6.3,166.7c-0.7,0-1.4-0.2-2.1-0.6l-13-7.4c-2-1.2-2.8-3.8-1.6-5.8s3.8-2.8,5.8-1.6l13,7.4
					c2,1.2,2.8,3.8,1.6,5.8C-3.3,166-4.8,166.7-6.3,166.7z"/>
			</g>
		</g>
	</g>
	<g>
		<path class="st2" d="M24.6,173.6l2.8,1.6c2.1,1.2,2.7,3.9,1.5,5.9l0,0c-1.2,2.1-3.9,2.7-5.9,1.5l-2.8-1.6
			c-2.1-1.2-2.7-3.9-1.5-5.9l0,0C19.9,173.1,22.6,172.4,24.6,173.6z"/>
	</g>
</g>
<g id="rightleg">
	<g>
		<g>
			<path class="st6" d="M-46.9,169.8c-0.6,0-1.2-0.2-1.7-0.6l-16.1-6.3c-1.1-0.9-1.3-2.6-0.4-3.8c0.9-1.1,2.6-1.3,3.8-0.4l14.4,4.9
				l25.4-12.1c1.1-1,2.7-1,3.8,0.1c1,1.1,1,2.7-0.1,3.8L-45,169C-45.5,169.5-46.2,169.8-46.9,169.8z"/>
		</g>
		<g>
			<g>
				<path class="st8" d="M-32.8,166c-1.1,0-2.2-0.4-3.1-1.3c-1.6-1.7-1.6-4.4,0.1-6l12.9-8.4c1.7-1.6,4.4-1.6,6,0.1s1.6,4.4-0.1,6
					l-12.8,8.4C-30.6,165.6-31.7,166-32.8,166z"/>
			</g>
		</g>
	</g>
	<g>
		<path class="st2" d="M-62.2,165.2l-2.8,1.6c-2.1,1.2-4.7,0.5-5.9-1.5l0,0c-1.2-2.1-0.5-4.7,1.5-5.9l2.8-1.6
			c2.1-1.2,4.7-0.5,5.9,1.5l0,0C-59.4,161.4-60.1,163.9-62.2,165.2z"/>
	</g>
</g>
</svg>
